<?xml version="1.0" encoding="utf-8"?>
<!-- Generator: Adobe Illustrator 19.0.0, SVG Export Plug-In . SVG Version: 6.00 Build 0)  -->
<svg version="1.1" id="Capa_1" xmlns="http://www.w3.org/2000/svg" xmlns:xlink="http://www.w3.org/1999/xlink" x="0px" y="0px"
	 viewBox="0 0 299.3 153.1" style="enable-background:new 0 0 299.3 153.1;" xml:space="preserve">
<style type="text/css">
	.st0{display:none;fill:#FFCF33;}
	.st1{display:none;}
	.st2{display:inline;opacity:0.3;fill:#E3E3E3;}
	.st3{display:none;fill:#ECDBC0;}
	.st4{display:none;fill:#C6C6C6;}
	.st5{display:none;fill:#D0D0D0;}
	.st6{fill:#D0D0D0;}
	.st7{display:inline;fill:#E4313C;}
	.st8{display:inline;fill:#FFFFFF;}
	.st9{display:inline;fill:#95C11F;}
	.st10{display:inline;fill:#579932;}
	.st11{display:inline;}
	.st12{fill:#8F2311;}
	.st13{display:inline;fill:#E4D6DE;}
	.st14{display:inline;fill:#FAB700;}
	.st15{fill:#579932;}
	.st16{fill:#9EC530;}
	.st17{fill:#683C13;}
	.st18{fill:#CA9B54;}
	.st19{display:inline;fill:#F6A124;}
	.st20{display:inline;fill:#FEDA99;}
	.st21{fill:#E4313C;}
	.st22{fill:#FFFFFF;}
	.st23{fill:#E2C5D4;}
	.st24{fill:#5C3B66;}
	.st25{fill:#D3B3C3;}
	.st26{fill:#FFCF33;}
	.st27{fill:#FEDA99;}
	.st28{fill:#E3E3E3;}
	.st29{fill:#F6F6F6;}
</style>
<rect x="-69.1" y="-228.1" class="st0" width="425.2" height="425.2"/>
<g>
	<g class="st1">
		<circle class="st2" cx="151.2" cy="-37.8" r="133.5"/>
		<circle class="st2" cx="231.6" cy="-113.7" r="65.7"/>
		<circle class="st2" cx="55.8" cy="-78.4" r="71.9"/>
	</g>
	<g>
		<ellipse class="st3" cx="151.9" cy="146.9" rx="104" ry="22.6"/>
		<g>
			<ellipse class="st4" cx="151.6" cy="20.7" rx="147.6" ry="20.7"/>
			<ellipse class="st5" cx="151.6" cy="20.7" rx="135.1" ry="14.8"/>
			<path class="st6" d="M202.9,147.7c-15.2,9.4-98,4.7-102.4-0.4c-3.8-4.4-0.1-11.9-0.1-11.9h102.5
				C202.9,135.4,207.9,144.6,202.9,147.7z"/>
			<g class="st1">
				<path class="st7" d="M233.6-75.5l-62,102c0,0,62.2,46.3,124.3,0.4L233.6-75.5z"/>
				<path class="st8" d="M213.1-28.5c0,0.6,0.2,2.9,1.4,2.5c0.8-0.3,1.3-1.2,1.8-1.7c0.5-0.5,0.9-1,1.6-1.3c0.1,0,0.2,0,0.2,0.1
					c0.3,1.2-0.3,7.2,2.1,6.5c1.3-0.4,2.1-1.9,2.7-2.9c0.6-0.9,1.1-2,1.9-2.8c0.1-0.1,0.2,0,0.3,0.1c0.5,1.2,0.9,2.5,1.4,3.7
					c0.3,0.6,0.6,1.2,0.9,1.8c0.2,0.3,0.7,1.4,1.1,0.9c1.5-1.7,1.6-4.2,3-6c0-0.1,0.1-0.1,0.2,0c2.2,1.2,3,3.7,5,5.1
					c0.1,0.1,0.8,0.6,0.9,0.3c0.2-0.4,0.4-0.9,0.6-1.3c0.3-0.7,0.5-1.5,0.7-2.3c0.4-1.5,0.9-3.1,1.4-4.6c0-0.1,0.1-0.2,0.2-0.1
					c2.7,1.6,4.5,4.2,7,5.9c0.4-0.6,0.7-1.2,0.9-1.9l-18.8-30.8l-16.6,27.2C213.1-29.6,213.1-29,213.1-28.5z"/>
				<path class="st9" d="M286.1,10.6c0,0-16.1,15.1-52.2,15.1c-36.5,0-52.5-15.1-52.5-15.1l-9.7,15.9c0,0,62.2,46.3,124.3,0.4
					L286.1,10.6z"/>
				<path class="st10" d="M178.4,15.5l-6.7,11c0,0,62.2,46.3,124.3,0.4l-6.9-11.4c0,0-18.8,16.7-55.2,16.7
					C194.9,32.1,178.4,15.5,178.4,15.5z"/>
				<g class="st11">
					<path class="st12" d="M202.2-0.3c1.7,0.6,1.4,12.3-3.7,10.5C193.5,8.4,200-1.1,202.2-0.3z"/>
					<path class="st12" d="M219.2,4.6c1.7,0.6,1.4,12.3-3.7,10.5C210.5,13.3,217,3.8,219.2,4.6z"/>
					<path class="st12" d="M263.3-0.3c-1.7,0.6-1.4,12.3,3.7,10.5C272,8.4,265.5-1.1,263.3-0.3z"/>
					<path class="st12" d="M248.5,3.8c-1.7,0.6-1.4,12.3,3.7,10.5C257.2,12.5,250.8,3,248.5,3.8z"/>
					<path class="st12" d="M234,5.8c1.8,0.1,4.9,11.4-0.5,11.1C228.3,16.7,231.7,5.7,234,5.8z"/>
					<path class="st12" d="M213.7-13.3c1.6,0.4,2.2,11.1-2.7,9.8C206.4-4.8,211.6-13.9,213.7-13.3z"/>
					<path class="st12" d="M227.4-10.6c1.6,0.4,2.2,11.1-2.7,9.8C220.1-2.1,225.3-11.2,227.4-10.6z"/>
					<path class="st12" d="M254.1-13.4c-1.5,0.7-0.4,11.3,4.2,9.3C262.6-6.1,256.1-14.3,254.1-13.4z"/>
					<path class="st12" d="M241-10.6c1.6-0.1,5.3,10,0.3,10.2C236.5-0.3,238.9-10.5,241-10.6z"/>
					<path class="st12" d="M223.6-24.2c1.2,0.5,0.9,9.3-3,7.8C217-17.8,221.9-24.9,223.6-24.2z"/>
					<path class="st12" d="M245.6-24.4c-1.3,0.4-1.3,9.2,2.6,7.9C252-17.7,247.3-24.9,245.6-24.4z"/>
					<path class="st12" d="M234.7-23.1c1.3,0.1,3.5,8.6-0.6,8.3C230.2-15,232.9-23.2,234.7-23.1z"/>
				</g>
				<path class="st13" d="M233.6-75.5l-5.1,8.4c1,1.4,39.3,66.3,41.3,71c1.7,4,3.3,8.3,3.5,12.7c0.1,3.7-0.7,7.5-2.8,10.6
					c-2.3,3.5-5.8,6-9.7,7.3c-4.5,1.6-44.7,12.6-84.9-15.3l-4.4,7.3c0,0,62.2,46.3,124.3,0.4L233.6-75.5z"/>
			</g>
			<g class="st1">
				<path class="st14" d="M171.2-61.9c0,0,9.9-4.2,21.6,0.3c0,0-3.6,4.8-11.4,4.8C173.5-56.9,171.5-60.6,171.2-61.9z"/>
				<g class="st11">
					<path class="st15" d="M199.6-86.1c0,0,2.1,14.5-15.4,21.3C184.2-64.8,185.1-84.2,199.6-86.1z"/>
					<path class="st16" d="M184.2-64.8c17.5-6.7,15.4-21.2,15.4-21.2c0,0-0.1,0-0.1,0L184.2-64.8z"/>
				</g>
				<g class="st11">
					<path class="st17" d="M185.9-56.6c0,0-4.5-20.2,0.3-28.9c0,0-5.9-2.6-12.7,2.8c0,0,5,21.7,4.4,26.2L185.9-56.6z"/>
					<path class="st18" d="M186.2-85.4c0,0-1.7-0.8-4.4-0.6c0,0-0.6,9.1-0.7,12.3c-0.1,4-2.1,15.8-3.3,17.1c0,0,0,0.1,0,0.1l8-0.1
						C185.9-56.6,181.4-76.8,186.2-85.4z"/>
				</g>
				<path class="st19" d="M227.7-16.2c0,25.6-20.7,46.3-46.3,46.3c-25.6,0-46.3-20.7-46.3-46.3c0-23.7,14.1-45.6,37.2-45.8
					c4.7,0,7.2,2.9,9.1,2.9c2.2,0,5.9-3.3,9.6-2.8C213.6-59,227.7-39.6,227.7-16.2z"/>
				<path class="st8" d="M146.5-9.3c3.1,0.3,6,0,8.1-2.4c5.1-5.7,6.9-13,7.1-20.5c0.1-5.1-0.1-10.6,2.4-15.3
					c1.1-2.1,2.7-3.6,4.5-4.7c-0.5-0.1-1.1-0.2-1.7-0.2c-15.9,0.1-25.7,15.2-25.7,31.6c0,3.9,0.7,7.6,1.9,11
					C144.2-9.5,145.4-9.4,146.5-9.3z"/>
				<path class="st20" d="M215.3-49.7c3.6,8,4.1,17.5,3.3,26c-0.9,9.7-4.2,18.7-10.4,26.3c-5.9,7.2-14.1,13.6-23.4,15.5
					c-10.2,2-21.3,0.9-30.9-3.1c-4-1.7-8.1-3.8-11.7-6.3c8.2,12.9,22.6,21.5,39.1,21.5c25.6,0,46.3-20.7,46.3-46.3
					C227.7-29.3,223.2-41.2,215.3-49.7z"/>
			</g>
			<g class="st1">
				<g class="st11">
					<path class="st17" d="M111-39.5c0,0-5.6-25.3,0.4-36.2c0,0-7.3-3.2-15.9,3.5c0,0,6.2,27.2,5.5,32.8L111-39.5z"/>
					<path class="st18" d="M111.4-75.7c0,0-2.1-0.9-5.5-0.7c0,0-0.7,11.4-0.8,15.4c-0.2,5-2.6,19.8-4.1,21.4c0,0,0,0.1,0,0.2l10-0.1
						C111-39.5,105.4-64.8,111.4-75.7z"/>
				</g>
				<g class="st11">
					<path class="st21" d="M153.5-10.9c0,27.6-22.4,50-50,50c-27.6,0-50-22.4-50-50c0-18.6,5.2-29.3,20.6-36.4
						c18.5-8.5,22.5,2.5,31.6,2.5c11,0,20.7-9.6,31.9-2C149.2-38.8,153.5-25.2,153.5-10.9z"/>
					<path class="st22" d="M68.7-2c2.5-1.3,4.3-3.2,5.4-5.8c0.9-2.5,1.3-5.1,1.5-7.7c0.3-4.3,0.4-8.7,1.4-13c0.7-3.2,2-6.4,4.5-8.6
						c2.2-2,4.9-3.1,7.7-3.9c-3.4-1.7-7.3-3.4-15.2,0.2C63.6-36.1,60.1-29,60.1-16.6c0,5.8,1.5,11.3,4.1,16.1
						C65.8-0.8,67.4-1.2,68.7-2z"/>
					<path class="st23" d="M137.5-46.8c-6.1-4.2-11.8-3.2-17.5-1.4c0.8,0.7,1.7,1.4,2.4,2.1c5.6,5.4,19.3,23.7,12,47.2
						c-11.7,37.5-61.8,26.5-65.3,24.3c-0.1-0.1-0.2-0.1-0.3-0.2c9,8.6,21.1,13.9,34.5,13.9c27.6,0,50-22.4,50-50
						C153.5-25.2,149.2-38.8,137.5-46.8z"/>
				</g>
				<g class="st11">
					<path class="st15" d="M128.2-77.2c0,0,2.6,18.2-19.3,26.6C108.8-50.6,110-74.8,128.2-77.2z"/>
					<path class="st16" d="M108.9-50.6c21.9-8.4,19.3-26.6,19.3-26.6c-0.1,0-0.1,0-0.2,0L108.9-50.6z"/>
				</g>
			</g>
			<g class="st1">
				<g class="st11">
					<path class="st17" d="M35.5-29.4c2.6-8.1,0.4-33.1-3.7-45.3c0,0,5.6-3.5,11.2,3c0,0-3.3,31.4-3.9,42.4L35.5-29.4z"/>
				</g>
				<g class="st11">
					<g>
						<path class="st18" d="M34.3-75.6c0.4,0.7,0.8,1.5,1.1,2.3C37.5-68,38-62,38.8-56.4c0.8,5.6,0.7,11.1,0,16.7
							c-0.4,2.8-0.9,5.6-1.5,8.4c-0.1,0.7-0.3,1.4-0.9,1.9c0,0,0,0,0,0l2.6,0.1c0.6-11,3.9-42.4,3.9-42.4
							C39.7-75.5,36.4-75.9,34.3-75.6z"/>
					</g>
				</g>
				<g class="st11">
					<path class="st15" d="M22.3-53.5c0,0,0.1,11.4,14.4,14.5C36.7-39,33.7-53.8,22.3-53.5z"/>
					<path class="st16" d="M36.7-39c-14.3-3.1-14.4-14.5-14.4-14.5c0,0,0.1,0,0.1,0L36.7-39z"/>
				</g>
				<g class="st11">
					<path class="st15" d="M53.8-61.9c0,0,0.8,11.4-13.2,15.6C40.6-46.2,42.4-61.2,53.8-61.9z"/>
					<path class="st16" d="M40.6-46.2c14-4.2,13.2-15.6,13.2-15.6c0,0-0.1,0-0.1,0L40.6-46.2z"/>
				</g>
				<g class="st11">
					<g>
						
							<ellipse transform="matrix(0.988 -0.1547 0.1547 0.988 2.6216 -0.1502)" class="st24" cx="0.3" cy="-16.9" rx="15.3" ry="14.9"/>
						<path class="st22" d="M-7.5-15.5c3.3-1.7,4.1-5.1,4.3-7.6c0.2-1.9-0.7-3.8-0.1-5.6c0.1-0.4,0.3-0.7,0.6-1
							c-6.2,1.5-10.3,7.3-9.3,13.6c0.1,0.6,0.2,1.1,0.4,1.7C-10.3-14.5-8.8-14.8-7.5-15.5z"/>
						<path class="st25" d="M5.4-31c1.7,2,2.9,4.5,3.4,7.3C10.1-15.6,4.3-8-4-6.7c-2.6,0.4-5.1,0.2-7.4-0.6c3.3,3.8,8.6,5.9,14,5.1
							c8.3-1.3,14.1-8.9,12.8-17.1C14.6-24.9,10.6-29.3,5.4-31z"/>
					</g>
					<g>
						
							<ellipse transform="matrix(0.988 -0.1547 0.1547 0.988 3.5486 3.7542)" class="st24" cx="25.9" cy="-20.9" rx="15.3" ry="14.9"/>
						<path class="st22" d="M18-19.5c3.3-1.7,4.1-5.1,4.3-7.6c0.2-1.9-0.7-3.8-0.1-5.6c0.1-0.4,0.3-0.7,0.6-1
							c-6.2,1.5-10.3,7.3-9.3,13.6c0.1,0.6,0.2,1.1,0.4,1.7C15.3-18.5,16.7-18.8,18-19.5z"/>
						<path class="st25" d="M31-35c1.7,2,2.9,4.5,3.4,7.3c1.3,8.1-4.5,15.8-12.8,17.1c-2.6,0.4-5.1,0.2-7.4-0.6
							c3.3,3.8,8.6,5.9,14,5.1c8.3-1.3,14.1-8.9,12.8-17.1C40.1-28.9,36.1-33.3,31-35z"/>
					</g>
					<g>
						
							<ellipse transform="matrix(0.988 -0.1547 0.1547 0.988 4.4909 7.7257)" class="st24" cx="51.9" cy="-25" rx="15.3" ry="14.9"/>
						<path class="st22" d="M44-23.6c3.3-1.7,4.1-5.1,4.3-7.6c0.2-1.9-0.7-3.8-0.1-5.6c0.1-0.4,0.3-0.7,0.6-1
							c-6.2,1.5-10.3,7.3-9.3,13.6c0.1,0.6,0.2,1.1,0.4,1.7C41.3-22.6,42.7-22.9,44-23.6z"/>
						<path class="st25" d="M57-39.1c1.7,2,2.9,4.5,3.4,7.3c1.3,8.1-4.5,15.8-12.8,17.1c-2.6,0.4-5.1,0.2-7.4-0.6
							c3.3,3.8,8.6,5.9,14,5.1c8.3-1.3,14.1-8.9,12.8-17.1C66.1-33,62.1-37.3,57-39.1z"/>
					</g>
					<g>
						
							<ellipse transform="matrix(0.988 -0.1547 0.1547 0.988 5.4285 11.6749)" class="st24" cx="77.7" cy="-29" rx="15.3" ry="14.9"/>
						<path class="st22" d="M69.8-27.6c3.3-1.7,4.1-5.1,4.3-7.6c0.2-1.9-0.7-3.8-0.1-5.6c0.1-0.4,0.3-0.7,0.6-1
							c-6.2,1.5-10.3,7.3-9.3,13.6c0.1,0.6,0.2,1.1,0.4,1.7C67.1-26.7,68.6-27,69.8-27.6z"/>
						<path class="st25" d="M82.8-43.1c1.7,2,2.9,4.5,3.4,7.3c1.3,8.1-4.5,15.8-12.8,17.1c-2.6,0.4-5.1,0.2-7.4-0.6
							c3.3,3.8,8.6,5.9,14,5.1c8.3-1.3,14.1-8.9,12.8-17.1C91.9-37,87.9-41.4,82.8-43.1z"/>
					</g>
					<g>
						<ellipse transform="matrix(0.988 -0.1547 0.1547 0.988 0.3223 2.3047)" class="st24" cx="15" cy="-0.9" rx="15.3" ry="14.9"/>
						<path class="st22" d="M7.1,0.5c3.3-1.7,4.1-5.1,4.3-7.6c0.2-1.9-0.7-3.8-0.1-5.6c0.1-0.4,0.3-0.7,0.6-1
							C5.7-12.2,1.5-6.4,2.5-0.2C2.6,0.4,2.7,1,2.9,1.5C4.4,1.5,5.8,1.2,7.1,0.5z"/>
						<path class="st25" d="M20.1-15c1.7,2,2.9,4.5,3.4,7.3C24.7,0.4,19,8,10.6,9.3C8.1,9.7,5.5,9.5,3.2,8.7c3.3,3.8,8.6,5.9,14,5.1
							c8.3-1.3,14.1-8.9,12.8-17.1C29.2-8.9,25.2-13.3,20.1-15z"/>
					</g>
					<g>
						
							<ellipse transform="matrix(0.988 -0.1547 0.1547 0.988 1.2488 6.2085)" class="st24" cx="40.5" cy="-4.9" rx="15.3" ry="14.9"/>
						<path class="st22" d="M32.6-3.5c3.3-1.7,4.1-5.1,4.3-7.6c0.2-1.9-0.7-3.8-0.1-5.6c0.1-0.4,0.3-0.7,0.6-1
							c-6.2,1.5-10.3,7.3-9.3,13.6c0.1,0.6,0.2,1.1,0.4,1.7C29.9-2.5,31.4-2.8,32.6-3.5z"/>
						<path class="st25" d="M45.6-19c1.7,2,2.9,4.5,3.4,7.3C50.2-3.6,44.5,4,36.2,5.3c-2.6,0.4-5.1,0.2-7.4-0.6
							c3.3,3.8,8.6,5.9,14,5.1c8.3-1.3,14.1-8.9,12.8-17.1C54.7-12.9,50.7-17.3,45.6-19z"/>
					</g>
					<g>
						
							<ellipse transform="matrix(0.988 -0.1547 0.1547 0.988 2.1917 10.1811)" class="st24" cx="66.5" cy="-9" rx="15.3" ry="14.9"/>
						<path class="st22" d="M58.6-7.6c3.3-1.7,4.1-5.1,4.3-7.6c0.2-1.9-0.7-3.8-0.1-5.6c0.1-0.4,0.3-0.7,0.6-1
							c-6.2,1.5-10.3,7.3-9.3,13.6c0.1,0.6,0.2,1.1,0.4,1.7C55.9-6.6,57.3-6.9,58.6-7.6z"/>
						<path class="st25" d="M71.6-23.1c1.7,2,2.9,4.5,3.4,7.3C76.2-7.7,70.5,0,62.2,1.3c-2.6,0.4-5.1,0.2-7.4-0.6
							c3.3,3.8,8.6,5.9,14,5.1c8.3-1.3,14.1-8.9,12.8-17.1C80.7-17,76.7-21.3,71.6-23.1z"/>
					</g>
					<g>
						
							<ellipse transform="matrix(0.988 -0.1547 0.1547 0.988 -2.3393 5.0093)" class="st24" cx="31" cy="17.5" rx="15.3" ry="14.9"/>
						<path class="st22" d="M23.1,19c3.3-1.7,4.1-5.1,4.3-7.6c0.2-1.9-0.7-3.8-0.1-5.6c0.1-0.4,0.3-0.7,0.6-1
							c-6.2,1.5-10.3,7.3-9.3,13.6c0.1,0.6,0.2,1.1,0.4,1.7C20.4,19.9,21.9,19.6,23.1,19z"/>
						<path class="st25" d="M36.1,3.4c1.7,2,2.9,4.5,3.4,7.3c1.3,8.1-4.5,15.8-12.8,17.1c-2.6,0.4-5.1,0.2-7.4-0.6
							c3.3,3.8,8.6,5.9,14,5.1c8.3-1.3,14.1-8.9,12.8-17.1C45.2,9.6,41.2,5.2,36.1,3.4z"/>
					</g>
					<g>
						
							<ellipse transform="matrix(0.988 -0.1547 0.1547 0.988 -1.4128 8.9131)" class="st24" cx="56.6" cy="13.5" rx="15.3" ry="14.9"/>
						<path class="st22" d="M48.7,15c3.3-1.7,4.1-5.1,4.3-7.6c0.2-1.9-0.7-3.8-0.1-5.6c0.1-0.4,0.3-0.7,0.6-1
							c-6.2,1.5-10.3,7.3-9.3,13.6c0.1,0.6,0.2,1.1,0.4,1.7C46,15.9,47.4,15.6,48.7,15z"/>
						<path class="st25" d="M61.6-0.6c1.7,2,2.9,4.5,3.4,7.3c1.3,8.1-4.5,15.8-12.8,17.1c-2.6,0.4-5.1,0.2-7.4-0.6
							c3.3,3.8,8.6,5.9,14,5.1c8.3-1.3,14.1-8.9,12.8-17.1C70.8,5.6,66.8,1.2,61.6-0.6z"/>
					</g>
					<g>
						<ellipse transform="matrix(0.988 -0.1547 0.1547 0.988 -5.04 7.5511)" class="st24" cx="46" cy="36.2" rx="15.3" ry="14.9"/>
						<path class="st22" d="M38.1,37.6c3.3-1.7,4.1-5.1,4.3-7.6c0.2-1.9-0.7-3.8-0.1-5.6c0.1-0.4,0.3-0.7,0.6-1
							c-6.2,1.5-10.3,7.3-9.3,13.6c0.1,0.6,0.2,1.1,0.4,1.7C35.4,38.5,36.8,38.2,38.1,37.6z"/>
						<path class="st25" d="M51.1,22.1c1.7,2,2.9,4.5,3.4,7.3c1.3,8.1-4.5,15.8-12.8,17.1c-2.6,0.4-5.1,0.2-7.4-0.6
							c3.3,3.8,8.6,5.9,14,5.1c8.3-1.3,14.1-8.9,12.8-17.1C60.2,28.2,56.2,23.8,51.1,22.1z"/>
					</g>
				</g>
			</g>
			<g class="st1">
				<g class="st11">
					<g>
						<g>
							<path class="st26" d="M95.9,1.5c9.6,5.2,21.4,18.4,47.5,21.2c26.8,3,57.8-13,64.9-3.1c8.7,12-30.5,35.9-69.7,34.3
								C119.7,53.1,91.7,40,82.4,12.3c-2.6-7.8,2.1-10.5-4.3-20.3l5.1-3.3C83.3-11.4,81.4-6.3,95.9,1.5z"/>
						</g>
					</g>
					<g>
						<path class="st22" d="M161.4,26.3c-0.8,0.7-1.7,1.5-2,2.5c-0.6,1.8,1.6,2.5,3.1,2.7c2.6,0.3,5.4,0,8-0.2
							c3.3-0.3,6.3-1.2,9.3-2.3c2.7-0.9,5.4-2,7.8-3.5c2-1.3,4.3-3,4.3-5.4c0-0.1,0-0.2,0-0.3c-7.4,0.8-17.2,3.4-27.4,4.8
							C163.4,25,162.4,25.6,161.4,26.3z"/>
					</g>
					<g>
						<path class="st17" d="M207.2,29.4c0,0,4.5-4.8,1.1-9.8c-1.8-2.6-5.2-3-7-3.2c0,0,3,3.1,4.2,5.6
							C206.9,24.8,207.2,29.4,207.2,29.4z"/>
					</g>
					<g>
						<path class="st27" d="M208.3,19.6c8.7,12-30.5,35.9-69.7,34.3C119.7,53.1,91.7,40,82.4,12.3c-2.6-7.8,2.1-10.5-4.3-20.3
							c0,0,18.6,43.7,58.5,47.7C183.2,44.3,208.3,19.6,208.3,19.6z"/>
					</g>
				</g>
				<g class="st11">
					<g>
						<g>
							<path class="st26" d="M92.5-6.9c10.8,2.8,25.9,13.1,51.9,9c26.7-4.2,51.9-29,61.6-20.8c11.8,10-19,45.2-57.2,54.1
								c-18.4,4.3-49.2-1.5-66.1-27.6c-4.8-7.3-1-11.4-10-19.7l4-4.8C76.6-16.7,76.3-11.1,92.5-6.9z"/>
						</g>
					</g>
					<g>
						<path class="st22" d="M162.8,0.8c-0.6,0.9-1.2,2-1.2,3.1c0,2,2.3,2.2,3.8,2c2.6-0.4,5.2-1.5,7.6-2.4c3.1-1.1,5.7-3,8.3-4.9
							c2.3-1.7,4.6-3.5,6.4-5.7c1.5-1.9,3.2-4.2,2.6-6.8c0-0.1-0.1-0.2-0.1-0.4c-6.9,2.8-15.5,8.2-25,12.4
							C164.3-1.1,163.5-0.2,162.8,0.8z"/>
					</g>
					<g>
						<path class="st17" d="M207.8-8.4c0,0,2.9-6.1-1.8-10.3c-2.5-2.2-5.8-1.7-7.7-1.4c0,0,3.7,2.4,5.7,4.6
							C206.1-13.1,207.8-8.4,207.8-8.4z"/>
					</g>
					<g>
						<path class="st27" d="M206-18.7c11.8,10-19,45.2-57.2,54.1c-18.4,4.3-49.2-1.5-66.1-27.6c-4.8-7.3-1-11.4-10-19.7
							c0,0,30.6,39.9,70.2,33.2C189,13.4,206-18.7,206-18.7z"/>
					</g>
					<g>
						<path class="st17" d="M81.3,5.2c0,0,0.7-7.9,9.9-12.4c0,0-6-1.6-9.7-4.5c-1.8-1.4-3.9-6.5-6.1-6.5c-1.5,0-3.8,4.6-3.8,4.6
							C78-5.7,78.1,0.2,81.3,5.2z"/>
					</g>
				</g>
			</g>
			<path class="st28" d="M4,20.7C6,85.2,59.2,142.4,151.6,142.4c88.9,0,145.7-57.2,147.6-121.7c0,0-1.7,15.3-147.6,15.3
				C51.2,36,4,20.7,4,20.7z"/>
			<path class="st28" d="M65.8,74.2c5.4,5.2,13.9,7.9,21.1,10c3.7,1,7.4,1.5,11.2,2c3.9,0.5,7.8,0.9,11.6,1.1
				c9.1,0.3,18.3-0.7,26.5-4.8c6.4-3.2,11.6-8.1,15.2-14.3c3.2-5.5,5.2-11.4,7-17.5c-11.2,0.3-24.8,0.4-41.5,0.1
				c-30.8-0.5-53.5-3.2-68.6-5.8C48.8,49.4,48.2,57.1,65.8,74.2z"/>
			<path class="st29" d="M253.6,32.1c-3.9,8-8.1,15.9-12.2,23.7c-5.6,10.8-12.4,20.8-21.5,29c-9.1,8.3-19.8,15.3-31.1,20.2
				c-26.5,11.5-55.8,11.8-83.9,7.1c-11.9-2-23.3-5.2-33.9-11.3C61.5,95.3,53,88,45.9,79.6C32.8,63.8,24.2,44.6,19.9,24.6
				C9.2,22.4,4,20.7,4,20.7C6,85.2,59.2,142.4,151.6,142.4c88.9,0,145.7-57.2,147.6-121.7C299.3,20.7,298.5,27.6,253.6,32.1z"/>
		</g>
	</g>
</g>
</svg>
