<?xml version="1.0" encoding="utf-8"?>
<!-- Generator: Adobe Illustrator 19.0.0, SVG Export Plug-In . SVG Version: 6.00 Build 0)  -->
<svg version="1.1" xmlns="http://www.w3.org/2000/svg" xmlns:xlink="http://www.w3.org/1999/xlink" x="0px" y="0px"
	 viewBox="0 0 500 500" style="enable-background:new 0 0 500 500;" xml:space="preserve">
<style type="text/css">
	.st0{display:none;}
	.st1{display:inline;fill:#0095C2;}
	.st2{display:none;clip-path:url(#SVGID_2_);}
	.st3{display:inline;fill:#00A6D9;}
	.st4{display:none;opacity:0.1;clip-path:url(#SVGID_2_);fill:#1C1B19;}
	.st5{clip-path:url(#SVGID_2_);}
	.st6{fill:#1D252E;}
	.st7{fill:#CFCFCF;}
	.st8{fill:#E0A570;}
	.st9{fill:#FFBC80;}
	.st10{opacity:5.000000e-002;}
	.st11{fill:#F0B179;}
	.st12{opacity:0.1;}
	.st13{fill:#B8875B;}
	.st14{fill:#F0B178;}
	.st15{fill:#CF9867;}
	.st16{fill:#EDAE77;}
	.st17{fill:#D49C6A;}
	.st18{fill:#E6E6E6;}
	.st19{fill:#D9D9D9;}
	.st20{fill:#283340;}
	.st21{fill:#222B36;}
	.st22{fill:#803903;}
	.st23{fill:#B38104;}
	.st24{fill:#949494;}
	.st25{fill:#ADADAD;}
	.st26{fill:#DEDEDE;}
	.st27{opacity:0.3;}
	.st28{fill:#FFFFFF;}
	.st29{fill:#E8E8E8;}
	.st30{display:inline;}
</style>
<g id="BACKGROUND" class="st0">
	<rect y="0" class="st1" width="500" height="500"/>
</g>
<g id="OBJECTS">
	<g>
		<defs>
			<rect id="SVGID_1_" y="0" width="500" height="500"/>
		</defs>
		<clipPath id="SVGID_2_">
			<use xlink:href="#SVGID_1_"  style="overflow:visible;"/>
		</clipPath>
		<g class="st2">
			<polygon class="st3" points="163.8,-104.3 228.8,153.6 211.7,-104.3 			"/>
			<polygon class="st3" points="238.2,-161 232.2,105 284.3,-148.2 			"/>
			<polygon class="st3" points="-1.8,-13.8 183.4,177.1 39.7,-37.7 			"/>
			<polygon class="st3" points="34.3,-100 162.1,133.3 80.6,-112 			"/>
			<polygon class="st3" points="-99.9,147.5 155.9,220.2 -76,106 			"/>
			<polygon class="st3" points="-111.8,54.8 115.5,192.9 -77.7,21.1 			"/>
			<polygon class="st3" points="-104.3,336.2 153.6,271.2 -104.3,288.3 			"/>
			<polygon class="st3" points="-161,261.8 105,267.8 -148.2,215.7 			"/>
			<polygon class="st3" points="-13.8,501.8 177.1,316.6 -37.7,460.3 			"/>
			<polygon class="st3" points="-100,465.7 133.3,337.9 -112,419.4 			"/>
			<polygon class="st3" points="147.5,599.9 220.2,344.1 106,576 			"/>
			<polygon class="st3" points="54.8,611.8 192.9,384.5 21.1,577.7 			"/>
			<polygon class="st3" points="336.2,604.3 271.2,346.4 288.3,604.3 			"/>
			<polygon class="st3" points="261.8,661 267.8,395 215.7,648.2 			"/>
			<polygon class="st3" points="501.8,513.8 316.6,322.9 460.3,537.7 			"/>
			<polygon class="st3" points="465.7,600 337.9,366.7 419.4,612 			"/>
			<polygon class="st3" points="599.9,352.5 344.1,279.8 576,394 			"/>
			<polygon class="st3" points="611.8,445.2 384.5,307.1 577.7,478.9 			"/>
			<polygon class="st3" points="604.3,163.8 346.4,228.8 604.3,211.7 			"/>
			<polygon class="st3" points="661,238.2 395,232.2 648.2,284.3 			"/>
			<polygon class="st3" points="513.8,-1.8 322.9,183.4 537.7,39.7 			"/>
			<polygon class="st3" points="600,34.3 366.7,162.1 612,80.6 			"/>
			<polygon class="st3" points="352.5,-99.9 279.8,155.9 394,-76 			"/>
			<polygon class="st3" points="445.2,-111.8 307.1,115.5 478.9,-77.7 			"/>
		</g>
		<path class="st4" d="M546.1,40c-2.5-2.9-5-6-7.4-8.9c-5.4-6.6-10.9-13-17.7-18.2c-0.3-0.3-0.7-0.5-1-0.8l0,0
			c-6-4.5-12.4-8.7-19.7-10.6c-9.2-2.5-18.9-1.2-28.3,0.1c-12.5,1.7-25.2,3.5-36.5,9.3C427.1,15,424.5,21,418.3,28
			c-27.4,30.9-54.2,62.4-80.4,94.3c-0.8,0-1.6,0.1-2.4,0.2l-1,0.1l-0.7,0.8c-6.1,7.5-12.5,15.4-19.6,24.2v0
			c-0.9,1.2-0.6,2.7,0.4,3.5c-7.7,9.6-15.4,19.2-23,28.9c-19.8,6.6-39.1,16.2-57,26.9c-5.7,3.4-11.4,7.1-15.4,12.4
			c-3.3,4.4-5.2,9.5-6.7,14.9c-4.1,2.7-7.9,5.7-11.2,9.4c-7.5,8.5-11.5,19.5-17.7,29c-3.5,5.3-6.2,11.2-11.3,15
			c-2.7,1.9-5.3,3.9-8,5.8c-3-1.9-6.2-3.5-9.5-4.8c-8.7,5.7-17,12.1-24.8,19c-1.1-1.1-2.3-2.3-3.4-3.4
			C70.3,343.2,16.1,383.3-36.7,427c-2.3,1.9-5,4.8-4.8,7.8c1.1,23.6,3.5,47.2,9.4,70.1c1.1,4.3,2.4,8.6,3.8,12.8
			c2.8,10.6,6.6,21,11.7,30.8c3.3,6.5,7.3,12.8,12.7,17.6c0.4,0.3,0.8,0.7,1.2,1c0.3,0.4,0.6,0.8,1,1.2c3.1,3.9,6.7,7.8,11.3,9.7
			c1.5,0.6,3,1,4.6,1.2c2.6,0.4,5.3,0.4,7.9,0.3c23.2-0.8,45.2-9.2,59.8-27.3c3.7-4.6,6.9-9.7,9.8-14.9c1.8-3.1,3.5-6.3,5.2-9.4
			c9.1-16.5,19.5-32.6,30.9-48.1c1.9-2.6,3.8-5.1,5.8-7.7c3.9-5.1,7.9-10.1,12-15.1c5.1-6.2,10.3-12.3,15.6-18.3
			c1.1-1.2,2.1-2.4,3.2-3.6c3.2-3.6,6.5-7.1,9.7-10.6c2.2-2.3,4.4-4.6,6.6-6.9c3.3-3.4,6.6-6.8,10-10.1c0,0,0,0,0,0
			c-0.5-1.5-1-3-1.5-4.5c-0.1-0.4-0.3-0.8-0.4-1.3c-0.4-1.1-0.7-2.1-1.1-3.2c3-3.3,6-6.6,9-9.9c0,0,0,0,0,0l0,0
			c3.6-3.9,7.2-7.9,10.8-11.9c-0.4-2.5-0.9-5-1.3-7.6c0.3-0.1,0.6-0.1,0.9-0.2l0,0c0,0,0,0,0,0c0.6-0.1,1.1-0.3,1.7-0.4
			c0.6-0.2,1.1-0.3,1.7-0.6l0,0c0,0.5,0.1,1.1,0.1,1.6c1,5.6,7.2,8.6,13.1,8.1h0c0,0,0,0,0,0c0.4,0,0.7-0.1,1.1-0.1
			c0.1,0,0.1,0,0.2,0c0.3-0.1,0.6-0.1,1-0.2c0.2,0,0.3-0.1,0.5-0.1c0.2-0.1,0.5-0.1,0.7-0.2c0.4-0.1,0.8-0.3,1.2-0.4
			c2.1-0.9,3.9-2.2,5.6-3.7c1-0.9,1.9-1.9,2.8-2.9c2.4-2.8,4.4-6,6.2-9.1c1.6,0.7,3.3,1.4,5.1,1.9c0.2,0.1,0.4,0.1,0.7,0.2
			c0.1,0.1,0.2,0.1,0.4,0.2c1.2,0.5,2.5,0.7,3.8,0.7c1.4,0.2,2.8,0.4,4.1,0.5c0,0,0.1,0,0.1,0c0.5,0,1,0,1.5,0c3.9-0.1,7.8-1.6,11-4
			c0.8-0.6,1.5-1.2,2.2-1.9c0.7-0.7,1.3-1.5,1.9-2.2c0.9-1.2,1.6-2.5,2.2-3.9c4,3.8,11.1,5.9,16.4,4.4c5.2-1.5,8.5-6.3,11.3-10.9
			c-0.1-1.1,1.7-1.1,2.7-1c2.4,0.2,5,0.2,7.2-0.5c1.4-0.4,2.6-1.1,3.6-2.1c0,0,0,0,0,0c0.2-0.2,0.5-0.5,0.7-0.8
			c0.1-0.1,0.1-0.2,0.2-0.2c0.1-0.2,0.3-0.4,0.4-0.6c0.1-0.1,0.1-0.2,0.2-0.3c0.1-0.2,0.3-0.5,0.4-0.7c0-0.1,0.1-0.1,0.1-0.2
			c0.1-0.3,0.3-0.6,0.4-0.9c0,0,0,0,0,0h0c0.7-1.7,1.2-3.6,1.8-5.3c0.3-0.7,0.6-1.4,0.9-2.1c0-0.1,0.1-0.2,0.1-0.2
			c0.1-0.2,0.3-0.5,0.4-0.7c0.1-0.1,0.1-0.2,0.2-0.3c0.2-0.3,0.4-0.6,0.7-0.9c0.9-1,1.8-2,2.7-3c0.1-0.1,0.3-0.3,0.4-0.4
			c0.3-0.1,0.7-0.2,1-0.3c0.1,0,0.3-0.1,0.4-0.1v0c0,0,0,0,0,0c0.6-0.2,1.3-0.4,1.9-0.6c0.1,0,0.1,0,0.2-0.1
			c0.6-0.2,1.2-0.4,1.9-0.6c0.1,0,0.1,0,0.2-0.1c0.6-0.2,1.2-0.5,1.8-0.7c0,0,0.1,0,0.1-0.1c0.6-0.3,1.2-0.6,1.8-0.9
			c0.4-0.2,0.7-0.4,1.1-0.7c0.1-0.1,0.2-0.2,0.3-0.2c0.3-0.2,0.5-0.4,0.7-0.5c0.1-0.1,0.2-0.2,0.3-0.3c0.2-0.2,0.5-0.4,0.7-0.6
			c0.1-0.1,0.2-0.2,0.3-0.3c1.1-1.1,2-2.4,2.6-3.8c0.3-0.8,0.5-1.5,0.6-2.3c1.8-0.6,3.6-1.4,5.3-2.3c3.2-1.8,6.1-4.5,7.4-7.9
			c0.9-2.2,1-4.6,0.6-6.9c3.5-1.1,6.8-3.1,8.8-6.1c2.4-3.7,2.6-8.6,1.1-12.7c-1.3-3.4-5.2-10-9.4-9.6c0.1-0.3,0.2-0.7,0.3-1
			c0.1-0.3,0.2-0.7,0.3-1c0.3-1,0.6-2,0.9-3c0.1-0.3,0.2-0.6,0.3-0.9c0.3-1.1,0.6-2.2,0.9-3.3c0.1-0.2,0.1-0.4,0.2-0.5
			c0.4-1.4,0.8-2.8,1.1-4.2c4.4-3,8.5-6.4,12.4-10c3.7-3.5,7.5-8,6.8-13.1c-0.2-1.4-0.7-2.7-1.6-3.7c-0.8-0.9-1.9-1.4-3.1-1.8
			c-2.6-0.8-5.3-0.5-7.8,0.3c0-0.2,0.1-0.3,0.1-0.5c0.3-1.3,0.6-2.5,0.8-3.8c6.6-5.6,13.1-11.3,19.6-17c0.9,1,2.4,1.2,3.5,0.2l0,0
			c9.1-8.1,18.3-16.5,27.2-24.8l0,0c0.8-0.8,1-1.9,0.5-2.9c-0.1-0.2-0.2-0.5-0.4-0.7c18.2-17.2,36.1-35,53.5-53.1
			c14.8-15.4,29.2-31.1,43.2-47c3.5-4,7-8,10.4-11.9C532.6,56,539.4,48,546.1,40L546.1,40L546.1,40z M239.1,271.2
			c-0.1,1.8-0.1,3.7-0.2,5.5C239,274.9,239,273.1,239.1,271.2z M238.8,277.3c-0.1,1.8-0.3,3.6-0.4,5.4
			C238.6,280.9,238.7,279.1,238.8,277.3z M238.3,283.4c-0.2,1.8-0.4,3.5-0.6,5.3C237.9,287,238.1,285.2,238.3,283.4z M237.6,289.5
			c-0.2,1.8-0.5,3.5-0.8,5.3C237.1,293,237.4,291.3,237.6,289.5z M236.7,295.5c-0.3,1.8-0.6,3.5-1,5.3
			C236.1,299,236.4,297.3,236.7,295.5z M239.1,265.2L239.1,265.2c0,1.9,0,3.9-0.1,5.8C239.1,269,239.2,267.1,239.1,265.2z
			 M211.1,363.7C211.1,363.8,211,363.8,211.1,363.7C211,363.8,211.1,363.8,211.1,363.7z M231.3,318.7c-0.5,1.8-1.1,3.5-1.7,5.3
			C230.2,322.2,230.7,320.5,231.3,318.7z M229.4,324.6c-0.6,1.7-1.2,3.4-1.8,5C228.2,328,228.8,326.3,229.4,324.6z M227.3,330.4
			c-0.6,1.6-1.3,3.3-1.9,4.9C226,333.6,226.7,332,227.3,330.4z M234.4,307.2c-0.9,3.7-1.9,7.5-3,11.1
			C232.5,314.7,233.5,311,234.4,307.2z M235.6,301.4c-0.4,1.8-0.7,3.6-1.2,5.4C234.9,305,235.3,303.2,235.6,301.4z M210.4,366.6
			c0,0,0,0.1,0,0.1C210.3,366.7,210.4,366.7,210.4,366.6z M210.6,365.1c0,0.1,0,0.1,0,0.2C210.6,365.2,210.6,365.2,210.6,365.1z
			 M212.2,361.1c0,0,0-0.1,0.1-0.1C212.3,361,212.2,361.1,212.2,361.1z M212.9,359.7c0-0.1,0.1-0.1,0.1-0.2
			C213,359.6,213,359.7,212.9,359.7z M213.7,358.4c0-0.1,0.1-0.1,0.1-0.2C213.8,358.2,213.7,358.3,213.7,358.4z M217.3,352.1
			c-0.9,1.7-1.8,3.3-2.8,4.9C215.4,355.4,216.4,353.8,217.3,352.1z M225,336c-0.7,1.6-1.4,3.2-2.1,4.8
			C223.6,339.2,224.3,337.6,225,336z M222.6,341.6c-0.7,1.6-1.5,3.2-2.3,4.8C221.1,344.8,221.8,343.2,222.6,341.6z M220,346.9
			c-0.8,1.6-1.6,3.2-2.5,4.8C218.3,350.2,219.2,348.6,220,346.9z"/>
		<g class="st5">
			<polygon class="st6" points="325.4,80.8 316.1,90.5 325.4,103.4 363.7,120.9 392.3,149.8 431.8,165.3 435.9,116.7 430.5,100 
				391.1,77.3 			"/>
			<polygon class="st7" points="297.9,122.8 301.5,135.7 365,183.2 395.7,187.7 392.3,149.8 372.9,128.2 340.6,113.3 			"/>
			<path class="st8" d="M356.3,201.5c5-3.1,10.8-6.4,16.5-4.7c1.1,0.3,2.2,0.9,3.1,1.8c0.9,1,1.5,2.3,1.6,3.7
				c0.6,5.1-3.1,9.6-6.9,13.1c-4,3.8-8.3,7.2-12.8,10.3c-3,2-7,0-7.2-3.6c-0.2-4.4-0.1-9.6,0.5-12.5
				C351.7,206.7,353.7,203.1,356.3,201.5z"/>
			<path class="st9" d="M416.1-0.4c-43.7,49.4-85.9,100.1-126.6,151.9c-19.8,6.6-39.1,16.2-57,26.9c-5.7,3.4-11.4,7.1-15.4,12.4
				c-7.5,9.9-7.7,23.4-12,35.1c4.5-1.8,9.5,0.1,14.3,0.9c5.4,0.9,10.8,1.8,16.3,2.7c0-0.2,1.2,0.9,1.2,0.7
				c1.6,33.8-7.3,69.2-24.5,98.3c-2.3,3.9-4.9,8.2-4.1,12.7c1.3,7.2,11,10,17.7,7c6.7-3,10.9-9.6,14.6-15.8c4.3,2,9.5,3.3,14.2,3.5
				c7.9,0.4,15.8-4.7,18.8-12c4,3.8,11.1,5.9,16.4,4.4c5.2-1.5,8.5-6.4,11.3-10.9c-0.1-1.1,1.7-1.1,2.7-1c3.8,0.3,8.1,0,10.9-2.7
				c3.5-3.5,3.1-9.6,6.5-13.3c27-28.7,36.1-69.2,44.6-107.7c63.7-54.2,124.5-117,178-181.4c-8.1-9.4-15.3-19.6-25.1-27.2
				c-6.3-4.8-13-9.3-20.7-11.4c-9.2-2.5-18.9-1.2-28.3,0.1c-12.5,1.7-25.2,3.5-36.5,9.3C424.9-13.5,422.3-7.5,416.1-0.4z"/>
			<path class="st10" d="M543.8,11.5c-8.1-9.4-15.3-19.6-25.1-27.2c-0.3-0.3-0.7-0.5-1-0.8c-45.2,57.7-91.2,114.8-137.9,171.3
				c-4.6,5.6-11.2,11.8-18.1,9.7c1.8,3.1,3.5,6.3,5.3,9.4c-4.8,0.5-9.1,1-13.6-0.5c4.5,11.5,4.9,24.2,3.2,36.3
				c-1.7,12.2-5.4,24-9.2,35.7l-0.7,11.5c0.4,0.3,0.7,0.5,1.1,0.7c8.3-20.5,13.3-42.9,18.1-64.7C429.6,138.6,490.4,75.8,543.8,11.5z
				"/>
			<path class="st11" d="M336.7,262.1c-0.2-3.2-2.4-6.2-5.4-7.3c-3-1.1-6.6-0.1-8.8,2.2c2.8-1,5.8-0.7,8.6,0.4
				c1.2,0.5,2.3,1.1,3.3,1.8C335.4,259.9,336.7,260.9,336.7,262.1z"/>
			<path class="st12" d="M353.4,241.9c-1,0.1-1.9,0.2-2.7,0.5c-3.6,1.2-7.3,2.5-10.4,4.7c-3.1,2.2-5.7,5.5-6.1,9.3
				c-1.3,0.1-3.2,1.2-4.1,2.1c-3.9,4.1-6.6,9.4-7.6,15c-2.9,1.6-4.9,5.3-5.9,8.4c-1.8,5.4-2.7,11.3-1,16.8c0.7,2.2,1.9,4.3,3.4,6
				c0.6-1.5,1.3-3,2.4-4.2C336.9,284,346.5,263.6,353.4,241.9z"/>
			<path class="st13" d="M338.6,276.9c1.9,3,2.6,7,1.3,10.4c-1.1,2.8-3.4,5-6.1,6.5c-2.6,1.5-5.6,2.3-8.5,3.1
				c-0.9,0.2-1.8,0.5-2.6,0.3c-1.8-0.3-2.9-2.1-3.4-3.8c-1.4-4.4-0.6-9.4,1.6-13.5c1.6-2.9,5.1-8,8.5-9
				C332.7,269.8,336.9,274.4,338.6,276.9z"/>
			<path class="st14" d="M338.2,290.2c-0.4-0.5-0.8-0.9-1.2-1.3c-1.8-1.4-4.1-1.6-6.3-1.8c-1.5-0.1-3.2-0.4-4.7-0.4
				c-0.7,3.3-0.7,6.7-0.1,10c2.8-0.8,5.5-1.6,8-3C335.4,292.8,337,291.6,338.2,290.2z"/>
			<path class="st15" d="M351.6,262.1c2.4,3.7,3.2,8.6,1.6,12.7c-1.3,3.4-4.2,6.1-7.4,7.9c-3.2,1.8-6.8,2.8-10.4,3.9
				c-1.1,0.3-2.2,0.6-3.2,0.4c-2.2-0.4-3.5-2.6-4.2-4.7c-1.7-5.4-0.7-11.5,2-16.6c1.9-3.6,6.2-9.8,10.4-11.1
				C344.4,253.3,349.6,258.9,351.6,262.1z"/>
			<path class="st8" d="M363.7,249c1.5,4.1,1.3,9-1.1,12.7c-2,3.1-5.4,5.1-8.9,6.2c-3.5,1.1-7.3,1.3-10.9,1.6
				c-1.1,0.1-2.2,0.1-3.2-0.3c-2-0.8-2.9-3.3-3.1-5.5c-0.6-5.7,1.7-11.4,5.4-15.8c2.6-3.1,8.1-8.2,12.4-8.6
				C358.5,238.9,362.4,245.5,363.7,249z"/>
			<path class="st11" d="M317.1,310.1c-4,1.9-8.5,2.5-12.5,1.1c5.7-16.6,11.2-32.1,12-49.6c-4.7,16.8-10.6,33.3-17.7,49.2
				c-1.8,4-3.8,8.1-7.4,10.6c-3.6,2.4-9.3,2.3-11.6-1.4c-1.8-2.9-1-6.7,0-10c4.8-16.8,8.7-34,13.5-50.7c-7,22-14.1,44.3-26.1,64
				c-2.2,3.7-4.8,7.4-8.7,9.4c-3.9,1.9-9.4,1.3-11.5-2.5c3-6.2,7.6-12.1,9.5-18.7c5.4-18.9,9.8-38.1,13-57.5
				c0.8-4.6,1.5-9.3,0.3-13.8c-4.7,19.4-7.1,39.4-15.5,57.5c-8.7,18.7-19.9,36.2-33.3,51.8c1.6-0.1,3.2-0.5,4.6-1.1
				c6.7-3,10.9-9.6,14.6-15.8c4.3,2,9.5,3.3,14.2,3.5c7.9,0.4,15.8-4.7,18.8-12c4,3.8,11.1,5.9,16.4,4.4c5.2-1.5,8.5-6.3,11.3-10.9
				c-0.1-1.1,1.7-1.1,2.7-1c3.8,0.3,8.1,0,10.9-2.7C315.8,312.8,316.5,311.5,317.1,310.1z"/>
			<path class="st8" d="M269.2,188.7c-3-3.3-5.9-7.3-10.4-7c-9.3,6.7-20.2,10.7-30.8,15.1c-10.6,4.5-21.2,9.7-28.8,18.3
				c-7.5,8.5-11.5,19.5-17.7,29c-3.5,5.3-6.2,11.2-11.3,15C111.2,302.2,50.4,342.7-12,380.6l-8.8,8.1c-9.8,10.9-13.2,26.1-14.5,40.7
				c-2.8,31,2.1,62.9,16.4,90.6c3.3,6.5,7.3,12.8,12.7,17.6c5.5,4.8,12.7,8,20,7.3c10.2-1,26.9-8.7,34.3-15.8
				c13.3-12.8,21.5-29.8,31.2-45.5c10-16.3,21.9-31.3,33.7-46.3c11-13.9,21.9-27.9,32.9-41.8c7.7-9.8,15.5-19.7,23.5-29.2
				c7.2-8.6,15-17.2,23.7-24.4c5-0.2,10.3-0.5,15-2.3c0-3.9,2.2-7.6,4.2-11.1c16.1-27.3,24.9-60,24.7-91.8
				c1.3-0.4,14.3-11.9,17.9-18c7.9,6.1,19.1,6.5,28.6,3.3c3.9-1.3,7.6-3.2,10.6-6.1c2.9-2.8,5-7,5.2-11.1
				C287.7,202.9,277.1,197.1,269.2,188.7z"/>
			<path class="st11" d="M299.4,242.2c-0.3-5.2-3.9-10-8.8-11.7c-4.9-1.7-10.7-0.2-14.2,3.6c4.5-1.6,9.4-1.1,13.9,0.6
				c1.9,0.8,3.7,1.8,5.4,2.8C297.4,238.6,299.3,240.2,299.4,242.2z"/>
			<path class="st11" d="M315.4,253.9c-0.2-3.2-2.4-6.2-5.4-7.3c-3-1.1-6.6-0.1-8.8,2.2c2.8-1,5.8-0.7,8.6,0.4
				c1.2,0.5,2.3,1.1,3.3,1.8C314.2,251.6,315.4,252.6,315.4,253.9z"/>
			<path class="st16" d="M270.1,204.8c3.9,1.5,9,3,13.1,2.9c4.1,0,7.8-1.6,11.2-4c-6.7-1.8-13-4.9-18.6-9.1
				C273.7,197.9,271.8,201.3,270.1,204.8z"/>
			<path class="st11" d="M245.5,320c-3.3-0.5-6.3-2.6-8.4-5.1c-2.2-2.6-3.7-5.6-5.2-8.6c4,3.5,9.2,5.7,14.6,6c0.5,0,1.1,0,1.6-0.2
				c0.5-0.2,0.8-0.7,1.1-1.1c0.8-1.1,1.6-2.3,2.4-3.4c1.5-2.1,3-4.4,2.6-6.9c-0.2-1.4-1-2.6-1.8-3.7c-2.1-2.7-5-4.8-8.2-6.1
				c4.9-0.7,10.1,0.4,14.3,2.9c0.6,3.9-1.3,8.9-2.7,12.6c-1.2,3.1-2.4,6.3-4.3,9.1C249.7,318.3,248.9,320.5,245.5,320z"/>
			<path class="st11" d="M248.6,322.8c2.9,5.1,9.4,8.6,14.8,6.4c2.3-0.9,4.1-2.7,5.7-4.6c2.3-2.9,4-6.5,4-10.2
				c-0.1-3.7-2.2-7.5-5.7-8.8c2,0.4,4.1,0.7,6.1,1.1c0.7,0.1,1.5,0.2,2.2-0.1c0.5-0.3,0.8-0.7,1.1-1.2c2.7-4.6,0.9-11.3-3.7-13.9
				c3.8,1.4,8,1.5,11.9,0.3c-3.1,9.1-7.1,17.7-10.2,26.8c-1.1,3.3-2.3,6.6-4.4,9.3c-4.2,5.3-11.3,7.2-18,7.6
				c-1.9,0.1-3.8,0.1-5.6-0.7c-2.5-1.1-4-4-3.6-6.7C243.4,325.4,245.9,323.2,248.6,322.8z"/>
			<path class="st14" d="M355.1,262c-0.2-3.2-1.3-6.2-2.8-9c-2.6,1.5-6.1,0.6-8.4,2.3c-1.6,1.2-2.2,3.4-2.6,5.4
				c-0.4,1.7-0.7,3.4-0.6,5.1c0.1,1.3,0.5,2.6,1.3,3.6c0.3,0,0.5,0,0.8,0c3.7-0.3,7.4-0.5,10.9-1.6c0.2-0.1,0.5-0.2,0.7-0.3
				C355,265.8,355.2,263.9,355.1,262z"/>
			<path class="st14" d="M335.4,286.5c3.5-1,7.1-2.1,10.4-3.9c0.8-0.5,1.6-1,2.4-1.6c-0.3-1.6-0.9-3.1-1.7-4.5
				c-0.4-0.7-0.9-1.3-1.6-1.7c-0.8-0.4-1.7-0.4-2.6-0.4c-2.6,0.1-5.6,0.5-8.1,1.2c-1.5,3.6-1.8,7.5-1.1,11.3
				C333.9,286.9,334.6,286.7,335.4,286.5z"/>
			<path class="st17" d="M286.7,219.6c-3.7,1-7.5,2.1-11.4,2.3c-3.9,0.3-7.9-0.4-11.2-2.4c-5.7-3.5-8-10.6-9-17.2
				c0.3,3.9-1.1,8.2-2,12c-0.7-2.3-1.5-4.6-2.2-6.9c0,2.9,0,5.8,0,8.7c-3.7,6-9.8,12.3-16.7,13.7c-6,1.2-12.1-2-18.3-1.7
				c4,2.2,7.7,4.9,11.1,7.9c-3.6,0.3-7.3,0-10.8-0.8c6.8,3.6,9.9,11.5,11.3,19.1c2.4,13.6,0.9,27.9-4.5,40.7
				c-3.8,9-9.4,17.2-13.4,26.1c-2.8,6.1-4.9,12.8-5,19.5c1.1-0.3,2.3-0.6,3.4-1c0-3.9,2.2-7.6,4.2-11.1c16.1-27.3,24.9-60,24.7-91.8
				c1.3-0.4,14.3-11.9,17.9-18c7.9,6.1,19.1,6.5,28.6,3.3c2.9-1,5.8-2.3,8.3-4.2C290.1,218.6,288.4,219.1,286.7,219.6z"/>
			<path class="st17" d="M208.6,335.3c-3.3,0.7-6.8-0.9-9.6-2.9c-5.9-4.2-10.2-10.6-11.9-17.6c-1.8,13-5.1,26-12.8,36.6
				c-2.6,3.5-5.7,6.6-8.8,9.6c-23.7,22.3-52,40.2-70.9,66.7c-18.8,26.4-40.7,47.5-64.1,69.9c-13,12.5-27.8,24.9-44.9,29.3
				c2.4,3.6,5,7,8.3,9.9c5.5,4.8,12.7,8,20,7.3c10.2-1,26.9-8.7,34.3-15.8c13.3-12.8,21.5-29.8,31.2-45.5
				c10-16.3,21.9-31.3,33.7-46.3c11-13.9,21.9-27.9,32.9-41.8c7.7-9.8,15.5-19.7,23.5-29.2c7.2-8.6,15-17.2,23.7-24.4
				c5-0.2,10.3-0.5,15-2.3C208,337.7,208.2,336.5,208.6,335.3z"/>
			<path class="st18" d="M123.3,283.3c9-8.6,18.9-16.4,29.4-23.2c16.8,6.6,29.3,20.5,37.5,36.6c8.1,16.1,12,33.9,15,51.7
				c-9.8,10.9-19.6,21.5-29.4,32.4c-9.3-9.5-18.4-20.7-26.6-31.2c-5.3-6.8-10.5-13.8-14.2-21.6C127.6,312.8,124.7,300.2,123.3,283.3
				z"/>
			<path class="st19" d="M149.1,349.6c8.2,10.4,17.3,21.7,26.6,31.2c6.2-6.9,12.4-13.7,18.6-20.5c-7.4-14.7-15.5-29-25.3-42.2
				c-11.2-15.3-24.7-29.2-40.2-39.8c-1.9,1.7-3.7,3.3-5.5,5.1c1.5,16.8,4.3,29.5,11.7,44.7C138.6,335.8,143.8,342.8,149.1,349.6z"/>
			<path class="st20" d="M79.6,523.9c6-7.4,10.4-16,15-24.4c24.2-44.1,58.2-84.8,93.8-120.3c-12.5-39-34.6-74.9-63.9-103.4
				C68,314.7,13.9,354.8-38.9,398.5c-2.3,1.9-5,4.8-4.8,7.8c1.1,23.6,3.5,47.2,9.4,70.1c5.9,22.8,15.6,45,30.3,63.4
				c3.1,3.9,6.7,7.8,11.3,9.7c3.9,1.6,8.3,1.7,12.5,1.6C43,550.3,65,542,79.6,523.9z"/>
			<path class="st21" d="M188.4,379.2c-8.6-27-21.9-52.6-39.1-75.2c6.5,19.8,10.8,40.4,12.5,61.2c-8.7-7.6-18.3-16.5-26.6-24.6
				c7.7,11.2,11.5,24.5,15.2,37.6c-6.4-7.5-13-15-19.7-22.2c4,11.8,6.7,23.9,8.2,36.3c-52.3,44.2-96.2,96.9-146.5,143
				c1.1,1.6,2.3,3.1,3.5,4.6c3.1,3.9,6.7,7.8,11.3,9.7c3.9,1.6,8.3,1.7,12.5,1.6C43,550.3,65,542,79.6,523.9c6-7.4,10.4-16,15-24.4
				C118.7,455.4,152.7,414.7,188.4,379.2z"/>
			<g>
				<path class="st22" d="M404.2,160.8c-4-8.2-8.8-15.9-13.5-21.7c-5.8-7.2-11-12.6-16.3-16.8c-14.8-11.8-34.3-17.5-53.5-15.7
					l-1,0.1l-0.7,0.8c-6.1,7.5-12.5,15.4-19.6,24.2l0,0c-1.3,1.6-0.2,4.1,1.9,4.1l0,0c15.9,0.1,31.7,5.4,44.4,14.8
					c12.3,9.2,21.8,22.3,26.6,37l0,0c0.6,1.7,2.7,2.3,4,1.1l0,0c9.1-8.1,18.3-16.5,27.2-24.8v0C404.5,163,404.7,161.8,404.2,160.8
					L404.2,160.8z"/>
				<g>
					<g>
						<g>
							<path class="st23" d="M398.9,161.9c-0.2,0-0.4-0.1-0.4-0.3c-0.2-0.4-0.5-0.9-0.7-1.3c-0.1-0.2,0-0.5,0.2-0.7
								c0.2-0.1,0.5,0,0.7,0.2c0.2,0.4,0.5,0.9,0.7,1.3c0.1,0.2,0,0.5-0.2,0.7C399,161.9,399,161.9,398.9,161.9z"/>
						</g>
						<g>
							<path class="st23" d="M397.2,158.7c-0.2,0-0.3-0.1-0.4-0.3c-0.5-0.9-1-1.8-1.5-2.7c-0.1-0.2-0.1-0.5,0.2-0.7
								c0.2-0.1,0.5-0.1,0.7,0.2c0.5,0.9,1,1.8,1.5,2.7c0.1,0.2,0,0.5-0.2,0.7C397.4,158.7,397.3,158.7,397.2,158.7z M394.7,154.3
								c-0.2,0-0.3-0.1-0.4-0.2c-0.5-0.9-1.1-1.8-1.6-2.6c-0.1-0.2-0.1-0.5,0.2-0.7c0.2-0.1,0.5-0.1,0.7,0.2
								c0.5,0.9,1.1,1.7,1.6,2.6c0.1,0.2,0.1,0.5-0.2,0.7C394.9,154.3,394.8,154.3,394.7,154.3z M392,149.9c-0.2,0-0.3-0.1-0.4-0.2
								c-0.6-0.9-1.1-1.7-1.7-2.5c-0.2-0.2-0.1-0.5,0.1-0.7c0.2-0.2,0.5-0.1,0.7,0.1c0.6,0.8,1.2,1.7,1.7,2.6
								c0.2,0.2,0.1,0.5-0.1,0.7C392.2,149.9,392.1,149.9,392,149.9z M389.1,145.7c-0.2,0-0.3-0.1-0.4-0.2c-0.6-0.8-1.2-1.7-1.8-2.4
								c-0.2-0.2-0.1-0.5,0.1-0.7c0.2-0.2,0.5-0.1,0.7,0.1c0.6,0.8,1.2,1.6,1.9,2.5c0.2,0.2,0.1,0.5-0.1,0.7
								C389.3,145.7,389.2,145.7,389.1,145.7z M385.9,141.7c-0.1,0-0.3-0.1-0.4-0.2c-0.7-0.8-1.3-1.6-2-2.4
								c-0.2-0.2-0.2-0.5,0.1-0.7c0.2-0.2,0.5-0.2,0.7,0.1c0.7,0.8,1.3,1.6,2,2.4c0.2,0.2,0.1,0.5-0.1,0.7
								C386.2,141.6,386.1,141.7,385.9,141.7z M382.6,137.7c-0.1,0-0.3-0.1-0.4-0.2c-0.7-0.8-1.4-1.5-2-2.3c-0.2-0.2-0.2-0.5,0-0.7
								c0.2-0.2,0.5-0.2,0.7,0c0.7,0.7,1.4,1.5,2.1,2.3c0.2,0.2,0.2,0.5,0,0.7C382.9,137.7,382.7,137.7,382.6,137.7z M379.2,134
								c-0.1,0-0.3-0.1-0.4-0.2c-0.7-0.8-1.4-1.5-2.2-2.2c-0.2-0.2-0.2-0.5,0-0.7c0.2-0.2,0.5-0.2,0.7,0c0.7,0.7,1.4,1.4,2.2,2.2
								c0.2,0.2,0.2,0.5,0,0.7C379.4,133.9,379.3,134,379.2,134z M375.5,130.4c-0.1,0-0.2,0-0.3-0.1c-0.8-0.7-1.5-1.4-2.3-2
								c-0.2-0.2-0.2-0.5-0.1-0.7c0.2-0.2,0.5-0.2,0.7-0.1c0.8,0.7,1.5,1.3,2.3,2.1c0.2,0.2,0.2,0.5,0,0.7
								C375.8,130.3,375.7,130.4,375.5,130.4z M371.7,127c-0.1,0-0.2,0-0.3-0.1l-0.4-0.3c-0.7-0.5-1.3-1-2-1.6
								c-0.2-0.2-0.3-0.5-0.1-0.7c0.2-0.2,0.5-0.3,0.7-0.1c0.7,0.5,1.4,1,2.1,1.6l0.4,0.3c0.2,0.2,0.2,0.5,0.1,0.7
								C371.9,126.9,371.8,127,371.7,127z M367.6,123.9c-0.1,0-0.2,0-0.3-0.1c-0.8-0.6-1.7-1.1-2.6-1.7c-0.2-0.1-0.3-0.5-0.2-0.7
								c0.1-0.2,0.5-0.3,0.7-0.2c0.9,0.5,1.7,1.1,2.6,1.7c0.2,0.2,0.3,0.5,0.1,0.7C367.9,123.8,367.7,123.9,367.6,123.9z
								 M363.2,121.2c-0.1,0-0.2,0-0.3-0.1c-0.9-0.5-1.8-1-2.7-1.5c-0.2-0.1-0.3-0.4-0.2-0.7c0.1-0.2,0.4-0.3,0.7-0.2
								c0.9,0.5,1.8,1,2.7,1.5c0.2,0.1,0.3,0.4,0.2,0.7C363.6,121.1,363.4,121.2,363.2,121.2z M358.7,118.8c-0.1,0-0.1,0-0.2-0.1
								c-0.9-0.4-1.8-0.9-2.8-1.3c-0.3-0.1-0.4-0.4-0.3-0.7c0.1-0.3,0.4-0.4,0.7-0.3c0.9,0.4,1.9,0.8,2.8,1.3
								c0.2,0.1,0.4,0.4,0.2,0.7C359.1,118.7,358.9,118.8,358.7,118.8z M354,116.7c-0.1,0-0.1,0-0.2,0c-0.9-0.4-1.9-0.7-2.9-1.1
								c-0.3-0.1-0.4-0.4-0.3-0.6c0.1-0.3,0.4-0.4,0.6-0.3c1,0.3,2,0.7,2.9,1.1c0.3,0.1,0.4,0.4,0.3,0.6
								C354.4,116.6,354.2,116.7,354,116.7z M349.2,115c0,0-0.1,0-0.1,0c-1-0.3-1.9-0.6-2.9-0.9c-0.3-0.1-0.4-0.3-0.4-0.6
								c0.1-0.3,0.3-0.4,0.6-0.4c1,0.3,2,0.6,3,0.9c0.3,0.1,0.4,0.4,0.3,0.6C349.6,114.9,349.4,115,349.2,115z M344.2,113.6
								c0,0-0.1,0-0.1,0c-1-0.2-2-0.4-3-0.6c-0.3-0.1-0.4-0.3-0.4-0.6c0.1-0.3,0.3-0.4,0.6-0.4c1,0.2,2,0.4,3,0.6
								c0.3,0.1,0.4,0.3,0.4,0.6C344.7,113.5,344.5,113.6,344.2,113.6z M339.2,112.6C339.2,112.6,339.2,112.6,339.2,112.6
								c-1.1-0.2-2.1-0.3-3.1-0.4c-0.3,0-0.5-0.3-0.4-0.6c0-0.3,0.3-0.5,0.6-0.4c1,0.1,2.1,0.3,3.1,0.4c0.3,0,0.5,0.3,0.4,0.6
								C339.7,112.5,339.5,112.6,339.2,112.6z M334.1,112C334.1,112,334.1,112,334.1,112c-1.1-0.1-2.1-0.2-3.1-0.2
								c-0.3,0-0.5-0.2-0.5-0.5c0-0.3,0.2-0.5,0.5-0.5c1,0,2.1,0.1,3.1,0.2c0.3,0,0.5,0.3,0.5,0.5C334.6,111.8,334.4,112,334.1,112z
								 M325.9,111.8c-0.3,0-0.5-0.2-0.5-0.5c0-0.3,0.2-0.5,0.5-0.5c1,0,2.1,0,3.1,0c0.3,0,0.5,0.2,0.5,0.5c0,0.3-0.2,0.5-0.5,0.5
								c0,0,0,0,0,0C328,111.7,327,111.7,325.9,111.8C325.9,111.8,325.9,111.8,325.9,111.8z"/>
						</g>
						<g>
							<path class="st23" d="M322.4,112c-0.3,0-0.5-0.2-0.5-0.5c0-0.3,0.2-0.5,0.5-0.5c0.5,0,1-0.1,1.5-0.1c0.3,0,0.5,0.2,0.5,0.5
								c0,0.3-0.2,0.5-0.5,0.5C323.4,111.9,322.9,111.9,322.4,112C322.4,112,322.4,112,322.4,112z"/>
						</g>
					</g>
					<g>
						<g>
							<path class="st23" d="M308.1,131.5C308.1,131.5,308.1,131.5,308.1,131.5c-0.5,0-1-0.1-1.5-0.1c-0.3,0-0.5-0.3-0.5-0.5
								c0-0.3,0.3-0.5,0.5-0.5c0.5,0,1,0.1,1.5,0.1c0.3,0,0.5,0.3,0.5,0.5C308.6,131.3,308.3,131.5,308.1,131.5z"/>
						</g>
						<g>
							<path class="st23" d="M374.6,179.6c-0.2,0-0.4-0.1-0.5-0.3c-0.4-0.9-0.8-1.8-1.3-2.7c-0.1-0.2,0-0.5,0.2-0.7
								c0.2-0.1,0.5,0,0.7,0.2c0.4,0.9,0.9,1.8,1.3,2.8c0.1,0.3,0,0.5-0.3,0.7C374.7,179.6,374.7,179.6,374.6,179.6z M372.4,175
								c-0.2,0-0.4-0.1-0.4-0.3c-0.5-0.9-0.9-1.8-1.4-2.7c-0.1-0.2,0-0.5,0.2-0.7c0.2-0.1,0.5,0,0.7,0.2c0.5,0.9,1,1.8,1.4,2.7
								c0.1,0.2,0,0.5-0.2,0.7C372.6,175,372.5,175,372.4,175z M370,170.6c-0.2,0-0.3-0.1-0.4-0.2c-0.5-0.9-1-1.7-1.6-2.6
								c-0.2-0.2-0.1-0.5,0.1-0.7c0.2-0.1,0.5-0.1,0.7,0.1c0.6,0.9,1.1,1.7,1.6,2.6c0.1,0.2,0.1,0.5-0.2,0.7
								C370.2,170.6,370.1,170.6,370,170.6z M367.3,166.3c-0.2,0-0.3-0.1-0.4-0.2c-0.6-0.8-1.1-1.7-1.7-2.5
								c-0.2-0.2-0.1-0.5,0.1-0.7c0.2-0.2,0.5-0.1,0.7,0.1c0.6,0.8,1.2,1.7,1.8,2.5c0.2,0.2,0.1,0.5-0.1,0.7
								C367.5,166.3,367.4,166.3,367.3,166.3z M364.3,162.2c-0.1,0-0.3-0.1-0.4-0.2c-0.6-0.8-1.2-1.6-1.9-2.4
								c-0.2-0.2-0.1-0.5,0.1-0.7c0.2-0.2,0.5-0.1,0.7,0.1c0.7,0.8,1.3,1.6,1.9,2.4c0.2,0.2,0.1,0.5-0.1,0.7
								C364.5,162.2,364.4,162.2,364.3,162.2z M361.1,158.3c-0.1,0-0.3-0.1-0.4-0.2c-0.7-0.8-1.3-1.5-2-2.2c-0.2-0.2-0.2-0.5,0-0.7
								c0.2-0.2,0.5-0.2,0.7,0c0.7,0.7,1.4,1.5,2.1,2.3c0.2,0.2,0.2,0.5,0,0.7C361.3,158.3,361.2,158.3,361.1,158.3z M357.6,154.6
								c-0.1,0-0.3,0-0.4-0.1c-0.7-0.7-1.4-1.4-2.2-2.1c-0.2-0.2-0.2-0.5,0-0.7c0.2-0.2,0.5-0.2,0.7,0c0.7,0.7,1.5,1.4,2.2,2.1
								c0.2,0.2,0.2,0.5,0,0.7C357.9,154.6,357.7,154.6,357.6,154.6z M353.9,151.1c-0.1,0-0.2,0-0.3-0.1c-0.8-0.7-1.5-1.3-2.3-2
								c-0.2-0.2-0.2-0.5-0.1-0.7c0.2-0.2,0.5-0.2,0.7-0.1c0.8,0.6,1.6,1.3,2.3,2c0.2,0.2,0.2,0.5,0,0.7
								C354.2,151.1,354.1,151.1,353.9,151.1z M350,147.9c-0.1,0-0.2,0-0.3-0.1c-0.4-0.3-0.8-0.6-1.2-0.9c-0.4-0.3-0.8-0.6-1.3-0.9
								c-0.2-0.2-0.3-0.5-0.1-0.7c0.2-0.2,0.5-0.3,0.7-0.1c0.4,0.3,0.9,0.6,1.3,0.9c0.4,0.3,0.8,0.6,1.2,0.9
								c0.2,0.2,0.3,0.5,0.1,0.7C350.3,147.8,350.2,147.9,350,147.9z M345.9,144.9c-0.1,0-0.2,0-0.3-0.1c-0.8-0.6-1.7-1.1-2.5-1.6
								c-0.2-0.1-0.3-0.5-0.2-0.7c0.1-0.2,0.5-0.3,0.7-0.2c0.9,0.5,1.7,1.1,2.6,1.7c0.2,0.2,0.3,0.5,0.1,0.7
								C346.2,144.9,346.1,144.9,345.9,144.9z M341.6,142.2c-0.1,0-0.2,0-0.3-0.1c-0.9-0.5-1.7-1-2.6-1.5c-0.2-0.1-0.3-0.4-0.2-0.7
								c0.1-0.2,0.4-0.3,0.7-0.2c0.9,0.5,1.8,1,2.7,1.5c0.2,0.1,0.3,0.4,0.2,0.7C341.9,142.2,341.8,142.2,341.6,142.2z M337.2,139.8
								c-0.1,0-0.2,0-0.2-0.1c-0.9-0.5-1.8-0.9-2.7-1.3c-0.3-0.1-0.4-0.4-0.2-0.7c0.1-0.3,0.4-0.4,0.7-0.2c0.9,0.4,1.8,0.9,2.8,1.3
								c0.2,0.1,0.3,0.4,0.2,0.7C337.5,139.7,337.3,139.8,337.2,139.8z M332.6,137.7c-0.1,0-0.1,0-0.2,0c-0.9-0.4-1.9-0.8-2.8-1.1
								c-0.3-0.1-0.4-0.4-0.3-0.6c0.1-0.3,0.4-0.4,0.6-0.3c1,0.4,1.9,0.7,2.8,1.1c0.3,0.1,0.4,0.4,0.3,0.7
								C332.9,137.6,332.8,137.7,332.6,137.7z M327.8,135.9c-0.1,0-0.1,0-0.2,0c-0.9-0.3-1.9-0.7-2.9-1c-0.3-0.1-0.4-0.4-0.3-0.6
								c0.1-0.3,0.4-0.4,0.6-0.3c1,0.3,1.9,0.6,2.9,1c0.3,0.1,0.4,0.4,0.3,0.6C328.2,135.7,328,135.9,327.8,135.9z M323,134.3
								c0,0-0.1,0-0.1,0c-1-0.3-1.9-0.5-2.9-0.8c-0.3-0.1-0.4-0.3-0.4-0.6c0.1-0.3,0.3-0.4,0.6-0.4c1,0.2,2,0.5,3,0.8
								c0.3,0.1,0.4,0.4,0.3,0.6C323.4,134.2,323.2,134.3,323,134.3z M318.1,133.1c0,0-0.1,0-0.1,0c-1-0.2-2-0.4-3-0.6
								c-0.3,0-0.5-0.3-0.4-0.6c0-0.3,0.3-0.5,0.6-0.4c1,0.2,2,0.4,3,0.6c0.3,0.1,0.4,0.3,0.4,0.6
								C318.5,132.9,318.3,133.1,318.1,133.1z M313.1,132.1C313.1,132.1,313.1,132.1,313.1,132.1c-1.1-0.2-2.1-0.3-3.1-0.4
								c-0.3,0-0.5-0.3-0.4-0.6c0-0.3,0.3-0.5,0.6-0.4c1,0.1,2,0.3,3,0.4c0.3,0,0.5,0.3,0.4,0.6C313.6,132,313.4,132.1,313.1,132.1z
								"/>
						</g>
						<g>
							<path class="st23" d="M375.9,182.9c-0.2,0-0.4-0.1-0.5-0.3c-0.2-0.5-0.4-0.9-0.5-1.4c-0.1-0.3,0-0.5,0.3-0.7
								c0.3-0.1,0.5,0,0.7,0.3c0.2,0.5,0.4,0.9,0.6,1.4c0.1,0.3,0,0.5-0.3,0.6C376.1,182.9,376,182.9,375.9,182.9z"/>
						</g>
					</g>
				</g>
				<g>
					<g>
						<path class="st24" d="M330,157.7l5.8-5.8c0.9-0.9,2.3-0.9,3.1,0l1.9,1.9c0.9,0.9,0.9,2.3,0,3.1l-5.8,5.8
							c-0.9,0.9-2.3,0.9-3.1,0l-1.9-1.9C329.1,159.9,329.1,158.5,330,157.7z"/>
					</g>
					<g>
						<circle class="st25" cx="356.6" cy="135.5" r="32.1"/>
					</g>
					<g>
						<circle class="st24" cx="356.6" cy="135.5" r="30.4"/>
					</g>
					<g>
						<circle class="st26" cx="356.6" cy="135.5" r="27.4"/>
					</g>
					<g class="st12">
						<path d="M356.6,162.9c8.8,0,16.6-4.1,21.6-10.5c-4.6,3.6-10.5,5.8-16.9,5.8c-15.1,0-27.4-12.3-27.4-27.4
							c0-6.4,2.2-12.2,5.8-16.9c-6.4,5-10.5,12.8-10.5,21.6C329.2,150.6,341.5,162.9,356.6,162.9z"/>
					</g>
					<g class="st27">
						<g>
							<path class="st28" d="M356.6,108.1c-1,0-1.9,0.1-2.9,0.2v54.5c1,0.1,1.9,0.2,2.9,0.2c5,0,9.7-1.3,13.7-3.7v-47.4
								C366.3,109.5,361.6,108.1,356.6,108.1z"/>
						</g>
						<g>
							<path class="st28" d="M340.6,157.7c2.5,1.8,5.3,3.2,8.3,4.1v-52.6c-3,0.9-5.8,2.3-8.3,4.1V157.7z"/>
						</g>
					</g>
					<g>
						
							<rect x="371.7" y="148.4" transform="matrix(-0.7071 0.7072 -0.7072 -0.7071 742.2009 -5.2473)" class="st24" width="0.9" height="5.4"/>
					</g>
					<g>
						
							<rect x="341" y="117.8" transform="matrix(-0.7071 0.7071 -0.7071 -0.7071 668.1722 -35.8869)" class="st24" width="0.9" height="5.4"/>
					</g>
					<g>
						
							<rect x="338.8" y="150.6" transform="matrix(-0.7071 0.7071 -0.7071 -0.7071 689.8598 16.4713)" class="st24" width="5.4" height="0.9"/>
					</g>
					<g>
						
							<rect x="369.5" y="120" transform="matrix(-0.7071 0.7071 -0.7071 -0.7071 720.5247 -57.5787)" class="st24" width="5.4" height="0.9"/>
					</g>
					<g>
						<polygon class="st24" points="356.1,135.1 372.1,134.5 372.1,135.5 357.1,136 359.2,160.8 358.2,160.9 						"/>
					</g>
				</g>
			</g>
			<path class="st28" d="M297.9,122.8c9.1,0.8,18.2,1.6,27.1,3.7c15.7,3.8,30.2,11.8,42.3,22.5c12,10.7,21.6,24.1,28.5,38.7
				c11.8-12.2,23-23.6,34.8-35.8c-7.3-13.4-15-26.9-26.8-36.5c-3.5-2.8-7.2-5.2-11.1-7.5c-20.5-12.3-43.4-22-67.3-22.7
				C319,99.9,308.4,110.8,297.9,122.8z"/>
			<path class="st29" d="M418.4,164.3c4-4.1,8-8.2,12.1-12.4c-7.3-13.4-15-26.9-26.8-36.5c-3.5-2.8-7.2-5.2-11.1-7.5
				c-20.5-12.3-43.4-22-67.3-22.7c-1.6,3.6-3.4,7-5.4,10.3C339.1,96.3,381,105.5,418.4,164.3z"/>
			<path class="st28" d="M392,180.4c0,0,3.5,6.3-2.8,6.3l6.5,0.9L392,180.4z"/>
			<path class="st20" d="M316.1,90.5c7.8,2.6,16,3.6,24.1,5.3c38.7,8.2,73.2,34.4,91.6,69.4c30-35.2,62.1-67.9,94.9-100.5
				c9.7-9.6,19.4-19.2,29.1-28.8C541.4,12.1,519.1-5.8,493.6-17c-25.5-11.1-53.3-16-81-17.8c-22.8,30.7-47.8,60.3-74.9,87.3
				c-4.9,4.9-9.9,9.8-13.7,15.6C319.9,74.5,318.3,83.2,316.1,90.5z"/>
			<path class="st21" d="M526.7,64.8c9.7-9.6,19.4-19.2,29.1-28.8c-5-8.4-11.1-16-17.9-22.9c-1.2,1.4-2.4,2.7-3.6,4.1
				c-19.5,22-37.4,45.5-64.6,56.6c-14.6-5.9-29.2-11.9-43.8-17.8c10.8,8.9,19,20.8,23.5,34.1c-16.8-7.2-34.3-12.6-52.3-16
				c7.7,2.7,13.9,8.8,18.3,15.7c4.3,6.9,7,14.8,9.4,22.6c-27.6-8.8-56.3-13.5-84.9-18.2c-3.4-0.6-6.9-1.1-10.3-0.9
				c0.3,0.2,0.5,0.4,0.8,0.7c3.3,0.6,6.5,1.2,9.8,1.9c38.7,8.2,73.2,34.4,91.6,69.4C461.8,130,493.8,97.4,526.7,64.8z"/>
		</g>
	</g>
</g>
<g id="DESIGNED_BY_FREEPIK" class="st0">
	<g class="st30">
		<g>
			<path class="st28" d="M178.8,483.9v-0.2c-0.2,0.2-0.4,0.5-0.6,0.6c-0.2,0.2-0.4,0.3-0.7,0.4c-0.2,0.1-0.5,0.1-0.8,0.1
				c-0.4,0-0.7-0.1-1.1-0.2c-0.3-0.2-0.6-0.4-0.9-0.7c-0.2-0.3-0.4-0.7-0.5-1.1c-0.1-0.4-0.2-0.9-0.2-1.3c0-1,0.2-1.8,0.7-2.4
				c0.5-0.6,1.1-0.8,2-0.8c0.5,0,0.9,0.1,1.2,0.2c0.3,0.2,0.6,0.4,0.9,0.7v-2.4c0-0.3,0.1-0.6,0.2-0.8c0.1-0.2,0.3-0.3,0.6-0.3
				c0.2,0,0.4,0.1,0.6,0.2c0.1,0.2,0.2,0.4,0.2,0.7v7.1c0,0.3-0.1,0.5-0.2,0.7c-0.1,0.2-0.3,0.2-0.6,0.2c-0.2,0-0.4-0.1-0.5-0.2
				C178.8,484.5,178.8,484.2,178.8,483.9z M175.6,481.5c0,0.4,0.1,0.8,0.2,1.1c0.1,0.3,0.3,0.5,0.6,0.7c0.2,0.2,0.5,0.2,0.8,0.2
				c0.3,0,0.5-0.1,0.8-0.2c0.2-0.1,0.4-0.4,0.6-0.7c0.1-0.3,0.2-0.7,0.2-1.1c0-0.4-0.1-0.8-0.2-1.1c-0.1-0.3-0.3-0.5-0.6-0.7
				c-0.2-0.2-0.5-0.2-0.8-0.2c-0.3,0-0.6,0.1-0.8,0.3c-0.2,0.2-0.4,0.4-0.5,0.7C175.6,480.8,175.6,481.1,175.6,481.5z"/>
			<path class="st28" d="M185.9,482h-3.2c0,0.4,0.1,0.7,0.2,1c0.1,0.3,0.3,0.5,0.6,0.6c0.2,0.1,0.5,0.2,0.8,0.2c0.2,0,0.4,0,0.5-0.1
				c0.2,0,0.3-0.1,0.5-0.2c0.2-0.1,0.3-0.2,0.4-0.3c0.1-0.1,0.3-0.3,0.5-0.5c0.1-0.1,0.2-0.1,0.4-0.1c0.2,0,0.3,0,0.4,0.1
				c0.1,0.1,0.2,0.2,0.2,0.4c0,0.1-0.1,0.3-0.2,0.5c-0.1,0.2-0.3,0.4-0.5,0.6c-0.2,0.2-0.5,0.3-0.9,0.4c-0.3,0.1-0.8,0.2-1.2,0.2
				c-1,0-1.8-0.3-2.4-0.9c-0.6-0.6-0.9-1.4-0.9-2.4c0-0.5,0.1-0.9,0.2-1.3c0.1-0.4,0.4-0.8,0.6-1.1c0.3-0.3,0.6-0.5,1-0.7
				c0.4-0.2,0.8-0.2,1.3-0.2c0.6,0,1.2,0.1,1.6,0.4c0.5,0.3,0.8,0.6,1,1c0.2,0.4,0.3,0.9,0.3,1.3c0,0.4-0.1,0.7-0.4,0.8
				C186.7,481.9,186.3,482,185.9,482z M182.7,481h2.9c0-0.6-0.2-1-0.4-1.2c-0.3-0.3-0.6-0.4-1-0.4c-0.4,0-0.7,0.1-1,0.4
				C183,480.1,182.8,480.5,182.7,481z"/>
			<path class="st28" d="M193.3,482.7c0,0.4-0.1,0.8-0.3,1.1c-0.2,0.3-0.5,0.6-1,0.7c-0.4,0.2-0.9,0.2-1.6,0.2
				c-0.6,0-1.1-0.1-1.5-0.3c-0.4-0.2-0.7-0.4-0.9-0.7c-0.2-0.3-0.3-0.5-0.3-0.8c0-0.2,0.1-0.3,0.2-0.5c0.1-0.1,0.3-0.2,0.5-0.2
				c0.2,0,0.3,0,0.4,0.1c0.1,0.1,0.2,0.2,0.3,0.3c0.2,0.3,0.4,0.5,0.6,0.6c0.2,0.1,0.5,0.2,0.9,0.2c0.3,0,0.6-0.1,0.8-0.2
				c0.2-0.1,0.3-0.3,0.3-0.5c0-0.3-0.1-0.5-0.3-0.6c-0.2-0.1-0.6-0.3-1.1-0.4c-0.6-0.1-1-0.3-1.4-0.4c-0.4-0.2-0.6-0.4-0.8-0.6
				c-0.2-0.2-0.3-0.6-0.3-0.9c0-0.3,0.1-0.6,0.3-0.9c0.2-0.3,0.5-0.5,0.9-0.7c0.4-0.2,0.8-0.3,1.4-0.3c0.4,0,0.8,0,1.1,0.1
				c0.3,0.1,0.6,0.2,0.8,0.4c0.2,0.1,0.4,0.3,0.5,0.5c0.1,0.2,0.2,0.4,0.2,0.5c0,0.2-0.1,0.3-0.2,0.5c-0.1,0.1-0.3,0.2-0.5,0.2
				c-0.2,0-0.3,0-0.4-0.1c-0.1-0.1-0.3-0.2-0.4-0.4c-0.1-0.2-0.3-0.3-0.4-0.4c-0.2-0.1-0.4-0.1-0.7-0.1c-0.3,0-0.5,0.1-0.7,0.2
				c-0.2,0.1-0.3,0.3-0.3,0.5c0,0.2,0.1,0.3,0.2,0.4c0.1,0.1,0.3,0.2,0.6,0.3c0.2,0.1,0.6,0.2,1,0.3c0.5,0.1,0.9,0.3,1.2,0.4
				c0.3,0.2,0.6,0.4,0.7,0.6C193.2,482.2,193.3,482.4,193.3,482.7z"/>
			<path class="st28" d="M195,477.5c-0.2,0-0.4-0.1-0.6-0.2c-0.2-0.1-0.2-0.3-0.2-0.6c0-0.2,0.1-0.4,0.2-0.6s0.4-0.2,0.6-0.2
				c0.2,0,0.4,0.1,0.6,0.2c0.2,0.1,0.2,0.3,0.2,0.6c0,0.2-0.1,0.4-0.2,0.6C195.4,477.4,195.2,477.5,195,477.5z M195.8,479.2v4.7
				c0,0.3-0.1,0.6-0.2,0.7c-0.2,0.2-0.3,0.2-0.6,0.2c-0.2,0-0.4-0.1-0.6-0.3c-0.1-0.2-0.2-0.4-0.2-0.7v-4.6c0-0.3,0.1-0.6,0.2-0.7
				c0.1-0.2,0.3-0.2,0.6-0.2c0.2,0,0.4,0.1,0.6,0.2C195.7,478.7,195.8,478.9,195.8,479.2z"/>
			<path class="st28" d="M202.9,479.5v4.7c0,0.5-0.1,1-0.2,1.4c-0.1,0.4-0.3,0.7-0.6,1c-0.3,0.3-0.6,0.4-1,0.6
				c-0.4,0.1-0.9,0.2-1.5,0.2c-0.6,0-1.1-0.1-1.5-0.2c-0.4-0.2-0.8-0.4-1-0.6c-0.2-0.2-0.4-0.5-0.4-0.8c0-0.2,0.1-0.4,0.2-0.5
				c0.1-0.1,0.3-0.2,0.5-0.2c0.2,0,0.4,0.1,0.6,0.3c0.1,0.1,0.2,0.2,0.3,0.3c0.1,0.1,0.2,0.2,0.3,0.3c0.1,0.1,0.2,0.1,0.4,0.2
				c0.2,0,0.3,0.1,0.5,0.1c0.4,0,0.7-0.1,1-0.2c0.2-0.1,0.4-0.3,0.5-0.5c0.1-0.2,0.1-0.4,0.2-0.7c0-0.2,0-0.6,0-1.2
				c-0.2,0.3-0.5,0.6-0.9,0.8c-0.3,0.2-0.7,0.3-1.2,0.3c-0.5,0-1-0.1-1.4-0.4c-0.4-0.3-0.7-0.7-0.9-1.2c-0.2-0.5-0.3-1.1-0.3-1.7
				c0-0.5,0.1-0.9,0.2-1.3c0.1-0.4,0.3-0.7,0.6-1c0.2-0.3,0.5-0.5,0.8-0.6c0.3-0.1,0.7-0.2,1.1-0.2c0.5,0,0.9,0.1,1.2,0.3
				c0.3,0.2,0.6,0.5,0.9,0.8v-0.2c0-0.3,0.1-0.5,0.2-0.7c0.1-0.2,0.3-0.2,0.5-0.2c0.3,0,0.5,0.1,0.6,0.3
				C202.8,478.8,202.9,479.1,202.9,479.5z M198.2,481.5c0,0.7,0.1,1.2,0.4,1.5c0.3,0.3,0.7,0.5,1.1,0.5c0.3,0,0.5-0.1,0.8-0.2
				c0.2-0.1,0.4-0.4,0.6-0.7c0.1-0.3,0.2-0.6,0.2-1.1c0-0.7-0.1-1.2-0.4-1.5c-0.3-0.4-0.7-0.6-1.1-0.6c-0.5,0-0.8,0.2-1.1,0.5
				C198.3,480.4,198.2,480.9,198.2,481.5z"/>
			<path class="st28" d="M205.4,479.2v0.2c0.3-0.4,0.6-0.7,0.9-0.8c0.3-0.2,0.7-0.3,1.2-0.3c0.4,0,0.8,0.1,1.1,0.3
				c0.3,0.2,0.6,0.4,0.8,0.8c0.1,0.2,0.2,0.4,0.2,0.6c0,0.2,0,0.5,0,0.9v3c0,0.3-0.1,0.6-0.2,0.7c-0.1,0.2-0.3,0.2-0.6,0.2
				c-0.2,0-0.4-0.1-0.6-0.3c-0.2-0.2-0.2-0.4-0.2-0.7v-2.7c0-0.5-0.1-0.9-0.2-1.2c-0.1-0.3-0.4-0.4-0.9-0.4c-0.3,0-0.6,0.1-0.8,0.3
				c-0.2,0.2-0.4,0.4-0.5,0.7c-0.1,0.2-0.1,0.7-0.1,1.4v2c0,0.3-0.1,0.6-0.2,0.7c-0.2,0.2-0.3,0.2-0.6,0.2c-0.2,0-0.4-0.1-0.6-0.3
				c-0.2-0.2-0.2-0.4-0.2-0.7v-4.7c0-0.3,0.1-0.5,0.2-0.7c0.1-0.2,0.3-0.2,0.6-0.2c0.1,0,0.3,0,0.4,0.1c0.1,0.1,0.2,0.2,0.3,0.3
				C205.4,478.8,205.4,479,205.4,479.2z"/>
			<path class="st28" d="M215.3,482h-3.2c0,0.4,0.1,0.7,0.2,1c0.1,0.3,0.3,0.5,0.6,0.6c0.2,0.1,0.5,0.2,0.8,0.2c0.2,0,0.4,0,0.5-0.1
				c0.2,0,0.3-0.1,0.5-0.2c0.1-0.1,0.3-0.2,0.4-0.3c0.1-0.1,0.3-0.3,0.5-0.5c0.1-0.1,0.2-0.1,0.4-0.1c0.2,0,0.3,0,0.4,0.1
				c0.1,0.1,0.2,0.2,0.2,0.4c0,0.1-0.1,0.3-0.2,0.5c-0.1,0.2-0.3,0.4-0.5,0.6c-0.2,0.2-0.5,0.3-0.9,0.4c-0.4,0.1-0.8,0.2-1.2,0.2
				c-1,0-1.8-0.3-2.4-0.9c-0.6-0.6-0.9-1.4-0.9-2.4c0-0.5,0.1-0.9,0.2-1.3c0.1-0.4,0.4-0.8,0.6-1.1c0.3-0.3,0.6-0.5,1-0.7
				c0.4-0.2,0.8-0.2,1.3-0.2c0.6,0,1.2,0.1,1.6,0.4c0.5,0.3,0.8,0.6,1,1c0.2,0.4,0.3,0.9,0.3,1.3c0,0.4-0.1,0.7-0.4,0.8
				C216,481.9,215.7,482,215.3,482z M212.1,481h2.9c0-0.6-0.2-1-0.4-1.2c-0.3-0.3-0.6-0.4-1-0.4c-0.4,0-0.7,0.1-1,0.4
				C212.3,480.1,212.2,480.5,212.1,481z"/>
			<path class="st28" d="M221.9,483.9v-0.2c-0.2,0.2-0.4,0.5-0.6,0.6c-0.2,0.2-0.4,0.3-0.7,0.4c-0.2,0.1-0.5,0.1-0.8,0.1
				c-0.4,0-0.7-0.1-1.1-0.2c-0.3-0.2-0.6-0.4-0.9-0.7c-0.2-0.3-0.4-0.7-0.5-1.1c-0.1-0.4-0.2-0.9-0.2-1.3c0-1,0.2-1.8,0.7-2.4
				c0.5-0.6,1.1-0.8,2-0.8c0.5,0,0.9,0.1,1.2,0.2c0.3,0.2,0.6,0.4,0.9,0.7v-2.4c0-0.3,0.1-0.6,0.2-0.8c0.1-0.2,0.3-0.3,0.6-0.3
				c0.2,0,0.4,0.1,0.6,0.2c0.1,0.2,0.2,0.4,0.2,0.7v7.1c0,0.3-0.1,0.5-0.2,0.7c-0.1,0.2-0.3,0.2-0.6,0.2c-0.2,0-0.4-0.1-0.5-0.2
				C222,484.5,221.9,484.2,221.9,483.9z M218.7,481.5c0,0.4,0.1,0.8,0.2,1.1c0.1,0.3,0.3,0.5,0.6,0.7c0.2,0.2,0.5,0.2,0.8,0.2
				c0.3,0,0.5-0.1,0.8-0.2c0.2-0.1,0.4-0.4,0.6-0.7c0.1-0.3,0.2-0.7,0.2-1.1c0-0.4-0.1-0.8-0.2-1.1c-0.1-0.3-0.3-0.5-0.6-0.7
				c-0.2-0.2-0.5-0.2-0.8-0.2c-0.3,0-0.6,0.1-0.8,0.3c-0.2,0.2-0.4,0.4-0.5,0.7C218.8,480.8,218.7,481.1,218.7,481.5z"/>
			<path class="st28" d="M228.5,476.8v2.5c0.3-0.3,0.6-0.6,0.9-0.7c0.3-0.2,0.7-0.3,1.2-0.3c0.5,0,1,0.1,1.4,0.4
				c0.4,0.3,0.7,0.6,0.9,1.1c0.2,0.5,0.3,1.1,0.3,1.7c0,0.5-0.1,0.9-0.2,1.4c-0.1,0.4-0.3,0.8-0.5,1.1c-0.2,0.3-0.5,0.5-0.9,0.7
				c-0.3,0.2-0.7,0.2-1.1,0.2c-0.2,0-0.5,0-0.7-0.1c-0.2-0.1-0.4-0.1-0.6-0.2c-0.2-0.1-0.3-0.2-0.4-0.3c-0.1-0.1-0.3-0.3-0.4-0.5
				v0.2c0,0.3-0.1,0.5-0.2,0.7c-0.1,0.2-0.3,0.2-0.6,0.2c-0.2,0-0.4-0.1-0.5-0.2c-0.1-0.2-0.2-0.4-0.2-0.7v-7.1
				c0-0.3,0.1-0.6,0.2-0.7c0.1-0.2,0.3-0.3,0.6-0.3c0.2,0,0.4,0.1,0.6,0.2C228.4,476.3,228.5,476.5,228.5,476.8z M228.6,481.6
				c0,0.6,0.1,1.1,0.4,1.5c0.3,0.3,0.7,0.5,1.2,0.5c0.4,0,0.8-0.2,1.1-0.5c0.3-0.4,0.4-0.9,0.4-1.5c0-0.4-0.1-0.8-0.2-1.1
				c-0.1-0.3-0.3-0.5-0.5-0.7c-0.2-0.2-0.5-0.3-0.8-0.3c-0.3,0-0.6,0.1-0.8,0.3c-0.2,0.2-0.4,0.4-0.6,0.7
				C228.7,480.8,228.6,481.2,228.6,481.6z"/>
			<path class="st28" d="M235.4,485.1l0.1-0.4l-2-5c-0.1-0.3-0.2-0.5-0.2-0.6c0-0.1,0-0.3,0.1-0.4c0.1-0.1,0.2-0.2,0.3-0.3
				c0.1-0.1,0.3-0.1,0.4-0.1c0.2,0,0.4,0.1,0.5,0.2c0.1,0.1,0.2,0.4,0.3,0.6l1.4,4l1.3-3.7c0.1-0.3,0.2-0.5,0.3-0.7
				c0.1-0.2,0.2-0.3,0.3-0.3c0.1-0.1,0.2-0.1,0.4-0.1c0.1,0,0.2,0,0.4,0.1c0.1,0.1,0.2,0.2,0.3,0.3c0.1,0.1,0.1,0.2,0.1,0.3
				c0,0.1,0,0.2-0.1,0.3c0,0.1-0.1,0.3-0.1,0.4l-2.1,5.5c-0.2,0.5-0.4,0.9-0.5,1.1c-0.2,0.3-0.4,0.5-0.7,0.6
				c-0.3,0.1-0.7,0.2-1.2,0.2c-0.5,0-0.8-0.1-1.1-0.2c-0.2-0.1-0.4-0.3-0.4-0.6c0-0.2,0.1-0.3,0.2-0.4c0.1-0.1,0.3-0.2,0.5-0.2
				c0.1,0,0.2,0,0.3,0c0.1,0,0.2,0,0.3,0c0.2,0,0.3,0,0.4-0.1c0.1-0.1,0.2-0.2,0.3-0.3C235.2,485.5,235.3,485.3,235.4,485.1z"/>
		</g>
		<g>
			<path class="st28" d="M258.9,478.4h0.4v-0.5c0-0.5,0.1-0.9,0.2-1.2c0.1-0.3,0.3-0.5,0.7-0.7c0.3-0.1,0.7-0.2,1.3-0.2
				c0.9,0,1.4,0.2,1.4,0.7c0,0.1,0,0.3-0.2,0.4c-0.1,0.1-0.2,0.2-0.3,0.2c-0.1,0-0.2,0-0.3,0c-0.1,0-0.3,0-0.4,0
				c-0.3,0-0.5,0.1-0.6,0.3c-0.1,0.2-0.1,0.4-0.1,0.7v0.4h0.4c0.6,0,0.9,0.2,0.9,0.6c0,0.3-0.1,0.4-0.2,0.5
				c-0.2,0.1-0.4,0.1-0.7,0.1h-0.4v4.3c0,0.3-0.1,0.6-0.2,0.7c-0.2,0.2-0.3,0.3-0.6,0.3c-0.2,0-0.4-0.1-0.6-0.3
				c-0.2-0.2-0.2-0.4-0.2-0.7v-4.3h-0.4c-0.2,0-0.4-0.1-0.6-0.2c-0.1-0.1-0.2-0.2-0.2-0.4C258.1,478.6,258.4,478.4,258.9,478.4"/>
			<path class="st28" d="M264.2,482.5v1.4c0,0.3-0.1,0.6-0.2,0.7c-0.2,0.2-0.3,0.2-0.6,0.2c-0.2,0-0.4-0.1-0.6-0.3
				c-0.1-0.2-0.2-0.4-0.2-0.7v-4.5c0-0.7,0.3-1.1,0.8-1.1c0.3,0,0.5,0.1,0.6,0.3c0.1,0.2,0.2,0.4,0.2,0.8c0.2-0.3,0.4-0.6,0.6-0.8
				c0.2-0.2,0.5-0.3,0.8-0.3c0.3,0,0.7,0.1,1,0.3c0.3,0.2,0.5,0.4,0.5,0.7c0,0.2-0.1,0.4-0.2,0.5c-0.1,0.1-0.3,0.2-0.4,0.2
				c-0.1,0-0.2,0-0.4-0.1c-0.2-0.1-0.4-0.1-0.6-0.1c-0.2,0-0.4,0.1-0.6,0.2c-0.2,0.1-0.3,0.3-0.4,0.6c-0.1,0.2-0.1,0.5-0.2,0.9
				C264.2,481.6,264.2,482,264.2,482.5"/>
			<path class="st28" d="M271.7,482h-3.2c0,0.4,0.1,0.7,0.2,1c0.1,0.3,0.3,0.5,0.6,0.6c0.2,0.1,0.5,0.2,0.8,0.2c0.2,0,0.4,0,0.5-0.1
				c0.2,0,0.3-0.1,0.5-0.2c0.2-0.1,0.3-0.2,0.4-0.3c0.1-0.1,0.3-0.3,0.5-0.4c0.1-0.1,0.2-0.1,0.4-0.1c0.2,0,0.3,0,0.4,0.1
				c0.1,0.1,0.2,0.2,0.2,0.4c0,0.1-0.1,0.3-0.2,0.5c-0.1,0.2-0.3,0.4-0.5,0.6c-0.2,0.2-0.5,0.3-0.9,0.4c-0.3,0.1-0.8,0.2-1.2,0.2
				c-1,0-1.9-0.3-2.4-0.9c-0.6-0.6-0.9-1.4-0.9-2.4c0-0.5,0.1-0.9,0.2-1.3c0.1-0.4,0.3-0.8,0.6-1.1c0.3-0.3,0.6-0.5,1-0.7
				c0.4-0.2,0.8-0.2,1.3-0.2c0.6,0,1.2,0.1,1.6,0.4c0.5,0.3,0.8,0.6,1,1c0.2,0.4,0.3,0.9,0.3,1.3c0,0.4-0.1,0.7-0.4,0.8
				C272.4,481.9,272.1,482,271.7,482 M268.5,481h2.9c0-0.6-0.2-1-0.4-1.2c-0.3-0.3-0.6-0.4-1-0.4c-0.4,0-0.7,0.1-1,0.4
				C268.7,480.1,268.5,480.5,268.5,481"/>
			<path class="st28" d="M278.4,482h-3.2c0,0.4,0.1,0.7,0.2,1c0.1,0.3,0.3,0.5,0.6,0.6c0.2,0.1,0.5,0.2,0.8,0.2c0.2,0,0.4,0,0.5-0.1
				c0.2,0,0.3-0.1,0.5-0.2c0.2-0.1,0.3-0.2,0.4-0.3c0.1-0.1,0.3-0.3,0.5-0.4c0.1-0.1,0.2-0.1,0.4-0.1c0.2,0,0.3,0,0.4,0.1
				c0.1,0.1,0.2,0.2,0.2,0.4c0,0.1-0.1,0.3-0.2,0.5c-0.1,0.2-0.3,0.4-0.5,0.6c-0.2,0.2-0.5,0.3-0.9,0.4c-0.3,0.1-0.8,0.2-1.2,0.2
				c-1,0-1.8-0.3-2.4-0.9c-0.6-0.6-0.9-1.4-0.9-2.4c0-0.5,0.1-0.9,0.2-1.3c0.1-0.4,0.3-0.8,0.6-1.1c0.3-0.3,0.6-0.5,1-0.7
				c0.4-0.2,0.8-0.2,1.3-0.2c0.6,0,1.2,0.1,1.6,0.4c0.4,0.3,0.8,0.6,1,1c0.2,0.4,0.3,0.9,0.3,1.3c0,0.4-0.1,0.7-0.4,0.8
				C279.1,481.9,278.8,482,278.4,482 M275.2,481h2.9c0-0.6-0.2-1-0.4-1.2c-0.3-0.3-0.6-0.4-1-0.4c-0.4,0-0.7,0.1-1,0.4
				C275.4,480.1,275.3,480.5,275.2,481"/>
			<path class="st28" d="M281.9,479.2v0.2c0.3-0.4,0.6-0.7,1-0.8c0.3-0.2,0.7-0.3,1.1-0.3c0.5,0,1,0.1,1.4,0.4
				c0.4,0.3,0.7,0.6,1,1.1c0.2,0.5,0.4,1.1,0.4,1.8c0,0.5-0.1,1-0.2,1.4c-0.1,0.4-0.3,0.8-0.6,1c-0.2,0.3-0.5,0.5-0.9,0.7
				c-0.3,0.2-0.7,0.2-1.1,0.2c-0.5,0-0.9-0.1-1.2-0.3c-0.3-0.2-0.6-0.5-0.9-0.8v2.4c0,0.7-0.3,1.1-0.8,1.1c-0.3,0-0.5-0.1-0.6-0.3
				c-0.1-0.2-0.1-0.5-0.1-0.8v-7c0-0.3,0.1-0.5,0.2-0.7c0.1-0.1,0.3-0.2,0.6-0.2c0.2,0,0.4,0.1,0.6,0.2
				C281.9,478.7,281.9,478.9,281.9,479.2 M285.1,481.5c0-0.4-0.1-0.8-0.2-1.1c-0.1-0.3-0.3-0.5-0.5-0.7c-0.2-0.2-0.5-0.2-0.8-0.2
				c-0.4,0-0.8,0.2-1.1,0.5c-0.3,0.4-0.5,0.9-0.5,1.6c0,0.6,0.2,1.1,0.5,1.5c0.3,0.4,0.7,0.5,1.1,0.5c0.3,0,0.5-0.1,0.7-0.2
				c0.2-0.2,0.4-0.4,0.6-0.7C285.1,482.3,285.1,482,285.1,481.5"/>
			<path class="st28" d="M288.4,477.5c-0.2,0-0.4-0.1-0.6-0.2c-0.2-0.1-0.2-0.3-0.2-0.6c0-0.2,0.1-0.4,0.2-0.6
				c0.2-0.1,0.4-0.2,0.6-0.2c0.2,0,0.4,0.1,0.6,0.2c0.2,0.1,0.2,0.3,0.2,0.6c0,0.2-0.1,0.4-0.2,0.6
				C288.8,477.4,288.6,477.5,288.4,477.5 M289.2,479.2v4.7c0,0.3-0.1,0.6-0.2,0.7c-0.2,0.2-0.4,0.3-0.6,0.3c-0.2,0-0.4-0.1-0.6-0.3
				c-0.1-0.2-0.2-0.4-0.2-0.7v-4.6c0-0.3,0.1-0.6,0.2-0.7c0.2-0.2,0.3-0.2,0.6-0.2c0.2,0,0.4,0.1,0.6,0.2
				C289.1,478.7,289.2,478.9,289.2,479.2"/>
			<path class="st28" d="M294.4,484.1l-1.4-2.4l-0.9,0.8v1.3c0,0.3-0.1,0.6-0.2,0.7c-0.2,0.2-0.4,0.3-0.6,0.3
				c-0.2,0-0.4-0.1-0.6-0.3c-0.1-0.2-0.2-0.4-0.2-0.7V477c0-0.4,0.1-0.6,0.2-0.8c0.1-0.2,0.3-0.3,0.6-0.3c0.2,0,0.4,0.1,0.6,0.3
				c0.1,0.2,0.2,0.4,0.2,0.8v3.9l1.8-1.9c0.2-0.2,0.4-0.4,0.5-0.5c0.1-0.1,0.3-0.1,0.4-0.1c0.2,0,0.4,0.1,0.5,0.2
				c0.1,0.1,0.2,0.3,0.2,0.5c0,0.2-0.2,0.6-0.7,1l-0.9,0.8l1.7,2.6c0.1,0.2,0.2,0.3,0.3,0.4c0.1,0.1,0.1,0.2,0.1,0.3
				c0,0.3-0.1,0.5-0.2,0.6c-0.1,0.1-0.3,0.2-0.6,0.2c-0.2,0-0.4-0.1-0.5-0.2C294.7,484.6,294.6,484.4,294.4,484.1"/>
			<path class="st28" d="M297.9,484.9c-0.2,0-0.5-0.1-0.6-0.2c-0.2-0.2-0.3-0.4-0.3-0.7c0-0.2,0.1-0.4,0.3-0.6
				c0.2-0.2,0.4-0.3,0.6-0.3c0.2,0,0.5,0.1,0.6,0.3c0.2,0.2,0.3,0.4,0.3,0.6c0,0.3-0.1,0.5-0.3,0.7
				C298.4,484.8,298.2,484.9,297.9,484.9"/>
			<path class="st28" d="M306,482.8c0,0.2-0.1,0.4-0.2,0.6c-0.1,0.2-0.3,0.4-0.6,0.7c-0.2,0.2-0.6,0.4-0.9,0.5
				c-0.4,0.1-0.8,0.2-1.3,0.2c-1,0-1.8-0.3-2.3-0.9c-0.6-0.6-0.8-1.4-0.8-2.3c0-0.7,0.1-1.3,0.4-1.8c0.3-0.5,0.6-0.9,1.1-1.2
				c0.5-0.3,1.1-0.4,1.7-0.4c0.4,0,0.8,0.1,1.2,0.2c0.4,0.1,0.6,0.3,0.9,0.5c0.2,0.2,0.4,0.4,0.6,0.6c0.1,0.2,0.2,0.4,0.2,0.6
				c0,0.2-0.1,0.4-0.2,0.5c-0.1,0.1-0.3,0.2-0.5,0.2c-0.1,0-0.2,0-0.3-0.1c-0.1-0.1-0.2-0.2-0.3-0.3c-0.2-0.3-0.4-0.5-0.6-0.7
				c-0.2-0.2-0.5-0.2-0.8-0.2c-0.5,0-0.9,0.2-1.2,0.6c-0.3,0.4-0.4,0.9-0.4,1.5c0,0.3,0,0.6,0.1,0.8c0.1,0.3,0.2,0.5,0.3,0.7
				c0.1,0.2,0.3,0.3,0.5,0.4c0.2,0.1,0.4,0.1,0.7,0.1c0.3,0,0.6-0.1,0.8-0.2c0.2-0.2,0.4-0.4,0.6-0.7c0.1-0.2,0.2-0.3,0.3-0.4
				c0.1-0.1,0.3-0.2,0.4-0.2c0.2,0,0.4,0.1,0.5,0.2C305.9,482.5,306,482.7,306,482.8"/>
			<path class="st28" d="M313,481.6c0,0.5-0.1,0.9-0.2,1.3c-0.2,0.4-0.4,0.8-0.7,1c-0.3,0.3-0.6,0.5-1,0.7c-0.4,0.2-0.8,0.2-1.3,0.2
				c-0.5,0-0.9-0.1-1.3-0.2c-0.4-0.2-0.7-0.4-1-0.7c-0.3-0.3-0.5-0.6-0.7-1c-0.1-0.4-0.2-0.8-0.2-1.3c0-0.5,0.1-0.9,0.2-1.3
				c0.2-0.4,0.4-0.8,0.6-1c0.3-0.3,0.6-0.5,1-0.7c0.4-0.2,0.8-0.2,1.3-0.2c0.5,0,0.9,0.1,1.3,0.2c0.4,0.2,0.7,0.4,1,0.7
				c0.3,0.3,0.5,0.6,0.6,1C312.9,480.6,313,481.1,313,481.6 M311.4,481.6c0-0.7-0.1-1.2-0.4-1.5c-0.3-0.4-0.7-0.6-1.2-0.6
				c-0.3,0-0.6,0.1-0.8,0.2c-0.2,0.2-0.4,0.4-0.6,0.7c-0.1,0.3-0.2,0.7-0.2,1.1c0,0.4,0.1,0.8,0.2,1.1c0.1,0.3,0.3,0.6,0.6,0.7
				c0.2,0.2,0.5,0.3,0.8,0.3c0.5,0,0.9-0.2,1.2-0.6C311.2,482.7,311.4,482.2,311.4,481.6"/>
			<path class="st28" d="M319.2,481.7v2.2c0,0.3-0.1,0.6-0.2,0.8c-0.2,0.2-0.4,0.3-0.6,0.3c-0.2,0-0.4-0.1-0.6-0.3
				c-0.2-0.2-0.2-0.4-0.2-0.8v-2.6c0-0.4,0-0.7,0-1c0-0.2-0.1-0.4-0.2-0.6c-0.1-0.1-0.3-0.2-0.6-0.2c-0.5,0-0.9,0.2-1,0.6
				c-0.2,0.4-0.3,0.9-0.3,1.6v2.2c0,0.3-0.1,0.6-0.2,0.8c-0.2,0.2-0.4,0.3-0.6,0.3c-0.2,0-0.4-0.1-0.6-0.3c-0.2-0.2-0.2-0.4-0.2-0.8
				v-4.6c0-0.3,0.1-0.5,0.2-0.7c0.1-0.2,0.3-0.2,0.6-0.2c0.2,0,0.4,0.1,0.6,0.2c0.1,0.1,0.2,0.4,0.2,0.6v0.2
				c0.3-0.3,0.6-0.6,0.9-0.7c0.3-0.2,0.7-0.2,1.1-0.2c0.4,0,0.8,0.1,1,0.2c0.3,0.2,0.5,0.4,0.7,0.7c0.3-0.3,0.6-0.6,0.9-0.7
				c0.3-0.2,0.7-0.2,1-0.2c0.4,0,0.8,0.1,1.1,0.3c0.3,0.2,0.6,0.4,0.7,0.7c0.1,0.3,0.2,0.8,0.2,1.4v3.2c0,0.3-0.1,0.6-0.2,0.8
				c-0.2,0.2-0.4,0.3-0.6,0.3c-0.2,0-0.4-0.1-0.6-0.3c-0.2-0.2-0.2-0.4-0.2-0.8v-2.7c0-0.3,0-0.6,0-0.8c0-0.2-0.1-0.4-0.2-0.5
				c-0.1-0.1-0.3-0.2-0.6-0.2c-0.2,0-0.4,0.1-0.6,0.2c-0.2,0.1-0.3,0.3-0.5,0.5C319.2,480.5,319.2,481,319.2,481.7"/>
		</g>
		<g>
			<path class="st28" d="M243.7,481.2C243.7,481.2,243.7,481.2,243.7,481.2C243.7,481.2,243.7,481.2,243.7,481.2z"/>
			<path class="st28" d="M243.8,481.7C243.8,481.7,243.8,481.7,243.8,481.7c0-0.1-0.1-0.3-0.1-0.4
				C243.8,481.4,243.8,481.5,243.8,481.7z"/>
			<path class="st28" d="M244.3,483.2C244.3,483.2,244.3,483.2,244.3,483.2C244.3,483.2,244.3,483.2,244.3,483.2z"/>
			<path class="st28" d="M244.3,483.1C244.3,483.1,244.3,483,244.3,483.1C244.3,483,244.3,483.1,244.3,483.1z"/>
			<path class="st28" d="M244,482.3c0.1,0.3,0.2,0.5,0.3,0.7C244.1,482.8,244,482.5,244,482.3C244,482.3,244,482.3,244,482.3z"/>
			<path class="st28" d="M250,475c0.3,0,0.5,0,0.8,0.1l0.1-0.5c0,0-0.7-0.2-1.7-0.1l-0.1-0.3c0.3-0.1,0.5-0.3,0.5-0.6
				c0-0.4-0.3-0.7-0.7-0.7c-0.4,0-0.7,0.3-0.7,0.7c0,0.3,0.2,0.6,0.5,0.6l0.1,0.3c-1,0.1-1.8,0.5-1.8,0.5l0.1,0.4
				c0.6-0.2,1.2-0.3,1.6-0.4C249.4,475,249.7,475,250,475z"/>
			<path class="st28" d="M244.3,477.4L244.3,477.4C244.4,477.3,244.4,477.3,244.3,477.4l-0.1-0.2l-0.3-0.2c0,0-0.5,0.5-0.9,1.3
				c0,0,0-0.1-0.1-0.1c-0.1-0.1-0.3-0.2-0.5-0.2c0,0,0,0,0,0c-0.1,0-0.2,0-0.3-0.1c0.1-0.1,0.1-0.2,0.1-0.3c0-0.2-0.2-0.4-0.4-0.4
				c-0.2,0-0.4,0.2-0.4,0.4c0,0.2,0.2,0.4,0.4,0.4c0,0,0.1,0,0.1,0c0.1,0.1,0.3,0.2,0.5,0.2c0.1,0,0.2,0,0.3,0.1
				c0.1,0.1,0.1,0.2,0.1,0.3c0,0,0,0,0,0c-0.3,0.7-0.2,1.7-0.2,1.7l0.7,0c0-0.3,0.1-0.9,0.2-1.4C243.9,478,244.3,477.4,244.3,477.4z
				"/>
			<path class="st28" d="M255.8,475.5c-0.2,0-0.4,0.2-0.4,0.4c0,0,0,0.1,0,0.1c-0.1,0.1-0.2,0.3-0.2,0.5c0,0.1,0,0.2-0.1,0.3
				c-0.1,0-0.1,0.1-0.2,0.1c-0.5-0.7-1.1-1.1-1.1-1.1l-0.5,0.5c0.4,0.3,0.7,0.7,1.1,1.2c0.2,0.4,0.5,0.8,0.7,1.3l0.6-0.3
				c0,0-0.3-0.7-0.7-1.4c0.1,0,0.1-0.1,0.2-0.1c0.1-0.1,0.2-0.3,0.2-0.5c0-0.1,0-0.2,0.1-0.3c0.1,0.1,0.2,0.1,0.3,0.1
				c0.2,0,0.4-0.2,0.4-0.4C256.2,475.7,256,475.5,255.8,475.5z"/>
			<path class="st28" d="M254.1,481.3c-0.9,0.4-2.3,1-4.2,1.3c-0.7,0.1-1.5,0.1-2.1,0.1c-0.9,0-1.6-0.1-2.2-0.1
				c-0.7-0.1-1.2-0.2-1.5-0.3c0.1,0.2,0.2,0.5,0.3,0.7c0,0,0,0,0,0c0,0,0,0.1,0,0.1c0,0,0,0.1,0,0.1c0,0,0,0,0,0
				c0.2,0.4,0.4,0.7,0.7,1c0.9,1,1.8,1.1,1.8,1.1l0,0l0,0c0,0,0.8,0.3,2.1,0.3c1.2,0,2.4-0.2,3.5-0.7c0.8-0.4,1.6-1.1,2-1.7
				c0.3-0.5,0.5-0.9,0.7-1.4c0.1-0.3,0.1-0.7,0.1-1.1C255,480.8,254.6,481,254.1,481.3z"/>
			<path class="st28" d="M244.6,477.6c0,0-0.4,0.6-0.7,1.4c-0.2,0.6-0.2,1.5-0.2,1.5v0c0,0.2,0,0.4,0,0.6c0,0,0,0,0,0
				c0,0,0,0.1,0,0.1c0,0.1,0,0.3,0.1,0.4c0.4,0.1,3,0.7,6,0.3c1.8-0.3,3.2-0.8,4.1-1.2c0.7-0.3,1.2-0.6,1.3-0.8
				c-0.2-0.6-0.7-1.7-1.1-2.3c-1.3-1.8-2.6-2.3-3.3-2.4c-0.3,0-0.5-0.1-0.8-0.1c-0.3,0-0.6,0-1.1,0.1c-0.5,0-1,0.2-1.6,0.4
				c-0.8,0.3-1.6,0.7-2.2,1.3l0,0C245,477.1,244.8,477.3,244.6,477.6z M252.3,477.2c0.6,0,1.1,0.5,1.1,1.1c0,0.6-0.5,1.1-1.1,1.1
				c-0.6,0-1.1-0.5-1.1-1.1C251.2,477.6,251.7,477.2,252.3,477.2z M247.1,477.1c1,0,1.8,0.8,1.8,1.8c0,1-0.8,1.8-1.8,1.8
				c-1,0-1.8-0.8-1.8-1.8C245.4,477.9,246.2,477.1,247.1,477.1z"/>
		</g>
	</g>
</g>
</svg>
