<?xml version="1.0" encoding="UTF-8" standalone="no"?>
<!-- Created with Inkscape (http://www.inkscape.org/) -->

<svg
   xmlns:dc="http://purl.org/dc/elements/1.1/"
   xmlns:cc="http://creativecommons.org/ns#"
   xmlns:rdf="http://www.w3.org/1999/02/22-rdf-syntax-ns#"
   xmlns:svg="http://www.w3.org/2000/svg"
   xmlns="http://www.w3.org/2000/svg"
   xmlns:sodipodi="http://sodipodi.sourceforge.net/DTD/sodipodi-0.dtd"
   xmlns:inkscape="http://www.inkscape.org/namespaces/inkscape"
   version="1.1"
   id="svg1678"
   xml:space="preserve"
   width="800"
   height="800"
   viewBox="0 0 800 800"
   sodipodi:docname="abstract-33-publicdomainvectors.org [Converted].svg"
   inkscape:version="0.92.4 (5da689c313, 2019-01-14)"><metadata
     id="metadata1684"><rdf:RDF><cc:Work
         rdf:about=""><dc:format>image/svg+xml</dc:format><dc:type
           rdf:resource="http://purl.org/dc/dcmitype/StillImage" /><dc:title></dc:title></cc:Work></rdf:RDF></metadata><defs
     id="defs1682"><clipPath
       clipPathUnits="userSpaceOnUse"
       id="clipPath1694"><path
         d="M 0,600 H 600 V 0 H 0 Z"
         id="path1692"
         inkscape:connector-curvature="0" /></clipPath><radialGradient
       fx="0"
       fy="0"
       cx="0"
       cy="0"
       r="1"
       gradientUnits="userSpaceOnUse"
       gradientTransform="matrix(215.34424,0,0,-215.34424,296.07422,303.78516)"
       spreadMethod="pad"
       id="radialGradient1720"><stop
         style="stop-opacity:1;stop-color:#fff424"
         offset="0"
         id="stop1708" /><stop
         style="stop-opacity:1;stop-color:#fac308"
         offset="0.13312686"
         id="stop1710" /><stop
         style="stop-opacity:1;stop-color:#fac308"
         offset="0.280899"
         id="stop1712" /><stop
         style="stop-opacity:1;stop-color:#f3812f"
         offset="0.668539"
         id="stop1714" /><stop
         style="stop-opacity:1;stop-color:#ee5233"
         offset="0.88764"
         id="stop1716" /><stop
         style="stop-opacity:1;stop-color:#ea2c35"
         offset="1"
         id="stop1718" /></radialGradient></defs><sodipodi:namedview
     pagecolor="#ffffff"
     bordercolor="#666666"
     borderopacity="1"
     objecttolerance="10"
     gridtolerance="10"
     guidetolerance="10"
     inkscape:pageopacity="0"
     inkscape:pageshadow="2"
     inkscape:window-width="1920"
     inkscape:window-height="1018"
     id="namedview1680"
     showgrid="false"
     inkscape:zoom="0.849"
     inkscape:cx="450.84746"
     inkscape:cy="388.13559"
     inkscape:window-x="-8"
     inkscape:window-y="-8"
     inkscape:window-maximized="1"
     inkscape:current-layer="g1686" /><g
     id="g1686"
     inkscape:groupmode="layer"
     inkscape:label="abstract-33-publicdomainvectors.org [Converted]"
     transform="matrix(1.3333333,0,0,-1.3333333,0,800)"><g
       id="g1688"><g
         id="g1690"
         clip-path="url(#clipPath1694)"><g
           id="g1696"><g
             id="g1698"><g
               id="g1704"><g
                 id="g1706"><path
                   d="m 391.364,284.334 c 0.381,1.925 -0.867,3.794 -2.79,4.175 -1.926,0.383 -3.794,-0.866 -4.178,-2.79 -0.382,-1.924 0.866,-3.793 2.792,-4.174 1.922,-0.384 3.791,0.866 4.176,2.789 m -11.533,2.295 c 0.324,1.633 -0.737,3.223 -2.373,3.549 -1.634,0.326 -3.224,-0.737 -3.55,-2.373 -0.322,-1.633 0.738,-3.225 2.375,-3.55 1.632,-0.323 3.222,0.737 3.548,2.374 m -25.361,3.053 c 1.057,-0.211 2.084,0.477 2.295,1.535 0.211,1.056 -0.477,2.086 -1.535,2.297 -1.057,0.211 -2.084,-0.477 -2.294,-1.535 -0.212,-1.059 0.474,-2.086 1.534,-2.297 m 48.426,-7.641 c 0.44,2.212 -0.998,4.359 -3.208,4.801 -2.213,0.441 -4.364,-0.998 -4.8,-3.209 -0.444,-2.212 0.992,-4.363 3.204,-4.801 2.216,-0.441 4.362,0.997 4.804,3.209 m -70.24,13.064 c 0.484,-0.095 0.948,0.217 1.044,0.7 0.095,0.479 -0.217,0.947 -0.696,1.045 -0.483,0.095 -0.949,-0.217 -1.044,-0.7 -0.097,-0.48 0.215,-0.949 0.696,-1.045 m 10.908,-2.709 c 0.766,-0.155 1.515,0.344 1.669,1.115 0.153,0.769 -0.344,1.515 -1.115,1.669 -0.77,0.153 -1.52,-0.346 -1.672,-1.116 -0.154,-0.769 0.347,-1.518 1.118,-1.668 m 22.781,-0.552 c -1.346,0.269 -2.657,-0.606 -2.921,-1.951 -0.271,-1.349 0.604,-2.656 1.95,-2.924 1.349,-0.27 2.655,0.605 2.925,1.953 0.267,1.346 -0.607,2.656 -1.954,2.922 m 53.559,-18.44 c 2.79,-0.552 5.5,1.258 6.058,4.049 0.555,2.787 -1.259,5.5 -4.047,6.055 -2.788,0.555 -5.502,-1.256 -6.055,-4.046 -0.556,-2.79 1.255,-5.501 4.044,-6.058 m -5.474,6.343 c 0.495,2.499 -1.127,4.931 -3.629,5.429 -2.5,0.497 -4.93,-1.129 -5.429,-3.628 -0.497,-2.5 1.126,-4.931 3.628,-5.43 2.499,-0.496 4.93,1.127 5.43,3.629 m 85.284,-7.913 c -2.28,0.454 -4.526,-0.02 -6.363,-1.145 -1.177,1.401 -2.817,2.427 -4.749,2.812 -2.321,0.461 -4.602,-0.091 -6.399,-1.343 -1.112,1.496 -2.742,2.619 -4.719,3.012 -2.355,0.469 -4.65,-0.203 -6.389,-1.596 -1.029,1.629 -2.685,2.857 -4.725,3.262 -2.421,0.482 -4.79,-0.305 -6.448,-1.889 -0.907,1.77 -2.562,3.139 -4.665,3.559 -2.519,0.5 -4.966,-0.493 -6.495,-2.342 -0.712,1.985 -2.399,3.566 -4.618,4.008 -2.717,0.541 -5.344,-0.794 -6.622,-3.092 -0.336,2.314 -2.067,4.277 -4.495,4.761 -3.077,0.61 -6.067,-1.387 -6.678,-4.464 -0.615,-3.079 1.384,-6.072 4.464,-6.683 2.425,-0.483 4.774,0.669 5.972,2.677 0.301,-2.609 2.218,-4.85 4.933,-5.39 2.22,-0.44 4.382,0.376 5.801,1.937 0.706,-2.293 2.585,-4.15 5.104,-4.65 2.105,-0.418 4.155,0.214 5.671,1.503 0.927,-2.099 2.816,-3.734 5.237,-4.216 2.038,-0.406 4.04,0.095 5.613,1.209 1.074,-1.951 2.937,-3.451 5.293,-3.92 1.973,-0.393 3.909,0.019 5.51,0.976 1.182,-1.845 3.077,-3.228 5.396,-3.689 1.933,-0.385 3.842,-0.063 5.466,0.779 1.266,-1.744 3.16,-3.039 5.441,-3.493 4.81,-0.956 9.482,2.169 10.438,6.979 0.958,4.806 -2.164,9.483 -6.974,10.438 m -169.386,16.217 c 0.48,-0.197 1.03,0.029 1.232,0.51 0.197,0.482 -0.031,1.033 -0.51,1.23 -0.479,0.201 -1.031,-0.027 -1.232,-0.51 -0.196,-0.478 0.031,-1.03 0.51,-1.23 m 12.123,-4.001 c 0.32,0.767 -0.045,1.649 -0.814,1.968 -0.767,0.318 -1.65,-0.047 -1.967,-0.815 -0.319,-0.769 0.046,-1.649 0.812,-1.967 0.771,-0.322 1.652,0.046 1.969,0.814 m 28.498,-15.269 c 1.633,-0.677 3.508,0.099 4.183,1.733 0.676,1.632 -0.1,3.506 -1.734,4.181 -1.632,0.678 -3.503,-0.097 -4.18,-1.732 -0.679,-1.633 0.096,-3.504 1.731,-4.182 m 30.465,-14.455 c 2.5,-1.032 5.364,0.154 6.397,2.651 1.035,2.498 -0.151,5.361 -2.648,6.397 -2.499,1.032 -5.364,-0.15 -6.396,-2.65 -1.037,-2.497 0.15,-5.361 2.647,-6.398 m 88.448,-21.145 c -2.14,0.884 -4.419,0.92 -6.466,0.266 -0.942,1.519 -2.344,2.771 -4.123,3.506 -2.159,0.897 -4.466,0.865 -6.496,0.103 -0.874,1.598 -2.275,2.923 -4.09,3.674 -2.197,0.911 -4.558,0.796 -6.569,-0.107 -0.786,1.689 -2.162,3.11 -4.018,3.883 -2.241,0.926 -4.651,0.689 -6.627,-0.385 -0.664,1.813 -2.035,3.359 -3.96,4.156 -2.308,0.955 -4.823,0.61 -6.748,-0.691 -0.496,1.941 -1.847,3.64 -3.841,4.467 -2.425,1.004 -5.094,0.433 -6.923,-1.213 -0.211,2.14 -1.538,4.105 -3.664,4.986 -2.696,1.116 -5.738,0.13 -7.305,-2.205 0.429,2.463 -0.878,4.982 -3.281,5.98 -2.788,1.153 -5.981,-0.17 -7.138,-2.955 -1.154,-2.788 0.17,-5.984 2.958,-7.136 2.405,-0.998 5.111,-0.139 6.547,1.908 -0.542,-2.76 0.908,-5.609 3.608,-6.727 2.126,-0.88 4.452,-0.431 6.115,0.933 0.128,-2.458 1.614,-4.744 4.038,-5.749 1.994,-0.826 4.149,-0.58 5.875,0.439 0.441,-2.281 1.975,-4.304 4.282,-5.257 1.926,-0.797 3.987,-0.673 5.739,0.138 0.637,-2.156 2.176,-4.028 4.414,-4.956 1.859,-0.77 3.836,-0.738 5.588,-0.098 0.783,-2.061 2.371,-3.811 4.569,-4.719 1.815,-0.752 3.744,-0.809 5.491,-0.296 0.894,-1.974 2.505,-3.629 4.665,-4.522 1.776,-0.737 3.653,-0.842 5.394,-0.434 0.984,-1.911 2.619,-3.498 4.76,-4.386 4.805,-1.989 10.311,0.291 12.3,5.095 1.99,4.806 -0.29,10.311 -5.094,12.302 m -98.602,25.965 c 2.209,-0.916 4.744,0.133 5.659,2.342 0.916,2.211 -0.134,4.744 -2.346,5.659 -2.208,0.916 -4.741,-0.133 -5.656,-2.342 -0.917,-2.211 0.133,-4.744 2.343,-5.659 m -40.619,19.272 c 1.054,-0.439 2.266,0.062 2.704,1.121 0.438,1.055 -0.064,2.266 -1.121,2.705 -1.054,0.438 -2.27,-0.063 -2.705,-1.121 -0.439,-1.059 0.063,-2.269 1.122,-2.705 m 30.463,-14.454 c 1.923,-0.796 4.126,0.117 4.921,2.038 0.793,1.922 -0.118,4.125 -2.039,4.92 -1.921,0.795 -4.124,-0.118 -4.921,-2.039 -0.794,-1.922 0.12,-4.125 2.039,-4.919 m -20.309,9.636 c 1.347,-0.559 2.884,0.082 3.445,1.425 0.555,1.346 -0.083,2.888 -1.427,3.445 -1.346,0.555 -2.887,-0.082 -3.446,-1.429 -0.556,-1.342 0.082,-2.885 1.428,-3.441 m -16.732,-2.438 c -0.67,-1.006 -0.404,-2.364 0.602,-3.035 1.005,-0.672 2.366,-0.4 3.037,0.602 0.672,1.005 0.401,2.366 -0.602,3.037 -1.006,0.672 -2.366,0.403 -3.037,-0.604 m -17.402,10.433 c 0.455,-0.308 1.075,-0.185 1.38,0.273 0.307,0.454 0.184,1.074 -0.275,1.378 -0.457,0.308 -1.074,0.184 -1.377,-0.273 -0.308,-0.458 -0.185,-1.075 0.272,-1.378 m 54.015,-40.402 c 2.102,-1.402 4.945,-0.839 6.346,1.264 1.407,2.103 0.84,4.944 -1.259,6.348 -2.103,1.405 -4.949,0.841 -6.351,-1.26 -1.406,-2.104 -0.839,-4.945 1.264,-6.352 m -3.485,7.833 c 1.223,1.826 0.733,4.298 -1.095,5.521 -1.828,1.223 -4.301,0.728 -5.524,-1.1 -1.219,-1.828 -0.728,-4.301 1.1,-5.519 1.828,-1.223 4.302,-0.729 5.519,1.098 m 12.486,-14.566 c 2.375,-1.587 5.589,-0.948 7.177,1.429 1.587,2.375 0.948,5.59 -1.429,7.177 -2.376,1.586 -5.587,0.948 -7.175,-1.429 -1.589,-2.376 -0.951,-5.587 1.427,-7.177 m -32.914,31.567 c -1.281,0.855 -3.008,0.51 -3.866,-0.771 -0.853,-1.277 -0.507,-3.008 0.772,-3.863 1.279,-0.855 3.009,-0.51 3.864,0.769 0.855,1.281 0.511,3.01 -0.77,3.865 m 5.907,-11.365 c 1.554,-1.039 3.656,-0.623 4.693,0.932 1.037,1.553 0.62,3.656 -0.932,4.692 -1.555,1.038 -3.656,0.62 -4.694,-0.932 -1.04,-1.555 -0.62,-3.657 0.933,-4.692 m -27.009,20.197 c 0.734,-0.486 1.723,-0.293 2.209,0.44 0.488,0.731 0.293,1.721 -0.437,2.209 -0.731,0.488 -1.722,0.29 -2.209,-0.439 -0.488,-0.731 -0.291,-1.721 0.437,-2.21 m 137.09,-77.717 c -1.922,1.287 -4.129,1.802 -6.268,1.642 -0.688,1.612 -1.833,3.054 -3.397,4.101 -1.94,1.294 -4.183,1.762 -6.327,1.5 -0.62,1.671 -1.742,3.174 -3.338,4.239 -1.968,1.314 -4.274,1.722 -6.432,1.328 -0.53,1.74 -1.605,3.324 -3.235,4.413 -1.99,1.33 -4.349,1.641 -6.503,1.104 -0.409,1.828 -1.481,3.511 -3.163,4.635 -2.041,1.366 -4.499,1.577 -6.657,0.835 -0.25,1.927 -1.268,3.744 -3.009,4.907 -2.109,1.407 -4.695,1.49 -6.833,0.482 -0.016,2.041 -1.006,4.038 -2.831,5.257 -2.254,1.506 -5.109,1.37 -7.199,-0.103 0.404,2.196 -0.492,4.522 -2.467,5.842 -2.651,1.774 -6.235,1.058 -8.006,-1.593 -1.771,-2.651 -1.057,-6.232 1.592,-8.002 1.975,-1.322 4.468,-1.257 6.343,-0.044 -0.559,-2.496 0.408,-5.185 2.661,-6.691 1.824,-1.219 4.048,-1.371 5.938,-0.602 -0.112,-2.361 0.953,-4.721 3.063,-6.13 1.741,-1.165 3.807,-1.411 5.683,-0.905 0.143,-2.275 1.278,-4.465 3.319,-5.83 1.681,-1.122 3.647,-1.467 5.494,-1.145 0.328,-2.196 1.518,-4.255 3.51,-5.587 1.628,-1.088 3.503,-1.477 5.312,-1.3 0.464,-2.143 1.721,-4.119 3.688,-5.432 1.596,-1.067 3.415,-1.53 5.197,-1.461 0.576,-2.084 1.868,-3.979 3.805,-5.274 1.568,-1.046 3.335,-1.552 5.089,-1.57 0.669,-2.038 1.993,-3.88 3.916,-5.164 4.568,-3.052 10.748,-1.823 13.801,2.747 3.054,4.568 1.822,10.749 -2.746,13.801 m -141.09,72.829 c -0.655,0.656 -1.719,0.656 -2.373,0 -0.656,-0.655 -0.656,-1.719 0,-2.373 0.654,-0.657 1.718,-0.657 2.373,0 0.654,0.654 0.654,1.718 0,2.373 m 8.383,-10.758 c 0.902,0.902 0.902,2.363 0,3.266 -0.9,0.898 -2.362,0.898 -3.264,0 -0.899,-0.903 -0.899,-2.364 0,-3.266 0.902,-0.9 2.364,-0.9 3.264,0 m 33.531,-33.528 c 1.884,1.882 1.884,4.935 0,6.821 -1.885,1.883 -4.937,1.883 -6.823,0 -1.882,-1.886 -1.882,-4.939 0,-6.821 1.886,-1.887 4.938,-1.887 6.823,0 m -8.384,8.38 c 1.639,1.64 1.639,4.294 0,5.934 -1.637,1.636 -4.293,1.636 -5.93,0 -1.637,-1.64 -1.637,-4.294 0,-5.934 1.637,-1.636 4.293,-1.636 5.93,0 m -43.396,41.916 c 0.411,-0.411 1.073,-0.411 1.482,0 0.411,0.409 0.411,1.072 0,1.484 -0.409,0.408 -1.071,0.408 -1.482,0 -0.409,-0.412 -0.409,-1.075 0,-1.484 m 26.631,-25.149 c 1.148,1.147 1.148,3.005 0,4.153 -1.145,1.146 -3.005,1.146 -4.152,0 -1.147,-1.148 -1.147,-3.006 0,-4.153 1.147,-1.148 3.007,-1.148 4.152,0 m 8.383,-8.383 c 1.392,1.392 1.392,3.65 0,5.043 -1.391,1.392 -3.65,1.392 -5.042,0 -1.394,-1.393 -1.394,-3.651 0,-5.043 1.392,-1.392 3.651,-1.392 5.042,0 m 86.406,-74.446 c -0.419,1.671 -1.271,3.253 -2.575,4.559 -1.648,1.646 -3.732,2.582 -5.878,2.821 -0.349,1.712 -1.18,3.345 -2.507,4.671 -1.664,1.664 -3.806,2.524 -5.983,2.652 -0.254,1.772 -1.038,3.48 -2.401,4.841 -1.686,1.686 -3.901,2.524 -6.112,2.516 -0.15,1.814 -0.882,3.589 -2.269,4.977 -1.71,1.71 -4.002,2.447 -6.236,2.278 0.007,1.888 -0.709,3.776 -2.148,5.215 -1.763,1.764 -4.202,2.434 -6.487,2.027 0.211,1.95 -0.401,3.972 -1.897,5.466 -1.851,1.852 -4.508,2.369 -6.837,1.603 0.548,2.035 0.053,4.293 -1.543,5.891 -2.064,2.064 -5.238,2.33 -7.595,0.808 1.278,2.1 1.026,4.869 -0.789,6.685 -2.13,2.129 -5.583,2.129 -7.712,0 -2.13,-2.129 -2.13,-5.583 0,-7.712 1.813,-1.816 4.585,-2.068 6.685,-0.791 -1.522,-2.355 -1.256,-5.529 0.807,-7.593 1.598,-1.595 3.858,-2.093 5.892,-1.542 -0.766,-2.329 -0.248,-4.988 1.602,-6.84 1.495,-1.496 3.517,-2.106 5.466,-1.897 -0.405,-2.284 0.262,-4.721 2.027,-6.487 1.439,-1.439 3.329,-2.154 5.215,-2.147 -0.169,-2.235 0.568,-4.525 2.278,-6.235 1.388,-1.388 3.164,-2.122 4.977,-2.27 -0.007,-2.213 0.829,-4.426 2.516,-6.112 1.361,-1.364 3.07,-2.145 4.842,-2.402 0.129,-2.176 0.988,-4.318 2.651,-5.982 1.326,-1.327 2.961,-2.156 4.671,-2.507 0.238,-2.145 1.176,-4.23 2.822,-5.876 1.307,-1.306 2.888,-2.156 4.557,-2.576 0.329,-2.123 1.3,-4.169 2.936,-5.805 4.094,-4.093 10.735,-4.093 14.831,0 4.093,4.094 4.093,10.735 0,14.83 -1.636,1.635 -3.681,2.605 -5.806,2.934 m -86.14,43.822 c 2.33,1.557 2.955,4.705 1.401,7.032 -1.557,2.33 -4.705,2.955 -7.036,1.401 -2.327,-1.557 -2.954,-4.707 -1.397,-7.033 1.557,-2.33 4.705,-2.956 7.032,-1.4 m -39.624,59.302 c 0.507,0.34 0.641,1.023 0.304,1.529 -0.337,0.508 -1.024,0.643 -1.53,0.305 -0.506,-0.338 -0.64,-1.023 -0.303,-1.529 0.339,-0.507 1.021,-0.642 1.529,-0.305 m 13.207,-19.768 c 1.115,0.745 1.412,2.25 0.669,3.366 -0.743,1.112 -2.251,1.411 -3.362,0.669 -1.113,-0.747 -1.412,-2.251 -0.671,-3.363 0.747,-1.116 2.253,-1.414 3.364,-0.672 m 13.209,-19.765 c 1.722,1.147 2.185,3.478 1.033,5.195 -1.15,1.721 -3.477,2.186 -5.199,1.036 -1.721,-1.151 -2.182,-3.478 -1.033,-5.198 1.152,-1.722 3.479,-2.186 5.199,-1.033 m 70.608,-89.325 c -0.145,1.683 -0.702,3.355 -1.706,4.857 -1.294,1.937 -3.133,3.286 -5.173,4.004 -0.074,1.715 -0.593,3.431 -1.616,4.963 -1.299,1.945 -3.181,3.268 -5.261,3.895 0.01,1.745 -0.482,3.51 -1.525,5.071 -1.319,1.973 -3.284,3.254 -5.426,3.761 0.12,1.78 -0.293,3.607 -1.361,5.204 -1.337,2.004 -3.39,3.223 -5.593,3.59 0.262,1.818 -0.092,3.732 -1.192,5.379 -1.368,2.046 -3.549,3.195 -5.824,3.372 0.454,1.855 0.181,3.879 -0.966,5.592 -1.413,2.118 -3.777,3.201 -6.149,3.108 0.725,1.876 0.568,4.061 -0.636,5.86 -1.517,2.27 -4.232,3.238 -6.745,2.661 1.208,1.863 1.271,4.342 -0.041,6.307 -1.758,2.63 -5.32,3.337 -7.951,1.581 -2.629,-1.759 -3.339,-5.319 -1.581,-7.951 1.313,-1.964 3.625,-2.854 5.808,-2.45 -1.494,-2.1 -1.64,-4.982 -0.12,-7.253 1.203,-1.799 3.16,-2.779 5.17,-2.829 -0.995,-2.155 -0.899,-4.754 0.515,-6.872 1.146,-1.712 2.913,-2.74 4.8,-3.031 -0.707,-2.171 -0.477,-4.625 0.888,-6.671 1.102,-1.646 2.733,-2.705 4.513,-3.16 -0.505,-2.174 -0.163,-4.538 1.174,-6.539 1.066,-1.598 2.599,-2.679 4.288,-3.248 -0.349,-2.174 0.081,-4.481 1.399,-6.455 1.043,-1.559 2.484,-2.69 4.101,-3.348 -0.217,-2.16 0.286,-4.406 1.586,-6.353 1.023,-1.531 2.411,-2.667 3.966,-3.391 -0.116,-2.16 0.427,-4.374 1.722,-6.312 1.004,-1.501 2.333,-2.655 3.831,-3.432 -0.029,-2.157 0.568,-4.341 1.855,-6.267 3.381,-5.061 10.225,-6.423 15.288,-3.041 5.062,3.38 6.424,10.228 3.041,15.289 -1.286,1.927 -3.077,3.314 -5.079,4.109 m -77.212,99.207 c 1.417,0.948 1.799,2.864 0.852,4.28 -0.947,1.418 -2.863,1.799 -4.281,0.853 -1.416,-0.947 -1.798,-2.864 -0.853,-4.281 0.95,-1.417 2.866,-1.799 4.282,-0.852 m -15.656,20.253 c 0.543,-0.807 1.638,-1.027 2.448,-0.485 0.808,0.541 1.028,1.637 0.486,2.445 -0.54,0.811 -1.637,1.028 -2.445,0.488 -0.812,-0.542 -1.027,-1.636 -0.489,-2.448 m 28.864,-40.022 c 2.025,1.355 2.57,4.093 1.217,6.117 -1.353,2.027 -4.09,2.569 -6.115,1.218 -2.025,-1.355 -2.571,-4.093 -1.218,-6.117 1.354,-2.024 4.092,-2.569 6.116,-1.218 m -12.997,-18.655 c 1.817,0.75 2.681,2.837 1.927,4.653 -0.752,1.815 -2.835,2.678 -4.651,1.927 -1.818,-0.753 -2.682,-2.837 -1.927,-4.653 0.751,-1.817 2.834,-2.68 4.651,-1.927 m -13.421,32.4 c 1.106,0.458 1.631,1.726 1.172,2.834 -0.456,1.105 -1.727,1.63 -2.829,1.172 -1.108,-0.46 -1.632,-1.726 -1.173,-2.833 0.457,-1.104 1.726,-1.631 2.83,-1.173 m 4.474,-10.801 c 1.345,0.557 1.981,2.097 1.424,3.439 -0.555,1.344 -2.095,1.982 -3.436,1.426 -1.344,-0.556 -1.983,-2.097 -1.426,-3.44 0.556,-1.342 2.097,-1.982 3.438,-1.425 m 4.474,-10.798 c 1.579,0.652 2.33,2.463 1.674,4.045 -0.653,1.579 -2.463,2.33 -4.044,1.675 -1.579,-0.653 -2.33,-2.466 -1.675,-4.045 0.651,-1.58 2.463,-2.33 4.045,-1.675 m 13.42,-32.404 c 2.293,0.948 3.381,3.576 2.433,5.868 -0.952,2.291 -3.578,3.379 -5.869,2.429 -2.29,-0.948 -3.379,-3.574 -2.429,-5.865 0.949,-2.291 3.577,-3.379 5.865,-2.432 m -4.473,10.802 c 2.055,0.85 3.03,3.205 2.18,5.259 -0.852,2.056 -3.207,3.032 -5.263,2.178 -2.052,-0.849 -3.027,-3.205 -2.177,-5.259 0.851,-2.052 3.207,-3.028 5.26,-2.178 m 8.947,-21.602 c 2.529,1.05 3.73,3.946 2.682,6.473 -1.046,2.529 -3.945,3.731 -6.473,2.684 -2.53,-1.048 -3.73,-3.947 -2.682,-6.474 1.047,-2.53 3.945,-3.731 6.473,-2.683 m -40.856,98.634 c -0.393,-0.162 -0.581,-0.613 -0.419,-1.011 0.164,-0.395 0.616,-0.581 1.012,-0.418 0.393,0.164 0.584,0.615 0.419,1.012 -0.165,0.395 -0.615,0.581 -1.012,0.417 M 377.08,120.354 c 0.811,1.773 0.928,3.858 0.124,5.802 -0.936,2.256 -2.881,3.777 -5.093,4.29 0.974,1.754 1.195,3.907 0.367,5.903 -0.963,2.329 -3.079,3.81 -5.411,4.12 1.206,1.719 1.548,3.99 0.687,6.072 -1.017,2.452 -3.39,3.923 -5.89,3.914 1.538,1.635 2.076,4.072 1.163,6.283 -1.191,2.878 -4.407,4.28 -7.314,3.294 2.516,1.262 3.684,4.253 2.591,6.899 -1.147,2.763 -4.317,4.078 -7.084,2.93 -2.764,-1.143 -4.077,-4.314 -2.932,-7.078 1.095,-2.643 4.037,-3.932 6.71,-3.046 -2.758,-1.361 -4.034,-4.624 -2.842,-7.502 0.913,-2.209 3.018,-3.552 5.261,-3.622 -1.771,-1.761 -2.409,-4.478 -1.394,-6.927 0.862,-2.085 2.711,-3.45 4.779,-3.812 -1.431,-1.867 -1.878,-4.409 -0.911,-6.737 0.826,-1.998 2.502,-3.365 4.43,-3.917 -1.2,-1.926 -1.499,-4.377 -0.564,-6.635 0.806,-1.944 2.363,-3.333 4.189,-4.015 -1.023,-1.962 -1.235,-4.329 -0.322,-6.533 1.636,-3.952 6.163,-5.824 10.114,-4.188 3.949,1.635 5.825,6.164 4.19,10.113 -0.914,2.205 -2.737,3.728 -4.848,4.392 m -61.973,136.701 c 0.631,0.259 0.932,0.986 0.668,1.616 -0.26,0.634 -0.987,0.932 -1.617,0.671 -0.633,-0.262 -0.93,-0.987 -0.671,-1.619 0.263,-0.631 0.987,-0.932 1.62,-0.668 m 4.473,-10.802 c 0.868,0.359 1.282,1.356 0.921,2.226 -0.36,0.869 -1.356,1.282 -2.227,0.919 -0.868,-0.357 -1.279,-1.356 -0.92,-2.224 0.36,-0.869 1.358,-1.28 2.226,-0.921 m -4.703,-38.122 c 1.795,0.355 2.959,2.098 2.602,3.893 -0.358,1.793 -2.1,2.957 -3.893,2.601 -1.795,-0.356 -2.961,-2.099 -2.601,-3.895 0.356,-1.792 2.1,-2.957 3.892,-2.599 m 4.575,-22.995 c 2.332,0.464 3.845,2.73 3.381,5.062 -0.463,2.332 -2.729,3.844 -5.062,3.382 -2.329,-0.464 -3.845,-2.73 -3.382,-5.062 0.465,-2.332 2.729,-3.844 5.063,-3.382 m -16.982,81.132 c 0.088,-0.45 0.524,-0.74 0.972,-0.653 0.451,0.092 0.74,0.528 0.651,0.977 -0.088,0.447 -0.524,0.736 -0.974,0.65 -0.447,-0.092 -0.74,-0.527 -0.649,-0.974 m 7.832,-35.145 c 1.257,0.252 2.073,1.473 1.824,2.729 -0.25,1.255 -1.473,2.068 -2.728,1.82 -1.254,-0.25 -2.07,-1.47 -1.82,-2.725 0.251,-1.256 1.47,-2.073 2.724,-1.824 m 2.289,-11.495 c 1.523,0.304 2.513,1.787 2.213,3.31 -0.306,1.524 -1.788,2.513 -3.313,2.212 -1.522,-0.304 -2.512,-1.787 -2.211,-3.311 0.305,-1.524 1.786,-2.514 3.311,-2.211 m -5.821,36.05 c -0.142,0.716 -0.838,1.181 -1.557,1.039 -0.718,-0.143 -1.184,-0.838 -1.04,-1.557 0.14,-0.718 0.84,-1.183 1.556,-1.041 0.717,0.143 1.183,0.842 1.041,1.559 m 10.395,-59.045 c 2.062,0.412 3.401,2.415 2.99,4.478 -0.408,2.06 -2.414,3.402 -4.475,2.993 -2.064,-0.411 -3.405,-2.417 -2.993,-4.478 0.412,-2.063 2.416,-3.401 4.478,-2.993 m -7.718,48.132 c -0.197,0.985 -1.156,1.626 -2.14,1.43 -0.987,-0.197 -1.628,-1.156 -1.431,-2.142 0.195,-0.985 1.154,-1.625 2.141,-1.432 0.987,0.198 1.626,1.157 1.43,2.144 m 14.578,-82.623 c 2.869,0.569 4.733,3.36 4.163,6.229 -0.572,2.869 -3.36,4.733 -6.23,4.163 -2.869,-0.57 -4.733,-3.36 -4.163,-6.229 0.57,-2.869 3.361,-4.733 6.23,-4.163 m 16.542,-53.886 c 0.98,1.606 1.403,3.558 1.006,5.548 -0.468,2.346 -1.962,4.206 -3.906,5.274 1.126,1.578 1.637,3.589 1.229,5.64 -0.477,2.407 -2.098,4.286 -4.18,5.219 1.29,1.523 1.924,3.584 1.502,5.695 -0.495,2.492 -2.31,4.364 -4.565,5.099 1.536,1.44 2.328,3.6 1.888,5.815 -0.525,2.642 -2.64,4.548 -5.148,4.96 1.894,1.265 2.943,3.582 2.474,5.951 -0.626,3.14 -3.676,5.178 -6.817,4.554 -3.137,-0.627 -5.175,-3.676 -4.552,-6.814 0.472,-2.372 2.329,-4.111 4.564,-4.552 -2.162,-1.344 -3.387,-3.913 -2.86,-6.555 0.441,-2.213 2,-3.905 3.968,-4.646 -1.802,-1.545 -2.762,-3.967 -2.266,-6.46 0.42,-2.112 1.793,-3.773 3.569,-4.688 -1.566,-1.658 -2.344,-4.013 -1.867,-6.421 0.41,-2.051 1.652,-3.711 3.296,-4.739 -1.387,-1.731 -2.058,-4.021 -1.59,-6.365 0.395,-1.991 1.532,-3.632 3.051,-4.743 -1.254,-1.786 -1.809,-4.057 -1.35,-6.365 0.893,-4.485 5.252,-7.395 9.734,-6.504 4.484,0.891 7.395,5.248 6.505,9.733 -0.461,2.307 -1.843,4.193 -3.685,5.364 m -18.827,65.382 c 2.599,0.52 4.288,3.046 3.771,5.647 -0.519,2.601 -3.045,4.288 -5.646,3.772 -2.601,-0.517 -4.29,-3.046 -3.771,-5.644 0.514,-2.6 3.044,-4.292 5.646,-3.775 m -25.796,-2.849 c 2.824,0 5.112,2.287 5.112,5.111 0,2.823 -2.288,5.112 -5.112,5.112 -2.823,0 -5.11,-2.289 -5.11,-5.112 0,-2.824 2.287,-5.111 5.11,-5.111 m 0,95.8 c -0.488,0 -0.882,-0.396 -0.882,-0.882 0,-0.488 0.394,-0.883 0.882,-0.883 0.488,0 0.882,0.395 0.882,0.883 0,0.486 -0.394,0.882 -0.882,0.882 m 0,-84.047 c 2.533,0 4.581,2.05 4.581,4.584 0,2.532 -2.048,4.582 -4.581,4.582 -2.532,0 -4.582,-2.05 -4.582,-4.582 0,-2.534 2.05,-4.584 4.582,-4.584 m 0,11.756 c 2.24,0 4.054,1.813 4.054,4.054 0,2.238 -1.814,4.052 -4.054,4.052 -2.239,0 -4.053,-1.814 -4.053,-4.052 0,-2.241 1.814,-4.054 4.053,-4.054 m -1.411,60.182 c 0,-0.778 0.634,-1.411 1.411,-1.411 0.779,0 1.412,0.633 1.412,1.411 0,0.779 -0.633,1.413 -1.412,1.413 -0.777,0 -1.411,-0.634 -1.411,-1.413 m 1.411,-48.427 c 1.946,0 3.526,1.578 3.526,3.525 0,1.945 -1.58,3.523 -3.526,3.523 -1.945,0 -3.525,-1.578 -3.525,-3.523 0,-1.947 1.58,-3.525 3.525,-3.525 m 8.285,-97.507 c 0,2.362 -0.996,4.491 -2.584,6.001 1.264,1.38 2.055,3.203 2.055,5.224 0,2.407 -1.12,4.532 -2.841,5.954 1.415,1.32 2.313,3.186 2.313,5.27 0,2.472 -1.246,4.652 -3.142,5.955 1.578,1.225 2.614,3.118 2.614,5.272 0,2.582 -1.477,4.795 -3.616,5.914 1.836,1.068 3.085,3.033 3.085,5.311 0,2.797 -1.873,5.132 -4.423,5.889 2.255,0.739 3.895,2.836 3.895,5.338 0,3.118 -2.524,5.64 -5.641,5.64 -3.115,0 -5.64,-2.522 -5.64,-5.64 0,-2.502 1.639,-4.599 3.894,-5.338 -2.55,-0.756 -4.423,-3.092 -4.423,-5.889 0,-2.278 1.248,-4.243 3.085,-5.311 -2.138,-1.119 -3.614,-3.332 -3.614,-5.914 0,-2.154 1.034,-4.047 2.611,-5.272 -1.894,-1.303 -3.141,-3.483 -3.141,-5.955 0,-2.084 0.899,-3.95 2.313,-5.27 -1.72,-1.422 -2.841,-3.547 -2.841,-5.954 0,-2.021 0.791,-3.844 2.056,-5.224 -1.589,-1.51 -2.584,-3.639 -2.584,-6.001 0,-1.978 0.695,-3.792 1.852,-5.216 -1.474,-1.575 -2.382,-3.684 -2.382,-6.01 0,-4.869 3.946,-8.815 8.814,-8.815 4.868,0 8.815,3.946 8.815,8.815 0,2.326 -0.908,4.435 -2.382,6.01 1.156,1.424 1.852,3.238 1.852,5.216 m -8.285,121.017 c 1.363,0 2.467,1.104 2.467,2.465 0,1.363 -1.104,2.468 -2.467,2.468 -1.361,0 -2.466,-1.105 -2.466,-2.468 0,-1.361 1.105,-2.465 2.466,-2.465 m 0,11.753 c 1.073,0 1.938,0.866 1.938,1.938 0,1.072 -0.865,1.939 -1.938,1.939 -1.071,0 -1.941,-0.867 -1.941,-1.939 0,-1.072 0.87,-1.938 1.941,-1.938 m 0,-23.508 c 1.656,0 2.995,1.34 2.995,2.995 0,1.655 -1.339,2.995 -2.995,2.995 -1.655,0 -2.995,-1.34 -2.995,-2.995 0,-1.655 1.34,-2.995 2.995,-2.995 m -9.82,36.143 c 0.813,-0.16 1.599,0.365 1.76,1.176 0.162,0.812 -0.364,1.598 -1.177,1.76 -0.809,0.162 -1.598,-0.365 -1.755,-1.176 -0.161,-0.811 0.364,-1.598 1.172,-1.76 m 2.3,11.561 c 0.507,-0.102 1,0.226 1.102,0.734 0.098,0.508 -0.23,0.998 -0.735,1.1 -0.508,0.101 -1.001,-0.228 -1.102,-0.735 -0.098,-0.507 0.231,-0.998 0.735,-1.099 m -10.036,-50.465 c -2.027,0.404 -3.997,-0.912 -4.4,-2.94 -0.402,-2.025 0.913,-3.993 2.939,-4.396 2.024,-0.402 3.996,0.913 4.398,2.937 0.403,2.026 -0.912,3.998 -2.937,4.399 m 2.079,10.459 c -1.721,0.343 -3.396,-0.776 -3.738,-2.496 -0.342,-1.724 0.776,-3.396 2.497,-3.74 1.723,-0.341 3.395,0.777 3.739,2.499 0.342,1.72 -0.777,3.395 -2.498,3.737 m 2.081,10.461 c -1.418,0.283 -2.796,-0.639 -3.077,-2.059 -0.283,-1.416 0.637,-2.794 2.055,-3.077 1.418,-0.282 2.797,0.639 3.079,2.056 0.281,1.42 -0.64,2.798 -2.057,3.08 m 2.08,10.459 c -1.113,0.221 -2.194,-0.502 -2.417,-1.617 -0.223,-1.113 0.502,-2.196 1.614,-2.417 1.115,-0.223 2.199,0.501 2.42,1.616 0.222,1.112 -0.502,2.196 -1.617,2.418 m -12.484,-62.76 c -2.935,0.584 -5.792,-1.323 -6.374,-4.261 -0.526,-2.635 0.965,-5.192 3.401,-6.113 -2.906,0.138 -5.558,-1.844 -6.142,-4.785 -0.452,-2.275 0.465,-4.478 2.157,-5.829 -2.406,-0.58 -4.385,-2.487 -4.897,-5.073 -0.424,-2.127 0.252,-4.208 1.612,-5.691 -2.164,-0.861 -3.866,-2.756 -4.354,-5.211 -0.407,-2.049 0.131,-4.054 1.286,-5.608 -2.003,-1.033 -3.553,-2.909 -4.026,-5.291 -0.393,-1.978 0.032,-3.92 1.014,-5.512 -1.876,-1.159 -3.289,-3.057 -3.753,-5.392 -0.383,-1.932 -0.056,-3.838 0.799,-5.452 -1.768,-1.254 -3.083,-3.155 -3.539,-5.446 -0.377,-1.893 -0.107,-3.76 0.644,-5.388 -1.687,-1.329 -2.932,-3.24 -3.385,-5.512 -1.008,-5.066 2.281,-9.987 7.345,-10.995 5.065,-1.006 9.988,2.283 10.996,7.347 0.451,2.274 0.032,4.515 -1.019,6.39 1.317,1.215 2.28,2.837 2.658,4.728 0.455,2.295 -0.032,4.553 -1.187,6.388 1.409,1.164 2.441,2.8 2.826,4.732 0.465,2.333 -0.115,4.628 -1.404,6.416 1.516,1.094 2.652,2.725 3.045,4.703 0.474,2.382 -0.24,4.707 -1.695,6.429 1.663,0.995 2.926,2.642 3.334,4.693 0.488,2.452 -0.36,4.854 -2.029,6.476 1.827,0.85 3.246,2.514 3.669,4.643 0.514,2.583 -0.583,5.103 -2.583,6.56 2.081,0.6 3.771,2.287 4.226,4.56 0.583,2.939 -1.108,5.785 -3.846,6.771 2.602,-0.082 4.958,1.711 5.483,4.347 0.584,2.938 -1.323,5.793 -4.262,6.376 m 4.163,20.921 c -2.329,0.463 -4.596,-1.05 -5.059,-3.38 -0.463,-2.329 1.05,-4.593 3.379,-5.057 2.33,-0.462 4.594,1.05 5.061,3.38 0.462,2.328 -1.052,4.593 -3.381,5.057 m -2.082,-10.461 c -2.632,0.525 -5.191,-1.185 -5.718,-3.818 -0.523,-2.634 1.187,-5.194 3.82,-5.718 2.634,-0.524 5.194,1.187 5.718,3.821 0.523,2.632 -1.187,5.191 -3.82,5.715 m 0.745,52.866 c 0.462,1.112 -0.069,2.385 -1.177,2.842 -1.109,0.461 -2.384,-0.065 -2.841,-1.174 -0.46,-1.111 0.066,-2.382 1.176,-2.842 1.11,-0.461 2.382,0.068 2.842,1.174 m -26.234,-74.186 c 1.046,2.521 0.32,5.319 -1.58,7.063 2.26,-0.011 4.409,1.319 5.326,3.535 1.212,2.926 -0.178,6.282 -3.105,7.492 -2.924,1.212 -6.276,-0.177 -7.489,-3.104 -0.919,-2.217 -0.338,-4.675 1.268,-6.266 -2.578,0.108 -5.067,-1.354 -6.112,-3.877 -0.844,-2.039 -0.538,-4.265 0.611,-5.964 -2.353,-0.326 -4.481,-1.827 -5.457,-4.181 -0.804,-1.941 -0.632,-4.025 0.249,-5.765 -2.214,-0.566 -4.15,-2.107 -5.091,-4.38 -0.773,-1.866 -0.726,-3.863 -0.043,-5.608 -2.096,-0.738 -3.885,-2.321 -4.8,-4.534 -0.753,-1.819 -0.796,-3.752 -0.257,-5.494 -2.004,-0.866 -3.687,-2.477 -4.588,-4.651 -0.735,-1.778 -0.83,-3.658 -0.403,-5.394 -1.935,-0.964 -3.549,-2.597 -4.443,-4.751 -0.722,-1.746 -0.869,-3.584 -0.535,-5.31 -1.871,-1.046 -3.421,-2.698 -4.305,-4.834 -2.091,-5.045 0.304,-10.828 5.351,-12.917 5.042,-2.089 10.825,0.308 12.913,5.351 0.884,2.135 0.957,4.399 0.374,6.464 1.456,0.982 2.652,2.386 3.375,4.133 0.892,2.153 0.906,4.449 0.22,6.499 1.529,0.926 2.792,2.322 3.529,4.099 0.9,2.176 0.848,4.505 0.044,6.534 1.613,0.852 2.95,2.249 3.703,4.066 0.917,2.213 0.772,4.597 -0.187,6.6 1.716,0.75 3.16,2.13 3.933,3.997 0.943,2.274 0.663,4.733 -0.502,6.698 1.852,0.608 3.448,1.959 4.252,3.9 0.974,2.352 0.533,4.918 -0.9,6.813 2.016,0.39 3.805,1.749 4.649,3.786 m 22.487,63.589 c 0.584,1.414 -0.087,3.034 -1.498,3.618 -1.412,0.584 -3.032,-0.085 -3.619,-1.501 -0.584,-1.409 0.089,-3.03 1.499,-3.614 1.412,-0.586 3.032,0.085 3.618,1.497 m 5.427,20.341 c 0.809,-0.335 1.734,0.049 2.07,0.855 0.333,0.809 -0.05,1.735 -0.86,2.069 -0.804,0.331 -1.73,-0.049 -2.065,-0.857 -0.335,-0.807 0.049,-1.733 0.855,-2.067 m 4.525,10.918 c 0.505,-0.207 1.082,0.031 1.291,0.535 0.207,0.507 -0.03,1.086 -0.535,1.293 -0.504,0.209 -1.081,-0.029 -1.291,-0.534 -0.21,-0.504 0.03,-1.082 0.535,-1.294 m -13.701,-41.857 c 0.71,1.715 -0.104,3.683 -1.819,4.392 -1.713,0.71 -3.682,-0.104 -4.392,-1.819 -0.709,-1.716 0.105,-3.681 1.819,-4.391 1.713,-0.712 3.682,0.104 4.392,1.818 m -3.747,-10.599 c 0.834,2.018 -0.123,4.333 -2.143,5.167 -2.017,0.836 -4.33,-0.121 -5.163,-2.137 -0.839,-2.021 0.121,-4.334 2.138,-5.169 2.016,-0.833 4.33,0.124 5.168,2.139 m -3.748,-10.597 c 0.959,2.322 -0.143,4.981 -2.462,5.941 -2.319,0.962 -4.983,-0.141 -5.942,-2.461 -0.959,-2.319 0.143,-4.979 2.462,-5.942 2.318,-0.959 4.982,0.143 5.942,2.462 m -10.465,-13.38 c 2.623,-1.086 5.63,0.159 6.715,2.781 1.088,2.622 -0.158,5.633 -2.779,6.717 -2.626,1.086 -5.632,-0.158 -6.72,-2.781 -1.085,-2.624 0.159,-5.629 2.784,-6.717 m -14.547,20.835 c 2.201,-1.473 5.179,-0.881 6.648,1.322 1.473,2.202 0.881,5.177 -1.321,6.65 -2.203,1.469 -5.179,0.875 -6.648,-1.325 -1.475,-2.2 -0.883,-5.177 1.321,-6.647 m 12.366,11.002 c 1.28,1.914 0.765,4.504 -1.151,5.783 -1.913,1.277 -4.5,0.764 -5.783,-1.15 -1.277,-1.914 -0.761,-4.503 1.151,-5.783 1.916,-1.277 4.506,-0.762 5.783,1.15 m 13.972,28.413 c 1.052,-0.704 2.474,-0.422 3.179,0.631 0.702,1.054 0.419,2.476 -0.634,3.181 -1.051,0.702 -2.474,0.42 -3.181,-0.633 -0.702,-1.052 -0.417,-2.478 0.636,-3.179 m 14.325,21.44 c -0.48,0.318 -1.126,0.19 -1.447,-0.288 -0.317,-0.478 -0.189,-1.125 0.289,-1.446 0.478,-0.318 1.126,-0.19 1.446,0.288 0.318,0.479 0.189,1.126 -0.288,1.446 m -20.912,-31.295 c 1.341,-0.896 3.153,-0.534 4.048,0.805 0.894,1.341 0.535,3.151 -0.805,4.048 -1.34,0.894 -3.151,0.535 -4.045,-0.805 -0.899,-1.34 -0.537,-3.151 0.802,-4.048 m -47.402,-86.327 c 1.327,1.984 1.708,4.323 1.258,6.489 1.758,0.491 3.364,1.555 4.456,3.193 1.348,2.012 1.614,4.41 0.997,6.571 1.861,0.349 3.586,1.411 4.72,3.111 1.391,2.077 1.566,4.609 0.703,6.767 1.962,0.158 3.837,1.149 5.014,2.912 1.461,2.187 1.436,4.911 0.203,7.043 2.114,-0.171 4.255,0.752 5.514,2.64 1.641,2.451 1.24,5.664 -0.788,7.66 2.326,-0.929 5.06,-0.145 6.505,2.02 1.665,2.49 0.993,5.854 -1.496,7.519 -2.488,1.663 -5.854,0.991 -7.514,-1.497 -1.445,-2.164 -1.124,-4.991 0.621,-6.782 -2.619,1.111 -5.738,0.249 -7.381,-2.205 -1.259,-1.885 -1.292,-4.214 -0.327,-6.103 -2.44,0.323 -4.967,-0.697 -6.426,-2.884 -1.179,-1.762 -1.378,-3.874 -0.773,-5.747 -2.324,-0.027 -4.596,-1.16 -5.985,-3.239 -1.134,-1.698 -1.454,-3.698 -1.066,-5.551 -2.231,-0.256 -4.343,-1.421 -5.689,-3.435 -1.094,-1.636 -1.464,-3.531 -1.244,-5.339 -2.174,-0.414 -4.186,-1.661 -5.512,-3.645 -1.07,-1.599 -1.519,-3.43 -1.42,-5.212 -2.108,-0.544 -4.034,-1.825 -5.338,-3.775 -1.045,-1.567 -1.544,-3.338 -1.545,-5.089 -2.058,-0.644 -3.92,-1.966 -5.211,-3.898 -1.029,-1.539 -1.552,-3.263 -1.631,-4.987 -2.023,-0.728 -3.84,-2.075 -5.126,-4.001 -3.2,-4.784 -1.913,-11.258 2.873,-14.457 4.788,-3.194 11.258,-1.909 14.457,2.876 1.286,1.926 1.835,4.121 1.735,6.269 1.561,0.733 2.953,1.877 3.982,3.415 1.292,1.931 1.8,4.156 1.608,6.305 1.618,0.67 3.063,1.81 4.109,3.373 1.305,1.954 1.751,4.224 1.445,6.378 1.685,0.592 3.203,1.706 4.272,3.305 m 40.817,76.475 c 1.628,-1.089 3.832,-0.65 4.917,0.974 1.085,1.629 0.649,3.828 -0.976,4.917 -1.628,1.085 -3.831,0.65 -4.917,-0.977 -1.085,-1.629 -0.649,-3.83 0.976,-4.914 m 19.755,29.56 c 0.765,-0.512 1.8,-0.307 2.313,0.461 0.51,0.764 0.304,1.801 -0.46,2.313 -0.768,0.509 -1.801,0.304 -2.314,-0.461 -0.512,-0.764 -0.306,-1.8 0.461,-2.313 m -42.601,-35.793 c 1.971,1.967 1.971,5.16 0,7.128 -1.969,1.969 -5.159,1.969 -7.126,0 -1.967,-1.971 -1.967,-5.161 0,-7.128 1.967,-1.97 5.157,-1.97 7.126,0 m 29.895,33.609 c 0.94,0.942 0.94,2.469 0,3.409 -0.943,0.942 -2.469,0.942 -3.409,0 -0.943,-0.94 -0.943,-2.467 0,-3.409 0.94,-0.941 2.466,-0.941 3.409,0 m -14.948,-16.804 c 1.455,1.453 1.455,3.812 0,5.268 -1.455,1.457 -3.814,1.457 -5.267,0 -1.458,-1.456 -1.458,-3.815 0,-5.268 1.453,-1.455 3.812,-1.455 5.267,0 m -64.473,-69.694 c 1.718,0.321 3.36,1.142 4.688,2.47 1.681,1.681 2.534,3.861 2.605,6.063 1.779,0.219 3.505,0.975 4.871,2.341 1.703,1.704 2.49,3.96 2.409,6.191 1.841,0.087 3.658,0.807 5.063,2.213 1.743,1.742 2.44,4.113 2.154,6.384 1.913,-0.1 3.858,0.557 5.318,2.019 1.805,1.804 2.396,4.341 1.822,6.652 1.987,-0.369 4.116,0.213 5.654,1.751 1.944,1.943 2.341,4.827 1.238,7.181 2.07,-0.868 4.546,-0.466 6.232,1.221 2.226,2.226 2.226,5.832 0,8.057 -2.225,2.226 -5.831,2.226 -8.057,0 -1.686,-1.686 -2.089,-4.163 -1.219,-6.233 -2.355,1.103 -5.238,0.705 -7.184,-1.241 -1.538,-1.534 -2.118,-3.663 -1.751,-5.65 -2.309,0.573 -4.847,-0.016 -6.652,-1.82 -1.462,-1.463 -2.119,-3.406 -2.02,-5.32 -2.271,0.285 -4.64,-0.412 -6.382,-2.154 -1.406,-1.406 -2.126,-3.223 -2.213,-5.062 -2.232,0.08 -4.488,-0.708 -6.191,-2.412 -1.364,-1.365 -2.121,-3.09 -2.34,-4.868 -2.201,-0.071 -4.383,-0.923 -6.062,-2.604 -1.329,-1.33 -2.15,-2.973 -2.472,-4.691 -2.165,-0.2 -4.274,-1.126 -5.931,-2.782 -1.306,-1.307 -2.148,-2.894 -2.548,-4.568 -2.142,-0.298 -4.209,-1.259 -5.855,-2.905 -1.282,-1.282 -2.151,-2.819 -2.616,-4.445 -2.119,-0.383 -4.148,-1.388 -5.786,-3.028 -4.28,-4.28 -4.28,-11.216 0,-15.498 4.278,-4.278 11.217,-4.278 15.496,0 1.638,1.64 2.644,3.667 3.028,5.787 1.628,0.464 3.164,1.333 4.445,2.616 1.647,1.646 2.608,3.713 2.906,5.856 1.672,0.399 3.261,1.243 4.568,2.547 1.656,1.657 2.582,3.769 2.782,5.932 m 94.366,103.303 c 0.428,0.428 0.428,1.124 0,1.552 -0.427,0.428 -1.124,0.428 -1.551,0 -0.428,-0.428 -0.428,-1.124 0,-1.552 0.427,-0.427 1.124,-0.427 1.551,0 m -7.474,-8.402 c 0.685,0.686 0.685,1.795 0,2.48 -0.685,0.686 -1.795,0.686 -2.478,0 -0.685,-0.685 -0.685,-1.794 0,-2.48 0.683,-0.682 1.793,-0.682 2.478,0 m -29.89,-33.609 c 1.711,1.709 1.711,4.486 0,6.197 -1.712,1.711 -4.489,1.711 -6.199,0 -1.712,-1.711 -1.712,-4.488 0,-6.197 1.71,-1.714 4.487,-1.714 6.199,0 m 14.946,16.805 c 1.197,1.199 1.197,3.141 0,4.339 -1.198,1.197 -3.144,1.197 -4.34,0 -1.2,-1.198 -1.2,-3.14 0,-4.339 1.196,-1.2 3.142,-1.2 4.34,0 m -0.765,17.804 c 0.778,0.518 0.986,1.567 0.466,2.344 -0.516,0.775 -1.565,0.983 -2.34,0.465 -0.776,-0.518 -0.988,-1.567 -0.467,-2.344 0.518,-0.775 1.568,-0.983 2.341,-0.465 m 18.368,14.304 c -0.236,0.352 -0.713,0.446 -1.064,0.21 -0.35,-0.235 -0.45,-0.711 -0.213,-1.063 0.235,-0.353 0.713,-0.446 1.066,-0.211 0.354,0.236 0.446,0.709 0.211,1.064 m -29.833,-17.349 c -0.989,-0.66 -1.252,-1.995 -0.595,-2.982 0.661,-0.987 1.996,-1.252 2.982,-0.592 0.987,0.658 1.254,1.993 0.592,2.979 -0.658,0.988 -1.993,1.253 -2.979,0.595 m -6.689,-10.195 c 1.197,0.801 1.521,2.424 0.718,3.62 -0.8,1.198 -2.42,1.52 -3.618,0.721 -1.201,-0.8 -1.524,-2.423 -0.721,-3.621 0.8,-1.198 2.42,-1.521 3.621,-0.72 m 27.571,21.563 c -0.375,0.566 -1.14,0.716 -1.703,0.337 -0.564,-0.376 -0.715,-1.137 -0.339,-1.701 0.378,-0.564 1.139,-0.715 1.704,-0.34 0.562,0.378 0.716,1.139 0.338,1.704 m -49.651,-28.93 c -1.622,-1.082 -2.057,-3.276 -0.975,-4.898 1.085,-1.623 3.277,-2.058 4.897,-0.975 1.623,1.084 2.059,3.277 0.973,4.9 -1.08,1.62 -3.274,2.055 -4.895,0.973 m -32.389,-32.352 c 2.467,1.65 3.13,4.986 1.482,7.456 -1.649,2.466 -4.985,3.129 -7.453,1.481 -2.468,-1.649 -3.133,-4.986 -1.482,-7.454 1.648,-2.465 4.986,-3.132 7.453,-1.483 m 27.234,19.859 c 1.834,1.226 2.327,3.705 1.099,5.537 -1.222,1.833 -3.7,2.327 -5.536,1.102 -1.83,-1.227 -2.324,-3.703 -1.101,-5.536 1.228,-1.834 3.705,-2.327 5.538,-1.103 m -9.079,-6.619 c 2.044,1.365 2.595,4.131 1.23,6.176 -1.368,2.045 -4.13,2.596 -6.174,1.229 -2.045,-1.366 -2.599,-4.13 -1.231,-6.176 1.367,-2.045 4.13,-2.595 6.175,-1.229 m -51.271,-33.863 c 1.911,-0.636 4.078,-0.441 5.882,0.765 2.108,1.409 3.137,3.796 2.95,6.157 1.922,-0.886 4.238,-0.8 6.128,0.462 2.222,1.484 3.179,4.133 2.635,6.593 1.899,-1.244 4.436,-1.313 6.442,0.028 2.68,1.789 3.4,5.413 1.611,8.09 -1.791,2.681 -5.415,3.402 -8.094,1.612 -2.006,-1.342 -2.915,-3.71 -2.49,-5.942 -2.065,1.445 -4.878,1.573 -7.1,0.088 -1.889,-1.262 -2.854,-3.37 -2.772,-5.484 -2.108,1.076 -4.708,1.037 -6.817,-0.37 -1.805,-1.205 -2.814,-3.132 -2.958,-5.141 -2.122,0.826 -4.595,0.648 -6.631,-0.714 -1.757,-1.173 -2.809,-2.987 -3.102,-4.924 -2.124,0.644 -4.499,0.401 -6.488,-0.929 -3.526,-2.355 -4.474,-7.123 -2.118,-10.648 2.355,-3.526 7.123,-4.473 10.648,-2.118 1.988,1.33 3.122,3.432 3.34,5.639 1.901,-0.47 3.981,-0.192 5.737,0.982 2.037,1.359 3.148,3.578 3.197,5.854 m 42.193,27.242 c 2.258,1.509 2.865,4.561 1.356,6.817 -1.506,2.254 -4.557,2.86 -6.815,1.354 -2.256,-1.509 -2.862,-4.559 -1.354,-6.813 1.507,-2.257 4.558,-2.865 6.813,-1.358 m 36.314,26.481 c 1.409,0.943 1.788,2.847 0.844,4.259 -0.939,1.409 -2.848,1.789 -4.259,0.848 -1.408,-0.943 -1.786,-2.852 -0.843,-4.261 0.942,-1.411 2.847,-1.79 4.258,-0.846 m 22.413,32.337 c -0.38,0.924 -1.438,1.36 -2.359,0.979 -0.924,-0.382 -1.362,-1.439 -0.978,-2.359 0.383,-0.924 1.439,-1.364 2.362,-0.98 0.921,0.382 1.359,1.44 0.975,2.36 m -65.721,-22.066 c -2.428,-1.008 -3.581,-3.792 -2.576,-6.224 1.008,-2.429 3.793,-3.585 6.224,-2.579 2.431,1.01 3.585,3.795 2.579,6.224 -1.009,2.433 -3.794,3.586 -6.227,2.579 m 13.829,-4.05 c 2.182,0.903 3.215,3.402 2.313,5.58 -0.903,2.179 -3.4,3.212 -5.58,2.311 -2.181,-0.901 -3.214,-3.401 -2.312,-5.579 0.904,-2.18 3.404,-3.213 5.579,-2.312 m 26.903,15.765 c 0.587,-1.425 2.22,-2.103 3.645,-1.51 1.426,0.588 2.105,2.223 1.513,3.648 -0.592,1.424 -2.226,2.102 -3.648,1.509 -1.425,-0.588 -2.102,-2.221 -1.51,-3.647 m -93.785,-44.136 c 1.767,-0.815 3.847,-0.94 5.788,-0.138 2.272,0.944 3.8,2.912 4.288,5.147 1.743,-0.992 3.898,-1.221 5.895,-0.395 2.36,0.978 3.837,3.149 4.088,5.522 1.704,-1.26 3.993,-1.639 6.093,-0.769 2.518,1.042 3.965,3.544 3.819,6.12 1.59,-1.68 4.1,-2.308 6.364,-1.371 2.934,1.215 4.326,4.58 3.112,7.514 -1.216,2.932 -4.579,4.324 -7.512,3.109 -2.264,-0.936 -3.595,-3.155 -3.531,-5.468 -1.719,1.924 -4.51,2.672 -7.029,1.63 -2.101,-0.871 -3.45,-2.759 -3.763,-4.855 -1.857,1.501 -4.437,1.99 -6.797,1.012 -1.996,-0.826 -3.357,-2.512 -3.89,-4.445 -1.924,1.235 -4.398,1.544 -6.67,0.605 -1.94,-0.803 -3.324,-2.361 -3.996,-4.189 -1.965,1.044 -4.347,1.267 -6.564,0.35 -1.881,-0.78 -3.271,-2.228 -4.053,-3.947 -1.992,0.894 -4.33,1.006 -6.507,0.103 -4.19,-1.733 -6.179,-6.538 -4.443,-10.728 1.734,-4.191 6.538,-6.181 10.729,-4.446 2.177,0.902 3.752,2.634 4.527,4.675 1.768,-0.663 3.775,-0.703 5.657,0.076 2.215,0.918 3.744,2.76 4.395,4.888 m 39.651,21.714 c 1.111,-2.684 4.185,-3.957 6.869,-2.844 2.68,1.11 3.954,4.184 2.844,6.866 -1.113,2.683 -4.188,3.957 -6.869,2.843 -2.682,-1.109 -3.955,-4.184 -2.844,-6.865 m 67.964,25.661 c 1.172,0.488 1.732,1.831 1.243,3.003 -0.487,1.176 -1.83,1.733 -3.003,1.248 -1.172,-0.488 -1.732,-1.834 -1.244,-3.007 0.485,-1.173 1.83,-1.729 3.004,-1.244 m -30.548,-14.255 c 1.926,0.801 2.842,3.01 2.044,4.938 -0.8,1.928 -3.008,2.844 -4.939,2.043 -1.924,-0.797 -2.838,-3.006 -2.044,-4.936 0.8,-1.927 3.009,-2.842 4.939,-2.045 m 50.914,23.758 c 0.671,0.278 0.989,1.045 0.709,1.717 -0.276,0.67 -1.046,0.99 -1.715,0.711 -0.672,-0.277 -0.99,-1.047 -0.713,-1.716 0.28,-0.672 1.047,-0.989 1.719,-0.712 m -38.953,-14.713 c -0.697,1.678 -2.616,2.473 -4.293,1.78 -1.676,-0.694 -2.472,-2.619 -1.779,-4.293 0.693,-1.677 2.618,-2.473 4.293,-1.78 1.677,0.694 2.472,2.618 1.779,4.293 m 48.507,20.983 c -0.419,-0.176 -0.617,-0.656 -0.448,-1.075 0.176,-0.419 0.66,-0.617 1.076,-0.443 0.419,0.172 0.619,0.654 0.444,1.072 -0.173,0.418 -0.653,0.618 -1.072,0.446 m -11.465,4.379 c -0.148,0.757 -0.888,1.25 -1.644,1.1 -0.76,-0.151 -1.25,-0.889 -1.102,-1.647 0.154,-0.756 0.888,-1.25 1.647,-1.1 0.76,0.15 1.253,0.889 1.099,1.647 m -22.915,-7.057 c 1.33,0.264 2.191,1.555 1.928,2.881 -0.267,1.326 -1.558,2.189 -2.885,1.924 -1.326,-0.263 -2.186,-1.554 -1.923,-2.881 0.263,-1.326 1.553,-2.187 2.88,-1.924 M 101.034,258.066 c 1.621,-0.869 3.543,-1.202 5.488,-0.814 2.321,0.461 4.21,1.861 5.37,3.724 1.599,-0.988 3.55,-1.415 5.538,-1.019 2.367,0.469 4.232,1.996 5.278,3.975 1.565,-1.149 3.575,-1.679 5.63,-1.271 2.43,0.485 4.327,2.142 5.218,4.267 1.503,-1.328 3.57,-1.984 5.689,-1.561 2.543,0.504 4.429,2.407 5.083,4.743 1.393,-1.622 3.578,-2.486 5.824,-2.042 2.772,0.553 4.706,2.899 4.891,5.589 1.129,-2.13 3.534,-3.377 6.018,-2.884 3.032,0.607 5.002,3.552 4.398,6.586 -0.603,3.032 -3.55,5.002 -6.583,4.399 -2.484,-0.492 -4.229,-2.567 -4.456,-4.965 -1.202,2.413 -3.886,3.84 -6.656,3.291 -2.248,-0.447 -3.936,-2.083 -4.602,-4.115 -1.498,1.908 -3.969,2.945 -6.511,2.437 -2.118,-0.42 -3.779,-1.816 -4.658,-3.619 -1.637,1.622 -4.024,2.428 -6.455,1.945 -2.055,-0.408 -3.708,-1.669 -4.714,-3.329 -1.724,1.429 -4.031,2.126 -6.398,1.655 -1.988,-0.396 -3.628,-1.538 -4.726,-3.062 -1.784,1.275 -4.066,1.848 -6.387,1.387 -1.945,-0.388 -3.592,-1.432 -4.757,-2.856 -1.827,1.147 -4.073,1.633 -6.355,1.178 -4.738,-0.939 -7.817,-5.546 -6.874,-10.285 0.943,-4.738 5.548,-7.816 10.287,-6.873 2.282,0.453 4.173,1.762 5.42,3.519 m 103.659,23.529 c 1.894,0.378 3.125,2.219 2.747,4.116 -0.376,1.893 -2.221,3.125 -4.115,2.748 -1.893,-0.379 -3.126,-2.22 -2.748,-4.116 0.378,-1.894 2.219,-3.124 4.116,-2.748 m 10.906,2.704 c 1.611,0.32 2.657,1.886 2.338,3.498 -0.321,1.61 -1.887,2.658 -3.499,2.338 -1.61,-0.321 -2.658,-1.887 -2.336,-3.498 0.319,-1.612 1.888,-2.658 3.497,-2.338 m 44.319,11.848 c -0.093,0.474 -0.554,0.781 -1.03,0.688 -0.472,-0.093 -0.782,-0.554 -0.686,-1.028 0.093,-0.474 0.554,-0.784 1.028,-0.688 0.475,0.094 0.781,0.555 0.688,1.028 m -62.973,-12.524 c -0.433,2.178 -2.551,3.595 -4.732,3.162 -2.179,-0.435 -3.596,-2.555 -3.163,-4.734 0.435,-2.178 2.554,-3.596 4.735,-3.162 2.176,0.433 3.596,2.554 3.16,4.734 m 39.719,9.862 c -1.044,-0.208 -1.719,-1.221 -1.511,-2.262 0.206,-1.045 1.218,-1.723 2.261,-1.513 1.044,0.208 1.719,1.219 1.513,2.263 -0.208,1.041 -1.22,1.718 -2.263,1.512 m -66.676,-10.051 c -2.749,-0.545 -4.533,-3.219 -3.986,-5.967 0.547,-2.749 3.218,-4.533 5.968,-3.988 2.746,0.548 4.532,3.22 3.985,5.966 -0.548,2.75 -3.218,4.536 -5.967,3.989 m 16.464,-1.9 c -0.492,2.464 -2.887,4.064 -5.35,3.573 -2.467,-0.488 -4.068,-2.882 -3.575,-5.35 0.489,-2.463 2.884,-4.064 5.351,-3.573 2.46,0.491 4.061,2.886 3.574,5.35 m 0.259,21.78 c 0,-2.357 1.914,-4.27 4.271,-4.27 2.359,0 4.273,1.913 4.273,4.27 0,2.359 -1.914,4.27 -4.273,4.27 -2.36,0 -4.271,-1.913 -4.271,-4.27 m 49.174,-2.043 c 1.126,0 2.042,0.914 2.042,2.043 0,1.126 -0.913,2.042 -2.042,2.042 -1.126,0.003 -2.042,-0.916 -2.042,-2.042 0,-1.129 0.913,-2.043 2.042,-2.043 m 21.523,2.043 c 0,-0.512 0.417,-0.929 0.925,-0.929 0.516,0 0.933,0.417 0.933,0.929 0,0.512 -0.417,0.929 -0.926,0.929 -0.515,-0.003 -0.932,-0.417 -0.932,-0.929 m -32.746,-2.601 c 1.433,0.002 2.598,1.165 2.598,2.601 -0.002,1.436 -1.167,2.598 -2.601,2.598 -1.435,0.003 -2.601,-1.162 -2.601,-2.598 0,-1.436 1.162,-2.601 2.604,-2.601 m -11.232,-0.556 c 1.746,0 3.16,1.411 3.158,3.157 0.002,1.743 -1.412,3.157 -3.158,3.157 -1.743,0 -3.152,-1.414 -3.154,-3.157 0.002,-1.746 1.411,-3.157 3.154,-3.157 m -14.936,3.157 c 0,-2.05 1.663,-3.716 3.713,-3.714 2.053,0 3.714,1.661 3.714,3.714 0,2.05 -1.664,3.716 -3.711,3.714 -2.055,0 -3.716,-1.661 -3.716,-3.714 m -23.564,0 c 0,-2.667 2.159,-4.827 4.829,-4.83 2.664,0 4.825,2.163 4.825,4.83 0,2.666 -2.161,4.829 -4.828,4.829 -2.667,-0.002 -4.826,-2.163 -4.826,-4.829 m 72.18,-1.485 c 0.82,0 1.486,0.663 1.483,1.485 0,0.82 -0.663,1.485 -1.483,1.488 -0.819,-0.003 -1.485,-0.668 -1.482,-1.488 0,-0.822 0.663,-1.485 1.482,-1.485 M 96.01,296.29 c 1.447,-1.066 3.229,-1.704 5.165,-1.702 2.34,-0.002 4.46,0.924 6.027,2.422 1.412,-1.166 3.223,-1.867 5.199,-1.866 2.379,0 4.515,1.024 6.009,2.649 1.363,-1.289 3.192,-2.093 5.215,-2.093 2.437,0 4.58,1.165 5.974,2.945 1.292,-1.454 3.156,-2.388 5.255,-2.388 2.508,0 4.695,1.317 5.946,3.288 1.179,-1.647 3.098,-2.731 5.279,-2.732 2.646,0 4.915,1.59 5.927,3.86 0.976,-1.949 2.971,-3.302 5.298,-3.304 3.112,0.004 5.634,2.402 5.891,5.444 0.258,-2.735 2.533,-4.885 5.334,-4.885 2.975,0 5.387,2.413 5.387,5.386 0,2.976 -2.412,5.385 -5.386,5.385 -2.803,0 -5.077,-2.148 -5.335,-4.882 -0.257,3.043 -2.779,5.438 -5.892,5.438 -2.326,0.002 -4.321,-1.349 -5.297,-3.3 -1.013,2.271 -3.28,3.858 -5.929,3.86 -2.181,0 -4.099,-1.084 -5.277,-2.732 -1.252,1.971 -3.44,3.288 -5.946,3.288 -2.098,0 -3.962,-0.933 -5.255,-2.388 -1.393,1.78 -3.537,2.944 -5.973,2.944 -2.024,0 -3.852,-0.803 -5.215,-2.092 -1.494,1.625 -3.63,2.65 -6.01,2.651 -1.975,-10e-4 -3.787,-0.702 -5.199,-1.869 -1.568,1.499 -3.688,2.425 -6.027,2.426 -1.936,-0.001 -3.717,-0.639 -5.164,-1.706 -1.628,1.407 -3.743,2.263 -6.063,2.263 -5.125,-0.003 -9.283,-4.159 -9.283,-9.286 -0.001,-5.128 4.156,-9.283 9.285,-9.286 2.319,0 4.433,0.857 6.06,2.262 m 111.851,24.545 c 0.423,2.126 -0.959,4.195 -3.085,4.618 -2.127,0.425 -4.197,-0.959 -4.621,-3.085 -0.423,-2.128 0.959,-4.197 3.086,-4.619 2.13,-0.424 4.199,0.957 4.62,3.086 m 17.632,-6.312 c 1.487,-0.296 2.934,0.671 3.234,2.163 0.295,1.488 -0.672,2.935 -2.163,3.231 -1.489,0.296 -2.936,-0.669 -3.234,-2.16 -0.296,-1.487 0.674,-2.938 2.163,-3.234 m 22.862,-0.142 c -0.853,0.17 -1.677,-0.381 -1.847,-1.234 -0.167,-0.852 0.384,-1.676 1.236,-1.847 0.849,-0.17 1.677,0.384 1.847,1.234 0.17,0.852 -0.383,1.68 -1.236,1.847 m -30.062,4.379 c 0.361,1.809 -0.815,3.566 -2.624,3.926 -1.808,0.36 -3.565,-0.814 -3.927,-2.623 -0.356,-1.81 0.817,-3.567 2.626,-3.928 1.809,-0.359 3.566,0.816 3.925,2.625 m 39.803,-7.918 c -0.108,-0.531 0.237,-1.049 0.773,-1.154 0.531,-0.106 1.049,0.239 1.153,0.77 0.105,0.533 -0.24,1.05 -0.773,1.154 -0.531,0.108 -1.047,-0.237 -1.153,-0.77 M 91.991,333.87 c 2.267,-0.451 4.504,-0.077 6.41,0.907 1.246,-1.245 2.859,-2.149 4.716,-2.519 2.287,-0.455 4.54,-0.014 6.412,1.068 1.202,-1.33 2.819,-2.305 4.712,-2.682 2.312,-0.458 4.591,0.053 6.418,1.25 1.144,-1.427 2.775,-2.476 4.709,-2.861 2.35,-0.467 4.661,0.147 6.432,1.489 1.063,-1.549 2.703,-2.706 4.692,-3.101 2.417,-0.48 4.781,0.284 6.473,1.827 0.945,-1.712 2.584,-3.027 4.652,-3.439 2.508,-0.498 4.946,0.457 6.512,2.258 0.758,-1.923 2.436,-3.436 4.613,-3.869 2.704,-0.54 5.322,0.76 6.636,3.014 0.387,-2.257 2.108,-4.154 4.49,-4.629 3.082,-0.613 6.084,1.394 6.695,4.476 0.613,3.087 -1.386,6.085 -4.473,6.699 -2.381,0.474 -4.697,-0.62 -5.919,-2.558 -0.351,2.586 -2.274,4.788 -4.977,5.326 -2.177,0.432 -4.307,-0.324 -5.742,-1.811 -0.758,2.264 -2.645,4.08 -5.153,4.579 -2.068,0.411 -4.084,-0.176 -5.612,-1.396 -0.974,2.073 -2.865,3.683 -5.284,4.164 -1.988,0.395 -3.945,-0.047 -5.52,-1.072 -1.122,1.919 -3.023,3.371 -5.373,3.84 -1.934,0.385 -3.843,0.04 -5.445,-0.841 -1.232,1.804 -3.14,3.149 -5.451,3.609 -1.893,0.377 -3.76,0.094 -5.379,-0.673 -1.316,1.716 -3.23,2.985 -5.517,3.441 -1.856,0.369 -3.694,0.152 -5.321,-0.522 -1.384,1.638 -3.308,2.84 -5.573,3.29 -5.32,1.058 -10.491,-2.398 -11.549,-7.718 -1.058,-5.317 2.397,-10.488 7.716,-11.546 m 90.993,-2.881 c -2.765,0.552 -5.453,-1.246 -6.005,-4.012 -0.548,-2.766 1.248,-5.455 4.013,-6.005 2.768,-0.551 5.454,1.248 6.005,4.012 0.55,2.766 -1.247,5.455 -4.013,6.005 m 54.477,-13.841 c -1.17,0.233 -2.308,-0.525 -2.541,-1.695 -0.232,-1.171 0.53,-2.308 1.697,-2.541 1.173,-0.233 2.307,0.526 2.543,1.696 0.231,1.171 -0.53,2.308 -1.699,2.54 m -48.894,7.524 c -0.487,-2.447 1.102,-4.826 3.552,-5.311 2.445,-0.488 4.823,1.101 5.312,3.549 0.485,2.447 -1.102,4.826 -3.552,5.312 -2.444,0.487 -4.824,-1.102 -5.312,-3.55 m 42.629,8.6 c -1.48,0.614 -3.177,-0.09 -3.788,-1.567 -0.614,-1.48 0.088,-3.177 1.568,-3.791 1.48,-0.614 3.176,0.09 3.787,1.57 0.614,1.481 -0.087,3.177 -1.567,3.788 m -129.53,39.305 c 2.137,-0.887 4.399,-0.991 6.483,-0.467 1.018,-1.396 2.412,-2.546 4.125,-3.256 2.149,-0.889 4.432,-0.95 6.499,-0.334 0.968,-1.464 2.368,-2.665 4.111,-3.387 2.171,-0.899 4.485,-0.888 6.536,-0.159 0.902,-1.546 2.292,-2.826 4.074,-3.563 2.205,-0.914 4.574,-0.825 6.608,0.05 0.816,-1.638 2.176,-3.016 4.001,-3.771 2.242,-0.929 4.651,-0.712 6.646,0.329 0.694,-1.769 2.068,-3.268 3.962,-4.052 2.314,-0.957 4.839,-0.63 6.781,0.655 0.525,-1.903 1.863,-3.562 3.829,-4.377 2.438,-1.01 5.12,-0.439 6.96,1.216 0.221,-2.123 1.54,-4.064 3.649,-4.937 2.802,-1.16 5.959,-0.027 7.454,2.513 -0.613,-2.533 0.673,-5.207 3.155,-6.235 2.746,-1.137 5.898,0.167 7.038,2.913 1.137,2.748 -0.17,5.9 -2.916,7.038 -2.484,1.029 -5.283,0.048 -6.641,-2.178 0.74,2.855 -0.69,5.888 -3.494,7.048 -2.109,0.874 -4.414,0.434 -6.069,-0.91 -0.133,2.471 -1.625,4.771 -4.063,5.78 -1.965,0.815 -4.084,0.588 -5.802,-0.387 -0.465,2.282 -2.018,4.3 -4.332,5.258 -1.894,0.784 -3.925,0.696 -5.667,-0.064 -0.673,2.148 -2.224,4.005 -4.465,4.934 -1.825,0.756 -3.76,0.743 -5.497,0.161 -0.819,2.056 -2.43,3.795 -4.637,4.709 -1.782,0.738 -3.669,0.815 -5.402,0.36 -0.934,1.966 -2.563,3.611 -4.732,4.511 -1.743,0.721 -3.582,0.861 -5.302,0.511 -1.026,1.897 -2.683,3.469 -4.831,4.358 -1.714,0.71 -3.513,0.883 -5.22,0.615 -1.103,1.845 -2.777,3.37 -4.914,4.256 -5.284,2.187 -11.343,-0.321 -13.532,-5.608 -2.188,-5.284 0.321,-11.34 5.605,-13.53 m 99.13,-24.694 c -2.434,1.006 -5.218,-0.148 -6.227,-2.579 -1.006,-2.431 0.148,-5.218 2.579,-6.224 2.431,-1.006 5.218,0.148 6.225,2.578 1.008,2.432 -0.148,5.218 -2.577,6.225 m 60.8,-29.221 c -0.527,0.22 -1.136,-0.031 -1.354,-0.559 -0.22,-0.529 0.033,-1.134 0.56,-1.354 0.53,-0.22 1.136,0.032 1.353,0.562 0.219,0.526 -0.03,1.131 -0.559,1.351 m -11.402,1.809 c 0.844,-0.351 1.814,0.051 2.165,0.896 0.351,0.846 -0.052,1.814 -0.898,2.165 -0.845,0.351 -1.815,-0.049 -2.165,-0.896 -0.348,-0.844 0.054,-1.815 0.898,-2.165 m -27.226,13.07 c 0.745,1.798 -0.11,3.858 -1.907,4.602 -1.796,0.745 -3.856,-0.11 -4.599,-1.905 -0.745,-1.798 0.11,-3.857 1.905,-4.602 1.795,-0.745 3.856,0.109 4.601,1.905 m 18.362,-5.139 c -1.164,0.483 -2.499,-0.072 -2.978,-1.233 -0.48,-1.163 0.07,-2.495 1.233,-2.977 1.162,-0.482 2.497,0.072 2.976,1.234 0.482,1.162 -0.068,2.496 -1.231,2.976 m -28.16,9.198 c 0.875,2.113 -0.128,4.538 -2.241,5.412 -2.113,0.878 -4.537,-0.129 -5.413,-2.242 -0.877,-2.112 0.128,-4.539 2.241,-5.412 2.116,-0.874 4.539,0.128 5.413,2.242 m 43.139,-5.706 c -0.801,0.534 -1.884,0.317 -2.417,-0.482 -0.535,-0.801 -0.321,-1.881 0.479,-2.418 0.8,-0.535 1.885,-0.318 2.418,0.482 0.536,0.801 0.319,1.883 -0.48,2.418 m -44.855,33.899 c -2.299,1.538 -5.412,0.922 -6.95,-1.381 -1.537,-2.303 -0.919,-5.412 1.384,-6.951 2.3,-1.537 5.41,-0.917 6.951,1.382 1.535,2.303 0.915,5.413 -1.385,6.95 m 13.828,-19.719 c 1.698,-1.134 4.001,-0.678 5.135,1.023 1.138,1.702 0.68,4.001 -1.019,5.138 -1.702,1.135 -4.001,0.677 -5.139,-1.022 -1.137,-1.702 -0.677,-4.001 1.023,-5.139 m 9.696,-5.692 c 1.4,-0.936 3.294,-0.56 4.231,0.841 0.935,1.401 0.56,3.295 -0.841,4.232 -1.4,0.934 -3.298,0.559 -4.232,-0.842 -0.934,-1.401 -0.559,-3.295 0.842,-4.231 m -20.596,17.431 c -1.335,-2.001 -0.798,-4.707 1.202,-6.044 2.001,-1.337 4.707,-0.8 6.043,1.201 1.338,2 0.798,4.709 -1.202,6.044 -2.001,1.336 -4.706,0.799 -6.043,-1.201 M 248,335.35 c 0.736,1.099 0.44,2.59 -0.661,3.324 -1.102,0.735 -2.589,0.439 -3.325,-0.66 -0.735,-1.102 -0.438,-2.59 0.66,-3.325 1.102,-0.737 2.59,-0.441 3.326,0.661 m 17.279,-10.237 c -0.499,0.335 -1.176,0.2 -1.51,-0.301 -0.335,-0.499 -0.201,-1.176 0.301,-1.51 0.501,-0.334 1.176,-0.2 1.511,0.301 0.334,0.499 0.2,1.176 -0.302,1.51 m -146.665,83.588 c 1.926,-1.286 4.114,-1.871 6.266,-1.826 0.768,-1.512 1.919,-2.857 3.43,-3.866 1.937,-1.294 4.152,-1.829 6.31,-1.696 0.713,-1.57 1.85,-2.97 3.388,-3.999 1.949,-1.302 4.2,-1.792 6.359,-1.556 0.645,-1.63 1.77,-3.089 3.338,-4.136 1.977,-1.322 4.289,-1.741 6.461,-1.371 0.555,-1.703 1.63,-3.25 3.235,-4.322 2.004,-1.339 4.373,-1.663 6.545,-1.137 0.433,-1.798 1.495,-3.45 3.153,-4.559 2.052,-1.37 4.522,-1.584 6.692,-0.845 0.263,-1.904 1.281,-3.694 3.005,-4.846 2.127,-1.42 4.739,-1.492 6.89,-0.459 0.006,-2.031 0.991,-4.021 2.81,-5.233 2.304,-1.543 5.241,-1.342 7.327,0.253 -0.497,-2.217 0.364,-4.609 2.369,-5.949 2.598,-1.738 6.117,-1.036 7.854,1.565 1.738,2.601 1.04,6.117 -1.562,7.855 -2.004,1.339 -4.544,1.218 -6.402,-0.092 0.675,2.539 -0.263,5.332 -2.571,6.872 -1.814,1.213 -4.028,1.362 -5.907,0.592 0.131,2.382 -0.934,4.768 -3.06,6.189 -1.723,1.152 -3.768,1.407 -5.628,0.922 -0.147,2.288 -1.292,4.486 -3.345,5.858 -1.659,1.107 -3.59,1.457 -5.415,1.17 -0.345,2.207 -1.552,4.271 -3.555,5.61 -1.606,1.073 -3.446,1.475 -5.232,1.337 -0.49,2.149 -1.762,4.123 -3.739,5.444 -1.568,1.048 -3.346,1.529 -5.1,1.5 -0.609,2.087 -1.924,3.98 -3.871,5.28 -1.539,1.029 -3.267,1.542 -4.99,1.6 -0.702,2.044 -2.045,3.887 -3.981,5.181 -1.51,1.009 -3.192,1.558 -4.883,1.689 -0.784,2.006 -2.162,3.803 -4.088,5.089 -5.002,3.343 -11.766,1.997 -15.108,-3.004 -3.342,-5.002 -1.997,-11.766 3.005,-15.11 M 260.121,336.55 c 0.713,-0.712 1.872,-0.712 2.587,0 0.712,0.716 0.712,1.872 0,2.588 -0.715,0.715 -1.874,0.715 -2.587,0 -0.712,-0.716 -0.712,-1.872 0,-2.588 m -8.425,11.01 c -0.982,-0.981 -0.982,-2.574 0,-3.555 0.985,-0.982 2.576,-0.982 3.558,0 0.98,0.981 0.98,2.574 0,3.555 -0.982,0.984 -2.573,0.984 -3.558,0 m -18.801,25.269 c -1.787,1.783 -4.681,1.783 -6.465,0 -1.784,-1.785 -1.784,-4.682 0,-6.466 1.784,-1.784 4.678,-1.784 6.465,0 1.787,1.784 1.787,4.681 0,6.466 m 7.455,-13.918 c 1.515,1.516 1.515,3.977 0,5.495 -1.519,1.516 -3.979,1.516 -5.498,0 -1.519,-1.518 -1.519,-3.979 0,-5.495 1.519,-1.517 3.979,-1.517 5.498,0 m 2.926,-2.93 c -1.249,-1.246 -1.249,-3.274 0,-4.523 1.25,-1.251 3.276,-1.251 4.526,0 1.249,1.249 1.249,3.277 0,4.523 -1.25,1.25 -3.276,1.25 -4.526,0 m -25.268,17.834 c 2.053,-2.053 5.382,-2.053 7.432,0 2.056,2.053 2.056,5.383 0,7.435 -2.05,2.054 -5.379,2.054 -7.432,0 -2.056,-2.052 -2.056,-5.382 0,-7.435 m -70.019,63.967 c 0.503,-1.588 1.377,-3.084 2.636,-4.344 1.649,-1.646 3.701,-2.638 5.839,-2.991 0.445,-1.633 1.301,-3.178 2.584,-4.46 1.657,-1.658 3.75,-2.607 5.91,-2.865 0.374,-1.681 1.205,-3.281 2.513,-4.587 1.674,-1.675 3.823,-2.574 6.013,-2.716 0.283,-1.735 1.073,-3.402 2.41,-4.738 1.699,-1.698 3.925,-2.545 6.151,-2.542 0.167,-1.791 0.9,-3.539 2.272,-4.911 1.721,-1.721 4.029,-2.459 6.28,-2.283 0.001,-1.871 0.715,-3.741 2.142,-5.168 1.781,-1.784 4.253,-2.453 6.554,-2.012 -0.221,-1.939 0.383,-3.955 1.871,-5.442 1.883,-1.885 4.617,-2.379 6.965,-1.52 -0.619,-2.032 -0.151,-4.326 1.454,-5.933 2.324,-2.321 6.084,-2.321 8.408,0 2.319,2.321 2.319,6.084 0,8.403 -1.61,1.608 -3.903,2.075 -5.935,1.455 0.859,2.349 0.365,5.083 -1.519,6.97 -1.488,1.488 -3.505,2.091 -5.447,1.867 0.442,2.302 -0.227,4.773 -2.008,6.555 -1.427,1.427 -3.298,2.141 -5.169,2.142 0.176,2.25 -0.561,4.558 -2.284,6.279 -1.37,1.372 -3.117,2.104 -4.907,2.272 0.003,2.226 -0.845,4.454 -2.545,6.151 -1.337,1.338 -3.003,2.127 -4.738,2.41 -0.143,2.19 -1.041,4.341 -2.715,6.015 -1.307,1.307 -2.907,2.139 -4.588,2.512 -0.258,2.159 -1.207,4.253 -2.865,5.91 -1.282,1.283 -2.827,2.139 -4.461,2.583 -0.353,2.138 -1.344,4.19 -2.992,5.839 -1.258,1.259 -2.755,2.133 -4.342,2.636 -0.433,2.12 -1.467,4.142 -3.112,5.786 -4.463,4.465 -11.699,4.465 -16.162,0 -4.464,-4.461 -4.464,-11.7 0,-16.161 1.645,-1.646 3.667,-2.679 5.787,-3.112 M 270.16,330.715 c -0.447,0.447 -1.171,0.447 -1.617,0 -0.447,-0.446 -0.447,-1.17 0,-1.617 0.446,-0.446 1.17,-0.446 1.617,0 0.447,0.447 0.447,1.171 0,1.617 m -42.379,74.61 c 2.17,1.45 2.758,4.384 1.304,6.556 -1.449,2.17 -4.385,2.754 -6.555,1.304 -2.168,-1.449 -2.752,-4.385 -1.302,-6.556 1.449,-2.17 4.382,-2.754 6.553,-1.304 m -4.525,16.162 c -1.6,2.392 -4.838,3.037 -7.232,1.439 -2.396,-1.601 -3.04,-4.841 -1.44,-7.233 1.598,-2.395 4.837,-3.04 7.233,-1.439 2.395,1.6 3.037,4.838 1.439,7.233 m 17.899,-42.045 c 1.004,-1.496 3.026,-1.9 4.522,-0.9 1.497,1.001 1.9,3.027 0.899,4.523 -0.997,1.497 -3.022,1.899 -4.521,0.899 -1.497,-1.001 -1.897,-3.026 -0.9,-4.522 m -5.607,14.262 c -1.721,-1.15 -2.184,-3.477 -1.036,-5.199 1.151,-1.721 3.48,-2.184 5.201,-1.033 1.722,1.148 2.183,3.475 1.034,5.196 -1.151,1.722 -3.478,2.185 -5.199,1.036 m -6.506,9.74 c -1.946,-1.301 -2.472,-3.932 -1.17,-5.878 1.298,-1.943 3.929,-2.466 5.875,-1.168 1.946,1.299 2.469,3.931 1.171,5.876 -1.302,1.946 -3.934,2.47 -5.876,1.17 m -48.835,63.127 c -0.327,-1.87 0.024,-3.863 1.163,-5.567 1.334,-2 3.452,-3.134 5.673,-3.338 -0.476,-1.897 -0.204,-3.972 0.967,-5.725 1.371,-2.049 3.613,-3.163 5.907,-3.183 -0.655,-1.906 -0.468,-4.076 0.737,-5.88 1.428,-2.134 3.87,-3.152 6.258,-2.902 -0.938,-1.916 -0.885,-4.257 0.385,-6.16 1.532,-2.292 4.324,-3.203 6.84,-2.487 -1.409,-1.882 -1.577,-4.509 -0.196,-6.575 1.751,-2.618 5.292,-3.322 7.913,-1.574 2.617,1.752 3.321,5.293 1.572,7.913 -1.381,2.064 -3.873,2.915 -6.151,2.334 1.625,2.05 1.852,4.977 0.319,7.269 -1.271,1.904 -3.411,2.849 -5.542,2.715 1.146,2.11 1.14,4.756 -0.287,6.891 -1.204,1.804 -3.139,2.807 -5.148,2.933 0.858,2.126 0.686,4.624 -0.681,6.673 -1.172,1.753 -2.987,2.799 -4.921,3.084 0.662,2.132 0.426,4.523 -0.911,6.522 -1.138,1.704 -2.846,2.79 -4.699,3.204 0.503,2.126 0.178,4.442 -1.132,6.402 -2.499,3.741 -7.561,4.748 -11.299,2.248 -3.744,-2.5 -4.749,-7.561 -2.247,-11.303 1.309,-1.959 3.323,-3.145 5.48,-3.494 m 83.368,-114.81 c 0.822,0.551 1.04,1.664 0.493,2.485 -0.548,0.826 -1.664,1.045 -2.487,0.497 -0.824,-0.551 -1.043,-1.664 -0.495,-2.489 0.551,-0.822 1.666,-1.044 2.489,-0.493 m -8.502,12.722 c -1.048,-0.701 -1.33,-2.118 -0.631,-3.165 0.702,-1.047 2.119,-1.329 3.166,-0.63 1.05,0.701 1.328,2.119 0.627,3.165 -0.696,1.046 -2.116,1.329 -3.162,0.63 m -6.507,9.741 c -1.272,-0.85 -1.617,-2.571 -0.767,-3.843 0.849,-1.272 2.57,-1.614 3.842,-0.764 1.272,0.849 1.617,2.571 0.768,3.842 -0.85,1.272 -2.571,1.614 -3.843,0.765 m 25.806,-40.094 c 0.25,-0.372 0.756,-0.474 1.132,-0.225 0.372,0.25 0.475,0.757 0.225,1.132 -0.251,0.374 -0.756,0.474 -1.132,0.226 -0.372,-0.253 -0.473,-0.757 -0.225,-1.133 m -4.834,8.704 c 0.6,0.401 0.759,1.209 0.359,1.806 -0.4,0.601 -1.209,0.763 -1.806,0.362 -0.6,-0.399 -0.762,-1.211 -0.362,-1.808 0.4,-0.6 1.211,-0.76 1.809,-0.36 m -55.919,142.853 c -0.55,-1.761 -0.512,-3.716 0.251,-5.552 0.904,-2.188 2.655,-3.765 4.714,-4.526 -0.674,-1.762 -0.718,-3.768 0.06,-5.648 0.926,-2.233 2.8,-3.763 4.957,-4.386 -0.842,-1.759 -0.984,-3.842 -0.178,-5.784 0.951,-2.296 2.965,-3.823 5.234,-4.263 -1.036,-1.731 -1.288,-3.903 -0.457,-5.91 0.996,-2.406 3.254,-3.885 5.689,-4.038 -1.353,-1.676 -1.795,-4.004 -0.912,-6.133 1.089,-2.636 3.823,-4.077 6.524,-3.668 -1.934,-1.497 -2.728,-4.137 -1.747,-6.506 1.176,-2.835 4.427,-4.182 7.26,-3.006 2.84,1.172 4.182,4.426 3.01,7.259 -0.98,2.369 -3.409,3.673 -5.835,3.365 2.198,1.621 3.112,4.572 2.02,7.206 -0.881,2.131 -2.84,3.465 -4.983,3.693 1.614,1.83 2.167,4.473 1.168,6.878 -0.831,2.009 -2.544,3.367 -4.502,3.858 1.295,1.915 1.639,4.419 0.687,6.712 -0.804,1.945 -2.378,3.317 -4.217,3.966 1.085,1.965 1.328,4.373 0.401,6.606 -0.777,1.88 -2.226,3.269 -3.948,4.038 0.917,1.994 1.041,4.346 0.137,6.532 -0.761,1.838 -2.117,3.25 -3.752,4.105 0.782,2.012 0.827,4.316 -0.063,6.466 -1.834,4.432 -6.915,6.537 -11.347,4.701 -4.432,-1.837 -6.535,-6.915 -4.701,-11.347 0.893,-2.153 2.553,-3.749 4.53,-4.618 m 31.639,-60.005 c -2.57,-1.063 -3.791,-4.009 -2.727,-6.58 1.063,-2.57 4.012,-3.79 6.583,-2.727 2.568,1.067 3.788,4.013 2.725,6.581 -1.064,2.57 -4.013,3.79 -6.581,2.726 m 13.488,-32.558 c -1.774,-0.732 -2.616,-2.766 -1.881,-4.537 0.735,-1.773 2.764,-2.614 4.538,-1.879 1.771,0.731 2.613,2.765 1.881,4.538 -0.735,1.771 -2.768,2.612 -4.538,1.878 m 19.04,-45.978 c 0.711,0.293 1.048,1.107 0.755,1.817 -0.294,0.707 -1.107,1.044 -1.817,0.751 -0.706,-0.294 -1.043,-1.108 -0.751,-1.815 0.294,-0.709 1.108,-1.046 1.813,-0.753 m -28.033,67.683 c -2.305,-0.953 -3.399,-3.596 -2.442,-5.9 0.954,-2.302 3.596,-3.396 5.897,-2.442 2.303,0.953 3.399,3.596 2.446,5.898 -0.954,2.304 -3.596,3.398 -5.901,2.444 m 4.494,-10.852 c -2.036,-0.845 -3.006,-3.18 -2.162,-5.219 0.844,-2.039 3.182,-3.006 5.222,-2.162 2.036,0.844 3.006,3.181 2.162,5.22 -0.844,2.038 -3.182,3.005 -5.222,2.161 m 27.637,-66.72 c 0.445,0.183 0.656,0.691 0.472,1.136 -0.183,0.44 -0.693,0.651 -1.134,0.467 -0.445,-0.182 -0.655,-0.69 -0.472,-1.134 0.184,-0.441 0.69,-0.652 1.134,-0.469 m -9.655,23.31 c -0.976,-0.403 -1.437,-1.521 -1.033,-2.497 0.403,-0.975 1.521,-1.436 2.497,-1.033 0.973,0.403 1.435,1.521 1.034,2.497 -0.404,0.972 -1.523,1.436 -2.498,1.033 m -8.989,21.706 c -1.508,-0.624 -2.223,-2.352 -1.601,-3.859 0.625,-1.507 2.352,-2.222 3.86,-1.598 1.506,0.625 2.221,2.352 1.597,3.859 -0.622,1.505 -2.348,2.221 -3.856,1.598 m 4.495,-10.853 c -1.242,-0.516 -1.831,-1.938 -1.316,-3.176 0.512,-1.243 1.935,-1.831 3.177,-1.319 1.241,0.516 1.831,1.937 1.316,3.179 -0.515,1.239 -1.935,1.829 -3.177,1.316 m -17.607,126.639 c -0.776,-1.628 -1.062,-3.505 -0.682,-5.408 0.457,-2.297 1.786,-4.197 3.573,-5.432 -0.881,-1.612 -1.226,-3.529 -0.841,-5.47 0.466,-2.337 1.896,-4.229 3.788,-5.366 -1.013,-1.587 -1.45,-3.544 -1.053,-5.536 0.475,-2.394 2.046,-4.27 4.075,-5.277 -1.189,-1.546 -1.755,-3.562 -1.344,-5.626 0.49,-2.466 2.228,-4.351 4.418,-5.175 -1.412,-1.47 -2.111,-3.578 -1.683,-5.727 0.517,-2.608 2.54,-4.529 4.982,-5.051 -1.752,-1.321 -2.71,-3.556 -2.254,-5.852 0.63,-3.159 3.675,-5.215 6.832,-4.648 -2.834,-0.624 -4.664,-3.395 -4.096,-6.255 0.576,-2.896 3.391,-4.777 6.288,-4.201 2.896,0.576 4.776,3.393 4.201,6.287 -0.568,2.86 -3.321,4.722 -6.177,4.212 3.131,0.686 5.158,3.749 4.53,6.907 -0.456,2.296 -2.196,3.995 -4.321,4.544 2.058,1.418 3.191,3.968 2.673,6.575 -0.428,2.149 -1.882,3.828 -3.748,4.646 1.709,1.601 2.591,4.006 2.102,6.47 -0.412,2.066 -1.706,3.712 -3.399,4.685 1.491,1.706 2.226,4.041 1.749,6.434 -0.396,1.992 -1.55,3.634 -3.092,4.712 1.314,1.774 1.91,4.07 1.444,6.408 -0.385,1.941 -1.437,3.581 -2.868,4.732 1.177,1.824 1.68,4.087 1.222,6.383 -0.381,1.905 -1.362,3.531 -2.701,4.737 1.07,1.866 1.505,4.108 1.053,6.382 -0.995,4.994 -5.845,8.239 -10.839,7.244 -4.997,-0.992 -8.239,-5.846 -7.247,-10.842 0.453,-2.275 1.712,-4.179 3.415,-5.492 m 22.213,-76.087 c -2.594,-0.516 -4.283,-3.039 -3.765,-5.638 0.515,-2.595 3.039,-4.283 5.638,-3.766 2.595,0.516 4.283,3.04 3.765,5.638 -0.516,2.595 -3.039,4.284 -5.638,3.766 m 13.788,-69.315 c -0.799,-0.158 -1.317,-0.936 -1.159,-1.735 0.161,-0.8 0.936,-1.318 1.736,-1.158 0.798,0.158 1.317,0.934 1.159,1.734 -0.16,0.797 -0.938,1.318 -1.736,1.159 m -9.191,46.211 c -1.998,-0.398 -3.293,-2.341 -2.898,-4.339 0.398,-1.998 2.339,-3.295 4.337,-2.896 1.997,0.397 3.294,2.337 2.895,4.335 -0.396,1.998 -2.336,3.297 -4.334,2.9 m -2.296,11.552 c -2.301,-0.458 -3.792,-2.691 -3.333,-4.989 0.454,-2.296 2.687,-3.786 4.984,-3.332 2.301,0.458 3.791,2.691 3.333,4.988 -0.457,2.297 -2.688,3.79 -4.984,3.333 m 4.592,-23.107 c -1.697,-0.337 -2.797,-1.986 -2.461,-3.686 0.338,-1.696 1.989,-2.801 3.686,-2.461 1.697,0.336 2.8,1.986 2.461,3.687 -0.337,1.695 -1.986,2.8 -3.686,2.46 m 9.554,-48.019 c 0.498,0.101 0.822,0.586 0.725,1.085 -0.1,0.498 -0.584,0.824 -1.087,0.724 -0.498,-0.099 -0.822,-0.584 -0.723,-1.083 0.099,-0.501 0.583,-0.826 1.085,-0.726 m -7.255,36.467 c -1.396,-0.277 -2.307,-1.636 -2.027,-3.036 0.276,-1.398 1.636,-2.306 3.034,-2.029 1.399,0.28 2.307,1.639 2.03,3.037 -0.28,1.398 -1.638,2.307 -3.037,2.028 m 2.297,-11.552 c -1.096,-0.219 -1.81,-1.287 -1.592,-2.385 0.22,-1.098 1.285,-1.813 2.385,-1.595 1.098,0.22 1.811,1.285 1.595,2.385 -0.219,1.099 -1.288,1.814 -2.388,1.595 m 12.114,-22.312 c -0.54,0 -0.975,-0.435 -0.975,-0.975 0,-0.54 0.435,-0.976 0.975,-0.976 0.54,0 0.976,0.436 0.976,0.976 0,0.54 -0.436,0.975 -0.976,0.975 m -9.17,156.186 c 0,-2.333 0.877,-4.456 2.313,-6.074 -1.081,-1.436 -1.729,-3.216 -1.729,-5.152 0,-2.371 0.962,-4.517 2.516,-6.071 -1.187,-1.395 -1.93,-3.18 -1.93,-5.154 0,-2.399 1.077,-4.527 2.751,-5.993 -1.338,-1.341 -2.165,-3.19 -2.165,-5.234 0,-2.469 1.221,-4.642 3.077,-5.989 -1.509,-1.253 -2.493,-3.121 -2.493,-5.236 0,-2.568 1.436,-4.779 3.532,-5.945 -1.762,-1.104 -2.945,-3.048 -2.945,-5.281 0,-2.781 1.832,-5.109 4.343,-5.917 -2.186,-0.783 -3.76,-2.854 -3.76,-5.308 0,-3.125 2.535,-5.66 5.66,-5.66 3.125,0 5.66,2.535 5.66,5.66 0,2.454 -1.575,4.525 -3.761,5.308 2.513,0.808 4.344,3.136 4.344,5.917 0,2.233 -1.182,4.177 -2.944,5.281 2.096,1.166 3.531,3.377 3.531,5.945 0,2.115 -0.983,3.983 -2.495,5.236 1.859,1.347 3.079,3.52 3.079,5.989 0,2.044 -0.827,3.893 -2.164,5.234 1.673,1.466 2.75,3.594 2.75,5.993 0,1.974 -0.742,3.759 -1.928,5.154 1.554,1.554 2.514,3.7 2.514,6.071 0,1.936 -0.648,3.716 -1.728,5.152 1.434,1.619 2.312,3.741 2.312,6.074 0,1.898 -0.575,3.661 -1.563,5.124 1.342,1.672 2.151,3.791 2.151,6.102 0,5.388 -4.368,9.757 -9.758,9.757 -5.389,0 -9.757,-4.369 -9.757,-9.757 0,-2.311 0.809,-4.43 2.151,-6.102 -0.987,-1.463 -1.564,-3.226 -1.564,-5.124 m 9.17,-132.564 c -1.183,0 -2.146,-0.959 -2.146,-2.146 0,-1.184 0.963,-2.145 2.146,-2.145 1.184,0 2.146,0.961 2.146,2.145 0,1.187 -0.962,2.146 -2.146,2.146 m 0,35.435 c -2.154,0 -3.902,-1.749 -3.902,-3.903 0,-2.154 1.748,-3.903 3.902,-3.903 2.155,0 3.903,1.749 3.903,3.903 0,2.154 -1.748,3.903 -3.903,3.903 m 0,11.809 c -2.477,0 -4.486,-2.009 -4.486,-4.487 0,-2.477 2.009,-4.486 4.486,-4.486 2.478,0 4.487,2.009 4.487,4.486 0,2.478 -2.009,4.487 -4.487,4.487 m 0,-35.432 c -1.506,0 -2.732,-1.224 -2.732,-2.732 0,-1.507 1.226,-2.733 2.732,-2.733 1.508,0 2.733,1.226 2.733,2.733 0,1.508 -1.225,2.732 -2.733,2.732 m 0,-23.622 c -0.863,0 -1.562,-0.698 -1.562,-1.561 0,-0.864 0.699,-1.562 1.562,-1.562 0.863,0 1.562,0.698 1.562,1.562 0,0.863 -0.699,1.561 -1.562,1.561 m 0,70.867 c -2.8,0 -5.073,-2.272 -5.073,-5.074 0,-2.8 2.273,-5.073 5.073,-5.073 2.802,0 5.074,2.273 5.074,5.073 0,2.802 -2.272,5.074 -5.074,5.074 m 0,-35.435 c -1.831,0 -3.316,-1.485 -3.316,-3.316 0,-1.831 1.485,-3.316 3.316,-3.316 1.831,0 3.317,1.485 3.317,3.316 0,1.831 -1.486,3.316 -3.317,3.316 m 21.625,22.88 c 2.896,-0.576 5.714,1.306 6.292,4.203 0.543,2.742 -1.122,5.386 -3.753,6.157 3.062,-0.361 5.936,1.66 6.548,4.735 0.448,2.252 -0.452,4.438 -2.122,5.787 2.416,0.586 4.403,2.504 4.917,5.102 0.416,2.098 -0.23,4.144 -1.544,5.632 2.16,0.886 3.851,2.798 4.341,5.257 0.401,2.018 -0.095,3.998 -1.195,5.555 1.986,1.068 3.516,2.95 3.99,5.336 0.388,1.944 -0.011,3.846 -0.932,5.435 1.866,1.195 3.261,3.111 3.727,5.454 0.379,1.897 0.079,3.767 -0.716,5.377 1.753,1.294 3.053,3.208 3.513,5.512 0.368,1.855 0.141,3.689 -0.548,5.307 1.666,1.371 2.888,3.303 3.343,5.584 0.364,1.824 0.177,3.626 -0.427,5.249 1.6,1.435 2.771,3.37 3.222,5.639 1.11,5.575 -2.512,10.993 -8.084,12.103 -5.576,1.107 -10.994,-2.512 -12.104,-8.088 -0.451,-2.268 -0.107,-4.504 0.819,-6.441 -1.178,-1.27 -2.041,-2.864 -2.403,-4.688 -0.452,-2.282 -0.063,-4.534 0.952,-6.436 -1.255,-1.232 -2.168,-2.839 -2.537,-4.694 -0.458,-2.304 0.011,-4.573 1.136,-6.437 -1.352,-1.182 -2.342,-2.796 -2.72,-4.693 -0.467,-2.344 0.093,-4.65 1.359,-6.468 -1.46,-1.115 -2.556,-2.72 -2.943,-4.664 -0.474,-2.386 0.218,-4.71 1.644,-6.457 -1.611,-1.018 -2.826,-2.655 -3.228,-4.673 -0.49,-2.462 0.341,-4.874 1.997,-6.519 -1.782,-0.873 -3.165,-2.515 -3.581,-4.611 -0.516,-2.598 0.583,-5.129 2.59,-6.595 -2.059,-0.61 -3.727,-2.286 -4.173,-4.536 -0.614,-3.075 1.27,-6.042 4.235,-6.88 -2.726,0.294 -5.277,-1.511 -5.823,-4.252 -0.576,-2.897 1.308,-5.714 4.208,-6.292 m -2.07,-10.405 c 2.564,-0.509 5.056,1.155 5.566,3.72 0.509,2.564 -1.157,5.057 -3.718,5.566 -2.566,0.51 -5.061,-1.153 -5.57,-3.719 -0.509,-2.565 1.157,-5.057 3.722,-5.567 m -2.072,-10.403 c 2.23,-0.444 4.399,1.003 4.843,3.234 0.444,2.229 -1.006,4.396 -3.235,4.84 -2.23,0.444 -4.398,-1.006 -4.842,-3.233 -0.444,-2.232 1.007,-4.4 3.234,-4.841 M 307.22,360 c 1.227,-0.245 2.417,0.55 2.661,1.778 0.244,1.225 -0.552,2.417 -1.778,2.661 -1.226,0.244 -2.418,-0.55 -2.663,-1.778 -0.243,-1.225 0.554,-2.418 1.78,-2.661 m -2.931,-20.002 c 0.113,0.556 -0.249,1.099 -0.809,1.211 -0.555,0.109 -1.098,-0.252 -1.209,-0.808 -0.112,-0.559 0.251,-1.102 0.809,-1.212 0.557,-0.109 1.1,0.252 1.209,0.809 m 7.069,40.809 c 1.897,-0.376 3.738,0.855 4.117,2.749 0.375,1.896 -0.857,3.737 -2.752,4.116 -1.895,0.376 -3.736,-0.855 -4.114,-2.749 -0.376,-1.897 0.856,-3.738 2.749,-4.116 m -2.069,-10.404 c 1.563,-0.31 3.078,0.705 3.391,2.264 0.31,1.562 -0.705,3.078 -2.268,3.387 -1.559,0.313 -3.077,-0.701 -3.387,-2.263 -0.309,-1.56 0.704,-3.079 2.264,-3.388 m -4.14,-20.81 c 0.893,-0.175 1.761,0.404 1.936,1.294 0.178,0.893 -0.4,1.759 -1.294,1.938 -0.89,0.177 -1.756,-0.403 -1.935,-1.294 -0.178,-0.893 0.4,-1.76 1.293,-1.938 m 15.275,20.74 c -0.641,-1.547 0.093,-3.32 1.639,-3.962 1.549,-0.641 3.323,0.094 3.962,1.642 0.639,1.546 -0.094,3.319 -1.641,3.961 -1.548,0.641 -3.322,-0.094 -3.96,-1.641 m 3.694,10.619 c -0.777,-1.877 0.115,-4.032 1.993,-4.809 1.877,-0.779 4.032,0.115 4.811,1.991 0.777,1.881 -0.114,4.032 -1.994,4.81 -1.877,0.779 -4.032,-0.111 -4.81,-1.992 m 13.898,23.937 c -2.54,1.052 -5.453,-0.153 -6.506,-2.696 -1.052,-2.542 0.154,-5.455 2.697,-6.507 2.541,-1.053 5.454,0.153 6.506,2.693 1.053,2.544 -0.153,5.457 -2.697,6.51 m -10.203,-13.317 c -0.916,-2.209 0.134,-4.743 2.345,-5.659 2.209,-0.916 4.745,0.134 5.659,2.346 0.916,2.208 -0.133,4.744 -2.343,5.659 -2.21,0.915 -4.746,-0.134 -5.661,-2.346 m 18.481,53.101 c -0.948,-2.285 -0.67,-4.756 0.494,-6.735 -1.825,-0.619 -3.394,-1.965 -4.191,-3.885 -0.982,-2.372 -0.525,-4.959 0.934,-6.86 -2.008,-0.384 -3.79,-1.732 -4.631,-3.761 -1.068,-2.583 -0.264,-5.451 1.757,-7.169 -2.299,0.101 -4.519,-1.202 -5.452,-3.45 -1.19,-2.873 0.176,-6.167 3.047,-7.357 2.875,-1.189 6.167,0.175 7.358,3.048 0.934,2.248 0.282,4.742 -1.415,6.294 2.645,-0.215 5.242,1.244 6.31,3.828 0.84,2.029 0.532,4.241 -0.615,5.932 2.376,0.313 4.528,1.819 5.51,4.191 0.797,1.921 0.639,3.983 -0.213,5.711 2.222,0.577 4.165,2.126 5.111,4.411 0.763,1.842 0.725,3.807 0.079,5.54 2.104,0.758 3.894,2.356 4.814,4.584 0.744,1.789 0.801,3.689 0.305,5.416 2.005,0.893 3.688,2.517 4.594,4.705 0.724,1.748 0.844,3.592 0.464,5.308 1.932,0.996 3.535,2.651 4.43,4.816 0.711,1.713 0.874,3.513 0.589,5.216 1.87,1.081 3.417,2.755 4.309,4.905 0.699,1.684 0.904,3.447 0.695,5.135 1.818,1.152 3.314,2.85 4.202,4.99 2.287,5.525 -0.337,11.858 -5.861,14.147 -5.525,2.289 -11.857,-0.337 -14.147,-5.86 -0.887,-2.14 -1.029,-4.4 -0.557,-6.502 -1.341,-1.045 -2.441,-2.435 -3.137,-4.118 -0.89,-2.15 -0.98,-4.428 -0.422,-6.515 -1.406,-1.003 -2.566,-2.39 -3.276,-4.105 -0.897,-2.165 -0.932,-4.47 -0.27,-6.54 -1.482,-0.945 -2.702,-2.333 -3.423,-4.08 -0.909,-2.188 -0.867,-4.527 -0.081,-6.576 -1.572,-0.87 -2.875,-2.254 -3.618,-4.044 -0.921,-2.227 -0.784,-4.624 0.166,-6.647 -1.682,-0.769 -3.097,-2.13 -3.859,-3.973 m -30.997,-94.641 c -0.886,0.364 -1.9,-0.055 -2.265,-0.938 -0.366,-0.885 0.053,-1.899 0.937,-2.264 0.883,-0.366 1.898,0.052 2.264,0.938 0.366,0.882 -0.053,1.896 -0.936,2.264 m -4.547,-10.974 c -0.552,0.231 -1.184,-0.033 -1.414,-0.584 -0.229,-0.553 0.032,-1.187 0.586,-1.416 0.555,-0.228 1.187,0.034 1.414,0.586 0.23,0.553 -0.032,1.187 -0.586,1.414 m 9.091,21.944 c -1.218,0.504 -2.61,-0.074 -3.113,-1.287 -0.505,-1.217 0.074,-2.61 1.29,-3.113 1.214,-0.505 2.607,0.073 3.111,1.287 0.503,1.217 -0.074,2.609 -1.288,3.113 m 10.86,-5.673 c -1.148,0.768 -2.702,0.46 -3.47,-0.687 -0.766,-1.149 -0.457,-2.703 0.691,-3.47 1.149,-0.767 2.7,-0.459 3.468,0.691 0.767,1.148 0.458,2.699 -0.689,3.466 m 26.462,39.606 c -2.4,1.603 -5.645,0.957 -7.254,-1.444 -1.601,-2.401 -0.955,-5.646 1.446,-7.249 2.4,-1.607 5.645,-0.96 7.249,1.441 1.604,2.401 0.959,5.646 -1.441,7.252 m -19.849,-29.704 c -1.46,0.976 -3.437,0.584 -4.411,-0.877 -0.977,-1.462 -0.584,-3.439 0.876,-4.415 1.462,-0.976 3.438,-0.584 4.415,0.88 0.977,1.461 0.584,3.437 -0.88,4.412 m 6.929,18.547 c -1.394,-2.086 -0.832,-4.909 1.253,-6.303 2.088,-1.395 4.912,-0.834 6.307,1.252 1.394,2.088 0.833,4.911 -1.256,6.306 -2.089,1.395 -4.911,0.833 -6.304,-1.255 m -5.67,-9.714 c -1.188,-1.772 -0.71,-4.171 1.066,-5.357 1.773,-1.187 4.174,-0.708 5.357,1.065 1.189,1.774 0.712,4.175 -1.066,5.359 -1.774,1.186 -4.173,0.709 -5.357,-1.067 m -22.367,-40.425 c 0.523,-0.35 1.228,-0.208 1.575,0.313 0.351,0.521 0.209,1.228 -0.312,1.576 -0.523,0.347 -1.226,0.208 -1.574,-0.312 -0.35,-0.524 -0.208,-1.229 0.311,-1.577 m 67.725,118.129 c -1.312,-1.964 -1.771,-4.246 -1.477,-6.417 -1.653,-0.609 -3.139,-1.718 -4.193,-3.296 -1.335,-1.997 -1.726,-4.349 -1.278,-6.531 -1.731,-0.505 -3.311,-1.564 -4.393,-3.181 -1.354,-2.028 -1.619,-4.443 -0.993,-6.616 -1.843,-0.353 -3.55,-1.413 -4.674,-3.098 -1.403,-2.098 -1.568,-4.658 -0.669,-6.828 -1.955,-0.144 -3.827,-1.129 -5.002,-2.884 -1.485,-2.224 -1.43,-5.017 -0.102,-7.148 -2.121,0.235 -4.3,-0.668 -5.568,-2.565 -1.811,-2.714 -1.084,-6.383 1.631,-8.196 2.713,-1.813 6.382,-1.085 8.197,1.629 1.268,1.901 1.268,4.258 0.236,6.129 2.478,-0.411 5.08,0.606 6.566,2.827 1.174,1.756 1.365,3.864 0.751,5.725 2.348,0.002 4.651,1.132 6.054,3.23 1.126,1.684 1.45,3.667 1.071,5.506 2.246,0.254 4.377,1.422 5.731,3.45 1.082,1.617 1.454,3.481 1.259,5.275 2.187,0.421 4.211,1.681 5.546,3.679 1.053,1.578 1.51,3.375 1.439,5.135 2.119,0.561 4.053,1.856 5.365,3.821 1.029,1.541 1.53,3.277 1.56,5.003 2.072,0.666 3.94,2.003 5.241,3.951 1.011,1.513 1.545,3.201 1.657,4.894 2.03,0.756 3.852,2.124 5.148,4.062 0.991,1.484 1.555,3.126 1.733,4.784 1.998,0.832 3.777,2.238 5.07,4.17 3.488,5.219 2.083,12.276 -3.136,15.765 -5.218,3.486 -12.275,2.083 -15.762,-3.135 -1.291,-1.934 -1.908,-4.119 -1.912,-6.282 -1.465,-0.799 -2.767,-1.949 -3.758,-3.432 -1.296,-1.938 -1.862,-4.147 -1.782,-6.312 -1.522,-0.75 -2.876,-1.889 -3.885,-3.401 -1.304,-1.948 -1.823,-4.188 -1.648,-6.356 -1.581,-0.688 -2.993,-1.816 -4.023,-3.357 M 324.085,345.43 c -0.835,0.556 -1.964,0.332 -2.521,-0.501 -0.558,-0.837 -0.335,-1.965 0.501,-2.521 0.833,-0.56 1.963,-0.335 2.522,0.501 0.557,0.833 0.332,1.962 -0.502,2.521 m 58.64,51.295 c -1.831,-1.831 -1.831,-4.799 0,-6.63 1.831,-1.831 4.799,-1.831 6.63,0 1.831,1.831 1.831,4.799 0,6.63 -1.831,1.831 -4.799,1.831 -6.63,0 m -7.593,-8.283 c -1.642,-1.638 -1.642,-4.3 0,-5.941 1.639,-1.642 4.302,-1.642 5.944,0 1.639,1.641 1.639,4.303 0,5.941 -1.642,1.642 -4.305,1.642 -5.944,0 M 344.75,355.321 c -0.886,-0.885 -0.886,-2.319 0,-3.202 0.884,-0.884 2.316,-0.884 3.201,0 0.882,0.883 0.882,2.317 0,3.202 -0.885,0.883 -2.317,0.883 -3.201,0 m 15.189,16.562 c -1.26,-1.264 -1.26,-3.311 0,-4.574 1.263,-1.261 3.311,-1.261 4.576,0 1.259,1.263 1.259,3.31 0,4.574 -1.265,1.261 -3.313,1.261 -4.576,0 m 7.594,8.28 c -1.449,-1.453 -1.449,-3.808 0,-5.26 1.454,-1.45 3.807,-1.45 5.259,0 1.454,1.452 1.454,3.807 0,5.26 -1.452,1.452 -3.805,1.452 -5.259,0 m 22.786,24.841 c -2.02,-2.02 -2.02,-5.295 0,-7.315 2.021,-2.02 5.296,-2.02 7.316,0 2.019,2.02 2.019,5.295 0,7.315 -2.02,2.02 -5.295,2.02 -7.316,0 M 331.39,338.759 c -0.505,0.505 -1.324,0.505 -1.827,0 -0.507,-0.504 -0.507,-1.323 0,-1.828 0.503,-0.507 1.322,-0.507 1.827,0 0.505,0.505 0.505,1.324 0,1.828 m -8.283,-9.425 c 0.319,0.318 0.319,0.828 0,1.143 -0.315,0.318 -0.826,0.318 -1.142,0 -0.316,-0.315 -0.316,-0.825 0,-1.143 0.316,-0.315 0.827,-0.315 1.142,0 m 29.238,34.267 c -1.071,-1.072 -1.071,-2.812 0,-3.886 1.075,-1.071 2.814,-1.071 3.886,0 1.075,1.074 1.075,2.814 0,3.886 -1.072,1.074 -2.811,1.074 -3.886,0 m 68.354,74.527 c -1.747,-1.747 -2.391,-4.177 -1.94,-6.432 -2.003,0.295 -4.113,-0.307 -5.653,-1.847 -1.826,-1.827 -2.335,-4.445 -1.588,-6.74 -2.069,0.583 -4.379,0.087 -6.01,-1.543 -1.97,-1.97 -2.293,-4.935 -1.027,-7.266 -2.127,1.087 -4.789,0.765 -6.566,-1.013 -2.209,-2.209 -2.209,-5.795 0,-8.003 2.207,-2.209 5.793,-2.209 8.002,0 1.78,1.779 2.099,4.441 1.013,6.567 2.331,-1.267 5.297,-0.943 7.267,1.027 1.63,1.63 2.125,3.94 1.542,6.01 2.297,-0.749 4.914,-0.239 6.74,1.588 1.542,1.541 2.142,3.649 1.847,5.653 2.254,-0.452 4.686,0.193 6.432,1.941 1.499,1.495 2.161,3.492 2.045,5.451 2.221,-0.254 4.534,0.438 6.237,2.143 1.455,1.456 2.187,3.354 2.215,5.26 2.183,-0.094 4.397,0.666 6.065,2.335 3.158,3.157 3.158,8.273 0,11.431 -3.157,3.158 -8.274,3.158 -11.43,0 -1.669,-1.668 -2.43,-3.881 -2.335,-6.066 -1.907,-0.029 -3.804,-0.759 -5.261,-2.213 -1.704,-1.706 -2.398,-4.016 -2.143,-6.238 -1.96,0.115 -3.956,-0.548 -5.452,-2.045 m -83.544,-91.089 c -0.694,-0.694 -0.694,-1.82 0,-2.514 0.694,-0.696 1.821,-0.696 2.515,0 0.695,0.694 0.695,1.82 0,2.514 -0.694,0.696 -1.821,0.696 -2.515,0 m 61.953,31.218 c -2.296,-1.534 -2.914,-4.636 -1.38,-6.933 1.534,-2.294 4.641,-2.913 6.934,-1.379 2.297,1.535 2.912,4.637 1.381,6.934 -1.534,2.294 -4.64,2.913 -6.935,1.378 m -36.186,-26.666 c -1.346,-0.899 -1.709,-2.718 -0.809,-4.064 0.899,-1.346 2.718,-1.708 4.064,-0.808 1.346,0.898 1.707,2.718 0.808,4.064 -0.898,1.346 -2.719,1.706 -4.063,0.808 m 9.047,6.668 c -1.585,-1.058 -2.009,-3.2 -0.953,-4.782 1.059,-1.584 3.2,-2.009 4.783,-0.951 1.582,1.057 2.01,3.198 0.952,4.779 -1.058,1.584 -3.198,2.009 -4.782,0.954 m 72.373,53.334 c -2.017,-1.348 -3.148,-3.497 -3.319,-5.74 -1.893,0.5 -3.974,0.244 -5.729,-0.928 -2.071,-1.383 -3.163,-3.671 -3.127,-5.989 -1.904,0.707 -4.103,0.537 -5.92,-0.676 -2.173,-1.456 -3.177,-3.983 -2.819,-6.41 -1.907,1.036 -4.299,1.029 -6.227,-0.259 -2.396,-1.601 -3.267,-4.619 -2.264,-7.199 -1.829,1.679 -4.624,1.974 -6.782,0.534 -2.534,-1.694 -3.214,-5.12 -1.523,-7.652 1.693,-2.532 5.119,-3.214 7.653,-1.521 2.156,1.44 2.955,4.136 2.102,6.469 2.001,-1.916 5.123,-2.266 7.517,-0.665 1.929,1.291 2.848,3.497 2.623,5.655 2.103,-1.26 4.825,-1.299 6.999,0.154 1.816,1.212 2.815,3.18 2.89,5.209 2.128,-0.92 4.659,-0.786 6.73,0.598 1.756,1.172 2.79,2.998 3.052,4.937 2.137,-0.701 4.555,-0.478 6.572,0.87 1.701,1.138 2.786,2.846 3.188,4.7 2.131,-0.524 4.463,-0.21 6.434,1.105 1.656,1.107 2.739,2.73 3.249,4.507 2.135,-0.4 4.421,-0.002 6.37,1.3 3.959,2.646 5.024,7.997 2.38,11.956 -2.645,3.957 -7.999,5.02 -11.954,2.378 -1.952,-1.302 -3.196,-3.263 -3.642,-5.39 -1.838,0.209 -3.75,-0.17 -5.406,-1.278 -1.971,-1.316 -3.152,-3.35 -3.484,-5.521 -1.866,0.34 -3.861,-0.007 -5.563,-1.144 M 357.224,344.26 c -0.745,1.106 -2.241,1.406 -3.35,0.665 -1.106,-0.742 -1.405,-2.238 -0.665,-3.348 0.741,-1.108 2.237,-1.406 3.348,-0.667 1.108,0.74 1.407,2.239 0.667,3.35 m 32.838,27.333 c -2.058,-1.377 -2.613,-4.161 -1.237,-6.219 1.375,-2.059 4.158,-2.612 6.218,-1.236 2.057,1.376 2.611,4.157 1.234,6.216 -1.374,2.059 -4.157,2.612 -6.215,1.239 m -9.045,-6.668 c -1.822,-1.217 -2.312,-3.679 -1.095,-5.499 1.217,-1.822 3.678,-2.31 5.497,-1.095 1.823,1.216 2.31,3.68 1.094,5.5 -1.213,1.82 -3.678,2.31 -5.496,1.094 m -36.71,-29.299 c 0.582,-0.868 1.758,-1.104 2.628,-0.52 0.872,0.581 1.105,1.756 0.522,2.628 -0.58,0.872 -1.758,1.104 -2.631,0.524 -0.868,-0.581 -1.103,-1.76 -0.519,-2.632 m -17.809,-11.897 c 0.263,-0.397 0.8,-0.501 1.194,-0.238 0.398,0.266 0.502,0.8 0.24,1.195 -0.266,0.397 -0.801,0.504 -1.197,0.238 -0.397,-0.262 -0.505,-0.799 -0.237,-1.195 m 10.816,5.569 c 0.635,0.423 0.805,1.28 0.379,1.913 -0.421,0.634 -1.276,0.804 -1.91,0.382 -0.633,-0.426 -0.805,-1.28 -0.382,-1.914 0.423,-0.633 1.281,-0.805 1.913,-0.381 m 36.053,2.717 c 1.586,0.657 2.342,2.477 1.685,4.067 -0.658,1.587 -2.482,2.34 -4.068,1.683 -1.589,-0.659 -2.344,-2.479 -1.685,-4.068 0.659,-1.586 2.477,-2.341 4.068,-1.682 m 5.796,5.769 c 0.773,-1.87 2.916,-2.755 4.785,-1.982 1.868,0.773 2.754,2.916 1.983,4.785 -0.775,1.87 -2.917,2.755 -4.788,1.981 -1.869,-0.772 -2.752,-2.915 -1.98,-4.784 m -18.342,-4.821 c -1.306,-0.543 -1.929,-2.042 -1.386,-3.35 0.543,-1.31 2.043,-1.928 3.348,-1.389 1.308,0.543 1.93,2.042 1.387,3.353 -0.539,1.306 -2.041,1.925 -3.349,1.386 m 40.646,19.212 c -2.429,-1.007 -3.582,-3.79 -2.577,-6.219 1.006,-2.432 3.791,-3.582 6.221,-2.576 2.428,1.005 3.583,3.791 2.577,6.218 -1.006,2.428 -3.793,3.583 -6.221,2.577 m -4.66,-7.082 c -0.889,2.149 -3.351,3.168 -5.501,2.28 -2.148,-0.891 -3.17,-3.355 -2.282,-5.503 0.892,-2.149 3.357,-3.169 5.505,-2.281 2.149,0.891 3.168,3.355 2.278,5.504 m 18.886,2.074 c 2.708,1.121 3.995,4.229 2.872,6.937 -1.122,2.711 -4.229,3.996 -6.937,2.875 -2.709,-1.123 -3.995,-4.228 -2.874,-6.937 1.123,-2.71 4.228,-3.996 6.939,-2.875 M 340.5,323.354 c -0.749,-0.31 -1.101,-1.165 -0.792,-1.913 0.309,-0.749 1.166,-1.102 1.913,-0.793 0.747,0.31 1.102,1.165 0.791,1.914 -0.307,0.748 -1.165,1.101 -1.912,0.792 m 10.162,4.804 c -1.028,-0.425 -1.515,-1.603 -1.091,-2.631 0.424,-1.028 1.603,-1.516 2.632,-1.09 1.027,0.424 1.514,1.603 1.091,2.63 -0.425,1.028 -1.604,1.516 -2.632,1.091 m -19.624,-11.297 c 0.47,0.193 0.691,0.728 0.496,1.195 -0.194,0.466 -0.727,0.689 -1.193,0.496 -0.469,-0.195 -0.691,-0.729 -0.497,-1.198 0.191,-0.466 0.729,-0.688 1.194,-0.493 m 141.557,68.94 c -2.167,-0.899 -3.769,-2.58 -4.621,-4.581 -1.753,0.563 -3.706,0.535 -5.541,-0.224 -2.202,-0.912 -3.777,-2.691 -4.509,-4.775 -1.756,0.7 -3.769,0.75 -5.651,-0.029 -2.261,-0.935 -3.794,-2.856 -4.368,-5.052 -1.747,0.884 -3.842,1.057 -5.794,0.25 -2.326,-0.965 -3.829,-3.051 -4.189,-5.369 -1.714,1.122 -3.936,1.407 -5.973,0.564 -2.467,-1.022 -3.953,-3.408 -3.953,-5.922 -1.626,1.499 -4.028,2.022 -6.207,1.121 -2.991,-1.239 -4.412,-4.668 -3.171,-7.658 1.239,-2.987 4.666,-4.41 7.656,-3.171 2.177,0.903 3.507,2.971 3.597,5.183 1.777,-1.778 4.514,-2.416 6.983,-1.392 2.037,0.842 3.404,2.615 3.821,4.621 1.895,-1.385 4.433,-1.799 6.761,-0.834 1.951,0.808 3.312,2.412 3.921,4.274 1.958,-1.148 4.402,-1.422 6.661,-0.486 1.882,0.78 3.273,2.241 4.018,3.976 1.991,-0.954 4.36,-1.099 6.562,-0.186 1.837,0.76 3.236,2.121 4.077,3.758 2.017,-0.811 4.339,-0.868 6.506,0.03 1.799,0.745 3.202,2.034 4.118,3.593 2.035,-0.698 4.319,-0.694 6.463,0.194 4.671,1.936 6.891,7.291 4.957,11.964 -1.937,4.669 -7.291,6.886 -11.964,4.953 -2.143,-0.889 -3.761,-2.501 -4.707,-4.433 -1.75,0.455 -3.655,0.375 -5.453,-0.369 M 331.88,310.462 c 0.104,-0.524 0.614,-0.867 1.137,-0.762 0.527,0.103 0.867,0.613 0.762,1.14 -0.104,0.526 -0.614,0.866 -1.14,0.762 -0.524,-0.104 -0.866,-0.614 -0.759,-1.14 m 45.632,5.717 c 1.784,0.356 2.943,2.091 2.591,3.875 -0.356,1.784 -2.091,2.944 -3.876,2.59 -1.784,-0.356 -2.945,-2.091 -2.589,-3.876 0.355,-1.784 2.091,-2.943 3.874,-2.589 m -14.315,0.512 c 0.293,-1.469 1.722,-2.423 3.191,-2.132 1.47,0.293 2.425,1.721 2.132,3.19 -0.291,1.472 -1.72,2.425 -3.19,2.132 -1.47,-0.29 -2.426,-1.721 -2.133,-3.19 m -7.929,-3.752 c 1.153,0.231 1.902,1.354 1.672,2.508 -0.23,1.154 -1.351,1.905 -2.507,1.674 -1.154,-0.229 -1.905,-1.35 -1.674,-2.507 0.23,-1.155 1.351,-1.905 2.509,-1.675 m -12.948,-0.4 c 0.167,-0.841 0.984,-1.387 1.823,-1.22 0.837,0.167 1.382,0.984 1.217,1.823 -0.166,0.841 -0.981,1.387 -1.823,1.22 -0.839,-0.167 -1.385,-0.984 -1.217,-1.823 m 62.637,12.459 c 0.544,-2.73 3.196,-4.502 5.925,-3.961 2.731,0.544 4.504,3.196 3.962,5.926 -0.543,2.73 -3.197,4.503 -5.925,3.961 -2.731,-0.543 -4.505,-3.195 -3.962,-5.926 m 85.574,24.696 c -1.627,0.693 -3.47,0.922 -5.337,0.551 -2.291,-0.455 -4.198,-1.737 -5.498,-3.468 -1.618,0.791 -3.495,1.087 -5.399,0.708 -2.317,-0.46 -4.225,-1.819 -5.439,-3.643 -1.597,0.906 -3.514,1.269 -5.459,0.884 -2.353,-0.47 -4.251,-1.937 -5.352,-3.873 -1.57,1.055 -3.542,1.51 -5.543,1.113 -2.428,-0.484 -4.323,-2.116 -5.269,-4.213 -1.516,1.256 -3.547,1.866 -5.629,1.453 -2.528,-0.504 -4.418,-2.364 -5.129,-4.667 -1.417,1.542 -3.564,2.343 -5.765,1.904 -2.753,-0.545 -4.688,-2.844 -4.939,-5.504 -1.165,2.045 -3.524,3.229 -5.96,2.745 -3.043,-0.606 -5.021,-3.563 -4.417,-6.608 0.606,-3.045 3.567,-5.024 6.611,-4.418 2.434,0.485 4.161,2.481 4.456,4.816 1.25,-2.36 3.916,-3.744 6.669,-3.197 2.2,0.439 3.877,2.002 4.596,3.968 1.54,-1.854 3.996,-2.849 6.526,-2.348 2.082,0.415 3.723,1.756 4.646,3.495 1.674,-1.575 4.05,-2.358 6.477,-1.875 2.002,0.399 3.649,1.574 4.694,3.15 1.76,-1.367 4.076,-1.999 6.431,-1.53 1.944,0.387 3.574,1.457 4.706,2.906 1.817,-1.221 4.101,-1.746 6.416,-1.286 1.904,0.38 3.526,1.37 4.718,2.72 1.863,-1.102 4.118,-1.557 6.406,-1.102 1.865,0.372 3.482,1.29 4.721,2.553 1.898,-0.999 4.135,-1.383 6.403,-0.932 5.249,1.045 8.657,6.148 7.615,11.396 -1.045,5.248 -6.148,8.658 -11.397,7.613 -2.267,-0.451 -4.188,-1.661 -5.559,-3.311 m -90.773,-30.276 c 2.416,0.482 3.986,2.829 3.503,5.244 -0.48,2.414 -2.823,3.982 -5.24,3.502 -2.416,-0.479 -3.982,-2.829 -3.502,-5.243 0.479,-2.415 2.826,-3.983 5.239,-3.503 m -12.634,5.986 c -2.099,-0.42 -3.464,-2.458 -3.044,-4.557 0.416,-2.102 2.458,-3.466 4.557,-3.048 2.098,0.419 3.461,2.458 3.045,4.558 -0.416,2.101 -2.458,3.463 -4.558,3.047 m -42.345,-20.563 c -0.845,0 -1.528,-0.686 -1.528,-1.527 0,-0.844 0.683,-1.527 1.528,-1.53 0.844,0.003 1.525,0.686 1.525,1.53 0.003,0.845 -0.681,1.527 -1.525,1.527 m 72.318,-1.527 c 0,2.741 -2.223,4.963 -4.964,4.963 -2.742,0 -4.961,-2.222 -4.961,-4.963 -0.003,-2.741 2.219,-4.963 4.961,-4.96 2.741,0 4.964,2.219 4.964,4.96 m 84.842,9.543 c -2.316,0 -4.438,-0.825 -6.089,-2.195 -1.455,1.019 -3.224,1.622 -5.136,1.622 -2.336,0 -4.456,-0.9 -6.053,-2.364 -1.426,1.121 -3.219,1.793 -5.174,1.792 -2.374,0 -4.514,-0.991 -6.042,-2.576 -1.382,1.231 -3.186,2.002 -5.183,2.002 -2.415,0 -4.548,-1.117 -5.983,-2.836 -1.321,1.388 -3.175,2.264 -5.242,2.264 -2.485,0 -4.677,-1.253 -5.983,-3.158 -1.224,1.564 -3.108,2.587 -5.246,2.585 -2.602,0 -4.833,-1.504 -5.936,-3.678 -1.051,1.846 -3.014,3.106 -5.288,3.108 -2.867,0 -5.254,-1.985 -5.912,-4.646 -0.643,2.343 -2.768,4.071 -5.314,4.073 -3.058,-0.003 -5.536,-2.48 -5.536,-5.536 0.003,-3.056 2.481,-5.537 5.536,-5.534 2.546,-0.003 4.671,1.73 5.314,4.073 0.659,-2.664 3.045,-4.646 5.912,-4.646 2.274,0 4.237,1.259 5.289,3.106 1.103,-2.174 3.335,-3.68 5.937,-3.678 2.14,-0.002 4.022,1.023 5.245,2.585 1.305,-1.905 3.495,-3.157 5.982,-3.157 2.068,0 3.921,0.875 5.242,2.263 1.435,-1.719 3.568,-2.837 5.983,-2.837 1.997,-10e-4 3.801,0.771 5.183,2.002 1.528,-1.584 3.668,-2.575 6.042,-2.575 1.954,0 3.746,0.674 5.172,1.791 1.597,-1.464 3.718,-2.363 6.055,-2.363 1.912,-10e-4 3.682,0.601 5.138,1.623 1.652,-1.371 3.773,-2.196 6.087,-2.196 5.27,0 9.543,4.272 9.543,9.543 0,5.27 -4.273,9.543 -9.543,9.543 m -112.258,-5.728 c -2.108,0.003 -3.818,-1.708 -3.818,-3.815 0,-2.108 1.71,-3.818 3.818,-3.815 2.111,-0.003 3.817,1.707 3.817,3.815 0,2.107 -1.708,3.818 -3.817,3.815 m -57.083,-3.815 c 0,-0.526 0.427,-0.954 0.954,-0.957 0.529,0.003 0.954,0.428 0.954,0.957 0,0.527 -0.428,0.957 -0.954,0.954 -0.529,0 -0.954,-0.427 -0.954,-0.954 m 23.406,2.1 c -1.159,0 -2.099,-0.94 -2.099,-2.1 0,-1.16 0.94,-2.099 2.099,-2.099 1.159,0 2.1,0.939 2.1,2.099 0,1.16 -0.941,2.1 -2.1,2.1 m 22.451,-5.345 c 1.792,0 3.244,1.452 3.244,3.245 0,1.792 -1.452,3.245 -3.244,3.245 -1.791,0 -3.244,-1.453 -3.244,-3.245 0,-1.793 1.453,-3.245 3.244,-3.245 m 22.452,-1.143 c 2.425,-0.002 4.391,1.963 4.387,4.388 0.004,2.423 -1.962,4.387 -4.387,4.391 -2.424,0 -4.388,-1.966 -4.391,-4.391 0,-2.425 1.966,-4.39 4.391,-4.388 m -31.007,4.388 c 0,1.477 -1.197,2.673 -2.671,2.673 -1.473,0 -2.671,-1.198 -2.671,-2.673 0,-1.475 1.198,-2.672 2.671,-2.672 1.474,0 2.671,1.194 2.671,2.672"
                   style="fill:url(#radialGradient1720);stroke:none"
                   id="path1722"
                   inkscape:connector-curvature="0" /></g></g></g></g></g></g></g></svg>