<?xml version="1.0" encoding="utf-8"?>
<!-- Generator: Adobe Illustrator 19.0.0, SVG Export Plug-In . SVG Version: 6.00 Build 0)  -->
<svg version="1.1" id="Layer_1" xmlns="http://www.w3.org/2000/svg" xmlns:xlink="http://www.w3.org/1999/xlink" x="0px" y="0px"
	 viewBox="0 0 28.3 97.6" style="enable-background:new 0 0 28.3 97.6;" xml:space="preserve">
<style type="text/css">
	.st0{display:none;}
	.st1{display:inline;fill-rule:evenodd;clip-rule:evenodd;fill:#E09C3C;}
	.st2{display:inline;fill-rule:evenodd;clip-rule:evenodd;fill:#D6472E;}
	.st3{display:inline;}
	.st4{fill:#FFB144;}
	.st5{fill:#F0A740;}
	.st6{display:inline;fill:#E09C3C;}
	.st7{display:inline;fill:#F2BF4D;}
	.st8{fill-rule:evenodd;clip-rule:evenodd;fill:#FCD46F;}
	.st9{fill:#C98C36;}
	.st10{fill:#F2AD12;}
	.st11{fill-rule:evenodd;clip-rule:evenodd;fill:#E3BE64;}
	.st12{display:inline;fill-rule:evenodd;clip-rule:evenodd;fill:#FFB8D2;}
	.st13{display:inline;fill-rule:evenodd;clip-rule:evenodd;fill:#F55A94;}
	.st14{display:inline;fill-rule:evenodd;clip-rule:evenodd;fill:#FF7BAC;}
	.st15{display:inline;fill-rule:evenodd;clip-rule:evenodd;fill:#FCD46F;}
	.st16{fill-rule:evenodd;clip-rule:evenodd;fill:#8B5E37;}
	.st17{display:inline;fill-rule:evenodd;clip-rule:evenodd;fill:#F2A941;}
	.st18{fill-rule:evenodd;clip-rule:evenodd;fill:#FF7BAC;}
	.st19{fill-rule:evenodd;clip-rule:evenodd;fill:#AAB622;}
	.st20{fill-rule:evenodd;clip-rule:evenodd;fill:#3FA9F5;}
	.st21{display:inline;fill-rule:evenodd;clip-rule:evenodd;fill:#8B5E37;}
	.st22{fill:#F55A94;}
	.st23{fill:#8B5E37;}
	.st24{display:inline;fill-rule:evenodd;clip-rule:evenodd;fill:#D69338;}
	.st25{display:inline;fill-rule:evenodd;clip-rule:evenodd;fill:#A36E41;}
	.st26{display:inline;fill-rule:evenodd;clip-rule:evenodd;fill:#E84808;}
	.st27{display:inline;fill-rule:evenodd;clip-rule:evenodd;fill:#FF5537;}
	.st28{display:inline;fill:#E3BE64;}
	.st29{fill:#E09C3C;}
	.st30{fill:#BF8024;}
	.st31{display:inline;fill-rule:evenodd;clip-rule:evenodd;fill:#FCEFCF;}
	.st32{display:inline;fill-rule:evenodd;clip-rule:evenodd;fill:#FCCD56;}
	.st33{display:inline;fill-rule:evenodd;clip-rule:evenodd;fill:#FFA8C9;}
	.st34{fill-rule:evenodd;clip-rule:evenodd;fill:#F09405;}
	.st35{fill-rule:evenodd;clip-rule:evenodd;fill:#FAB414;}
	.st36{display:inline;fill:#FFA8C9;}
	.st37{display:inline;fill-rule:evenodd;clip-rule:evenodd;fill:#3FA9F5;}
	.st38{display:inline;fill-rule:evenodd;clip-rule:evenodd;fill:#AAB622;}
	.st39{display:inline;fill-rule:evenodd;clip-rule:evenodd;fill:#FCE19F;}
	.st40{fill:#B57F5D;}
	.st41{fill-rule:evenodd;clip-rule:evenodd;fill:#E09C3C;}
	.st42{display:inline;fill:#FCD46F;}
	.st43{display:inline;fill:#FCDF97;}
	.st44{display:inline;fill:#945F32;}
	.st45{display:inline;fill:#E84808;}
	.st46{fill:#D6C26E;}
	.st47{display:inline;fill:#D6C26E;}
	.st48{display:inline;fill:#FBB313;}
	.st49{display:inline;fill:#E6A411;}
	.st50{display:inline;fill-rule:evenodd;clip-rule:evenodd;fill:#D6C26E;}
	.st51{display:inline;fill-rule:evenodd;clip-rule:evenodd;fill:#E6E6E6;}
	.st52{display:inline;fill-rule:evenodd;clip-rule:evenodd;fill:#FCDF97;}
	.st53{display:inline;fill-rule:evenodd;clip-rule:evenodd;fill:#F2F2F2;}
	.st54{display:inline;fill-rule:evenodd;clip-rule:evenodd;fill:#FFB144;}
	.st55{display:inline;fill:#FCE4A8;}
	.st56{display:inline;fill:#AAB622;}
	.st57{display:inline;fill:#FF7BAC;}
	.st58{display:inline;fill:#3FA9F5;}
	.st59{display:inline;fill:#E3F0F2;}
	.st60{display:inline;fill:#C3D6D9;}
	.st61{fill:#E8B77D;}
	.st62{fill:#FCCD97;}
	.st63{fill:#F0BD82;}
	.st64{fill:#B57837;}
	.st65{fill:#E3F0F2;}
	.st66{fill:#E6E6E6;}
	.st67{display:inline;fill:#CCE0E3;}
	.st68{fill:#FBB313;}
	.st69{fill:#E6A411;}
	.st70{fill-rule:evenodd;clip-rule:evenodd;fill:#FCEFCF;}
	.st71{fill:#FCDFBD;}
	.st72{display:inline;fill:#CCB969;}
	.st73{display:inline;fill:#E4EAEB;}
	.st74{display:inline;fill:#808080;}
	.st75{display:inline;fill:#9F3422;}
	.st76{display:inline;fill:#4D4D4D;}
	.st77{display:inline;fill:#FFDF8C;}
	.st78{fill:#AB9B58;}
	.st79{display:inline;fill:#B57837;}
	.st80{display:inline;fill:#E6E6E6;}
	.st81{fill:#FFCE61;}
	.st82{fill:#CCE0E3;}
	.st83{fill:#FFFFFF;}
</style>
<g class="st0">
	<path class="st1" d="M-135.9-296.6h-114.5l5.5,19.6c1,3.4,4.1,5.8,7.6,5.8h88.2c3.6,0,6.7-2.4,7.6-5.8L-135.9-296.6z"/>
	<path class="st2" d="M-135.9-296.6h-114.5c0,0,2.3-4.2,7.9-9.2c3.4-3,8-6.3,14-9.1c0.9-0.4,1.8-0.8,2.8-1.2
		c4.2-1.8,9.1-3.3,14.7-4.3c4.3-0.8,9-1.4,14.2-1.5c1.2,0,2.4-0.1,3.7-0.1c1.2,0,2.5,0,3.7,0.1c5.2,0.2,9.9,0.7,14.2,1.5
		c5.6,1.1,10.5,2.6,14.7,4.3c0.9,0.4,1.9,0.8,2.7,1.2c6,2.8,10.6,6.1,14,9.1C-138.2-300.8-135.9-296.6-135.9-296.6z"/>
	<g class="st3">
		<g>
			<path class="st4" d="M-242.5-287.2c-0.8,0-1.5-0.3-2-0.8c-1.1-1.1-1.1-2.9,0-4l30.2-30.1c0.5-0.5,1.2-0.8,2-0.8
				c0.8,0,1.5,0.3,2,0.8c1.1,1.1,1.1,2.9,0,4l-30.2,30.1C-241-287.5-241.7-287.2-242.5-287.2z"/>
		</g>
		<g>
			<path class="st4" d="M-220.6-287.2c-0.8,0-1.5-0.3-2-0.8c-1.1-1.1-1.1-2.9,0-4l31.9-31.9c0.5-0.5,1.2-0.8,2-0.8
				c0.8,0,1.5,0.3,2,0.8c0.5,0.5,0.8,1.2,0.8,2c0,0.8-0.3,1.5-0.8,2l-31.9,31.9C-219.2-287.5-219.9-287.2-220.6-287.2z"/>
		</g>
		<g>
			<path class="st4" d="M-198.8-287.2c-0.8,0-1.5-0.3-2-0.8c-1.1-1.1-1.1-2.9,0-4l29.1-29.1c0.5-0.5,1.2-0.8,2-0.8
				c0.8,0,1.5,0.3,2,0.8c1.1,1.1,1.1,2.9,0,4l-29.1,29.1C-197.3-287.5-198.1-287.2-198.8-287.2z"/>
		</g>
		<g>
			<path class="st4" d="M-177-287.2c-0.8,0-1.5-0.3-2-0.8c-0.5-0.5-0.8-1.2-0.8-2c0-0.8,0.3-1.5,0.8-2l22.9-22.9
				c0.5-0.5,1.2-0.8,2-0.8c0.8,0,1.5,0.3,2,0.8c1.1,1.1,1.1,2.9,0,4L-175-288C-175.5-287.5-176.2-287.2-177-287.2z"/>
		</g>
		<g>
			<path class="st5" d="M-155.1-287.2c-0.8,0-1.5-0.3-2-0.8c-0.5-0.5-0.8-1.2-0.8-2c0-0.8,0.3-1.5,0.8-2l13.6-13.6
				c0.5-0.5,1.2-0.8,2-0.8c0.8,0,1.5,0.3,2,0.8c1.1,1.1,1.1,2.9,0,4l-13.6,13.6C-153.6-287.5-154.4-287.2-155.1-287.2z"/>
		</g>
		<g>
			<path class="st5" d="M-231.2-287.2c-0.8,0-1.5-0.3-2-0.8l-13.6-13.6c-1.1-1.1-1.1-2.9,0-4c0.5-0.5,1.2-0.8,2-0.8
				c0.8,0,1.5,0.3,2,0.8l13.6,13.6c0.5,0.5,0.8,1.2,0.8,2c0,0.8-0.3,1.5-0.8,2C-229.7-287.5-230.5-287.2-231.2-287.2z"/>
		</g>
		<g>
			<path class="st5" d="M-209.4-287.2c-0.8,0-1.5-0.3-2-0.8l-22.9-22.9c-1.1-1.1-1.1-2.9,0-4c0.5-0.5,1.2-0.8,2-0.8
				c0.8,0,1.5,0.3,2,0.8l22.9,22.9c0.5,0.5,0.8,1.2,0.8,2c0,0.8-0.3,1.5-0.8,2C-207.9-287.5-208.6-287.2-209.4-287.2z"/>
		</g>
		<g>
			<path class="st5" d="M-187.5-287.2c-0.8,0-1.5-0.3-2-0.8l-29.1-29.1c-1.1-1.1-1.1-2.9,0-4c0.5-0.5,1.2-0.8,2-0.8
				c0.8,0,1.5,0.3,2,0.8l29.1,29.1c0.5,0.5,0.8,1.2,0.8,2c0,0.8-0.3,1.5-0.8,2C-186.1-287.5-186.8-287.2-187.5-287.2z"/>
		</g>
		<g>
			<path class="st5" d="M-165.7-287.2c-0.8,0-1.5-0.3-2-0.8l-31.9-31.9c-1.1-1.1-1.1-2.9,0-4c0.5-0.5,1.2-0.8,2-0.8
				c0.8,0,1.5,0.3,2,0.8l31.9,31.9c1.1,1.1,1.1,2.9,0,4C-164.2-287.5-164.9-287.2-165.7-287.2z"/>
		</g>
		<g>
			<path class="st5" d="M-143.8-287.2c-0.8,0-1.5-0.3-2-0.8l-30.1-30.1c-1.1-1.1-1.1-2.9,0-4c0.5-0.5,1.2-0.8,2-0.8
				c0.8,0,1.5,0.3,2,0.8l30.1,30.1c1.1,1.1,1.1,2.9,0,4C-142.4-287.5-143.1-287.2-143.8-287.2z"/>
		</g>
	</g>
</g>
<g class="st0">
	<path class="st6" d="M-62-209v33.3c0,3.8,3.1,6.8,6.8,6.8h30.8c1.3,0,2.4-0.3,3.5-0.9l16.8-8.4c2.5-1,4.3-3.5,4.3-6.3v-33.1
		l-17.7,8.8L-62-209z"/>
	<path class="st7" d="M0.7-233c-15.1-4.8-30.4-4.8-45.7,0c-0.6,0.2-1.1,0.4-1.6,0.7l-16.8,8.4c-2.9,1.2-4.7,4-4.7,7.2v0.1
		c0,3.7,2.6,6.8,6,7.6l44.5,0.2l17.7-8.8c0.1-0.1,0.2-0.1,0.3-0.2c0.3-0.1,0.6-0.3,0.9-0.4c2.8-1.2,4.8-4,4.8-7.2v-0.1
		C6.2-229,4-232,0.7-233z"/>
	<g class="st3">
		<path class="st8" d="M-17.5-222c-14.8-4.7-29.6-4.7-44.6,0c-2.5,0.8-4.2,3.2-4.2,5.8v0.1c0,3.4,2.7,6.1,6.1,6.1h-0.1v34.8
			c0,2.8,2.3,5.1,5.1,5.1h30.8c2.8,0,5.1-2.3,5.1-5.1V-210h-0.1c3.4,0,6.1-2.7,6.1-6.1v-0.1C-13.3-218.8-15-221.2-17.5-222z"/>
		<g>
			<path class="st9" d="M-24.3-168.9h-30.8c-3.8,0-6.8-3.1-6.8-6.8v-34.8h3.5v34.8c0,1.8,1.5,3.3,3.3,3.3h30.8
				c1.8,0,3.3-1.5,3.3-3.3v-34.8h3.5v34.8C-17.5-172-20.6-168.9-24.3-168.9z"/>
		</g>
		<g>
			<path class="st10" d="M-19.4-208.8c-1,0-1.8-0.8-1.8-1.8c0-1,0.8-1.8,1.8-1.8c2.4,0,4.3-1.9,4.3-4.3v-0.1c0-1.9-1.2-3.5-2.9-4.1
				c-14.4-4.6-29-4.6-43.5,0c-1.7,0.5-3,2.2-3,4.1v0.1c0,2.4,1.9,4.3,4.3,4.3c1,0,1.8,0.8,1.8,1.8c0,1-0.8,1.8-1.8,1.8
				c-4.3,0-7.8-3.5-7.8-7.8v-0.1c0-3.4,2.2-6.4,5.4-7.5c15.2-4.8,30.6-4.8,45.7,0c3.2,1,5.4,4,5.4,7.5v0.1
				C-11.5-212.3-15-208.8-19.4-208.8z"/>
		</g>
		<circle class="st11" cx="-51.9" cy="-216.6" r="2.2"/>
		<circle class="st11" cx="-39.8" cy="-211.3" r="1.6"/>
		<circle class="st11" cx="-29.7" cy="-202" r="2.5"/>
		<circle class="st11" cx="-46.7" cy="-196.9" r="1.9"/>
		<circle class="st11" cx="-34.2" cy="-184.9" r="1.9"/>
		<circle class="st11" cx="-50.6" cy="-180" r="2.5"/>
	</g>
</g>
<g class="st0">
	<path class="st12" d="M89.6-25.3c6.6,2.2,4.7,17.2,4.8,15.1c-0.1,3.5,0.5,7.6-6.8,7.6c-5.3,0-7.1-2.5-7.1-5.7
		C80.5-15,93.9-20.2,89.6-25.3z"/>
	<path class="st13" d="M89.6-25.3c8.3-0.9,14.6,9.7,14.6,17c0,5-3,5.7-7.3,5.7c-9.3,0-6.2-2.7-5.3-5.7C93-13.7,93.1-21.2,89.6-25.3z
		"/>
	<path class="st14" d="M89.6-25.3c6.4,2.1,9.4,13.2,9.3,17c-0.1,3.5-2.4,5.7-6.7,5.7c-5.3,0-6.1-2.7-5.2-5.7
		C88.5-13.7,93.1-21.2,89.6-25.3z"/>
	<path class="st15" d="M113.1,21.6H69.6V2.1c0-2.6,2.1-4.7,4.7-4.7h34.2c2.6,0,4.7,2.1,4.7,4.7V21.6z"/>
	<path class="st15" d="M129.9,48H52.8c-2.4,0-4.4,2-4.4,4.4v29.1c0,2.1,1.7,3.9,3.9,3.9h78.2c2.1,0,3.9-1.7,3.9-3.9V52.4
		C134.3,49.9,132.3,48,129.9,48z"/>
	<g class="st3">
		<path class="st16" d="M76.8,4.1c1.4,0,2.8,1,4.3,2c1,0.7,2.3,1.6,2.9,1.6c0.6,0,1.9-0.9,2.9-1.6c1.5-1,2.9-2,4.3-2
			c1.4,0,2.8,1,4.3,2c1,0.7,2.3,1.6,2.9,1.6c0.6,0,1.9-0.9,2.9-1.6c1.5-1,2.9-2,4.3-2c1.9,0,5.6,2.3,7.3,3.3l0-5.5
			c0-2.5-2-4.5-4.5-4.5H74.1c-2.5,0-4.5,2-4.5,4.5l0,5.5C71.2,6.4,74.9,4.1,76.8,4.1z"/>
	</g>
	<rect x="48.4" y="72.1" class="st17" width="85.9" height="5.7"/>
	<g class="st3">
		<circle class="st18" cx="73.2" cy="3.3" r="1.4"/>
		<circle class="st18" cx="81.9" cy="-0.7" r="1.4"/>
		<circle class="st18" cx="84.2" cy="3.3" r="1.4"/>
		<circle class="st18" cx="110.7" cy="3.3" r="1.4"/>
		<circle class="st19" cx="74.7" cy="-0.3" r="1.4"/>
		<circle class="st19" cx="94.4" cy="-0.7" r="1.4"/>
		<circle class="st19" cx="98.1" cy="5.3" r="1.4"/>
		<circle class="st19" cx="107.6" cy="-0.7" r="1.4"/>
		<circle class="st20" cx="88.8" cy="0.7" r="1.4"/>
		<circle class="st20" cx="77.7" cy="3.3" r="1.4"/>
		<circle class="st20" cx="100.1" cy="0.7" r="1.4"/>
	</g>
	<path class="st15" d="M54,26.2v21.8h74.7V26.2c0-2.5-2.1-4.6-4.6-4.6H58.6C56.1,21.6,54,23.7,54,26.2z"/>
	<path class="st21" d="M127.1,48H120h-7.2h-7.2h-7.2h-7.2h-7.2H77h-7.2h-7.2h-7.2h-2.5c-2.6,0-4.7,2.1-4.7,4.7v20.7
		c0,2,1.6,3.5,3.5,3.5H52c2,0,3.5-1.6,3.5-3.5V66c0-2,1.6-3.5,3.5-3.5h0.1c2,0,3.5,1.6,3.5,3.5v1.5c0,2,1.6,3.5,3.5,3.5h0.1
		c2,0,3.5-1.6,3.5-3.5v-7.1c0-2,1.6-3.5,3.5-3.5h0.1c2,0,3.5,1.6,3.5,3.5v2.8c0,2,1.6,3.5,3.5,3.5h0.1c2,0,3.5,1.6,3.5,3.5v0.5
		c0,2,1.6,3.5,3.5,3.5h0.1c2,0,3.5-1.6,3.5-3.5v-6.9c0-2,1.6-3.5,3.5-3.5H95c2,0,3.5,1.6,3.5,3.5v0.8c0,2,1.6,3.5,3.5,3.5h0.1
		c2,0,3.5-1.6,3.5-3.5v-3c0-2,1.6-3.5,3.5-3.5h0.1c2,0,3.5,1.6,3.5,3.5v6.5c0,2,1.6,3.5,3.5,3.5h0.1c2,0,3.5-1.6,3.5-3.5v-1
		c0-2,1.6-3.5,3.5-3.5h0.1c2,0,3.5,1.6,3.5,3.5v6.2c0,2,1.6,3.5,3.5,3.5h0.1c2,0,3.5-1.6,3.5-3.5V52.6c0-2.6-2.1-4.7-4.7-4.7H127.1z
		"/>
	<rect x="54" y="39.5" class="st17" width="74.7" height="8.4"/>
	<path class="st17" d="M112.8,14.3H69.9c-0.6,0-1.1,0.5-1.1,1.1V17c0,0.6,0.5,1.1,1.1,1.1h42.9c0.6,0,1.1-0.5,1.1-1.1v-1.6
		C113.9,14.8,113.4,14.3,112.8,14.3z"/>
	<g class="st3">
		<path class="st22" d="M113.1,10.1c-0.2,0-0.5-0.1-0.7-0.2c-2.4-1.6-5.6-3.4-6.6-3.4c-0.6,0-1.9,0.9-2.9,1.6c-1.5,1-2.9,2-4.3,2
			s-2.8-1-4.3-2c-1-0.7-2.3-1.6-2.9-1.6c-0.6,0-1.9,0.9-2.9,1.6c-1.5,1-2.9,2-4.3,2c-1.4,0-2.8-1-4.3-2c-1-0.7-2.3-1.6-2.9-1.6
			c-1,0-4.2,1.8-6.6,3.4c-0.5,0.4-1.3,0.2-1.7-0.3c-0.4-0.5-0.2-1.3,0.3-1.7c0.9-0.6,5.7-3.8,7.9-3.8c1.4,0,2.8,1,4.3,2
			c1,0.7,2.3,1.6,2.9,1.6c0.6,0,1.9-0.9,2.9-1.6c1.5-1,2.9-2,4.3-2c1.4,0,2.8,1,4.3,2c1,0.7,2.3,1.6,2.9,1.6c0.6,0,1.9-0.9,2.9-1.6
			c1.5-1,2.9-2,4.3-2c2.3,0,7,3.2,7.9,3.8c0.5,0.4,0.7,1.1,0.3,1.7C113.9,9.9,113.5,10.1,113.1,10.1z"/>
	</g>
	<rect x="54" y="35.1" class="st21" width="74.7" height="4.4"/>
	<g class="st3">
		<circle class="st18" cx="54" cy="62.1" r="1.4"/>
		<circle class="st18" cx="69.6" cy="52.8" r="1.4"/>
		<circle class="st18" cx="85.7" cy="60.7" r="1.4"/>
		<circle class="st18" cx="99.8" cy="54.2" r="1.4"/>
		<circle class="st18" cx="128.7" cy="60.7" r="1.4"/>
		<circle class="st18" cx="130.1" cy="52.8" r="1.4"/>
		<circle class="st19" cx="101.2" cy="62.4" r="1.4"/>
		<circle class="st19" cx="66" cy="64.4" r="1.4"/>
		<circle class="st19" cx="87.1" cy="67.7" r="1.4"/>
		<circle class="st19" cx="89.9" cy="52.8" r="1.4"/>
		<circle class="st19" cx="58.5" cy="51.3" r="1.4"/>
		<circle class="st19" cx="76.5" cy="51.8" r="1.4"/>
		<circle class="st19" cx="52.6" cy="55.6" r="1.4"/>
		<circle class="st19" cx="114.5" cy="52.8" r="1.4"/>
		<circle class="st20" cx="124.3" cy="52.8" r="1.4"/>
		<circle class="st20" cx="108.7" cy="54.2" r="1.4"/>
		<circle class="st20" cx="59.9" cy="57.8" r="1.4"/>
		<circle class="st20" cx="78.6" cy="55.6" r="1.4"/>
		<circle class="st20" cx="104" cy="50.4" r="1.4"/>
	</g>
	<path class="st13" d="M125.1,21.3H57.6c-2.7,0-5,2.2-5,5c0,2.7,2.2,5,5,5c2.4,0,4.3-1.6,4.8-3.8c0.5,2.2,2.5,3.8,4.8,3.8
		s4.3-1.6,4.8-3.8c0.5,2.2,2.5,3.8,4.8,3.8c2.4,0,4.3-1.6,4.8-3.8c0.5,2.2,2.5,3.8,4.8,3.8c2.4,0,4.3-1.6,4.8-3.8
		c0.5,2.2,2.5,3.8,4.8,3.8c2.4,0,4.3-1.6,4.8-3.8c0.5,2.2,2.5,3.8,4.8,3.8s4.3-1.6,4.8-3.8c0.5,2.2,2.5,3.8,4.8,3.8s4.3-1.6,4.8-3.8
		c0.5,2.2,2.5,3.8,4.8,3.8c2.7,0,5-2.2,5-5C130.1,23.5,127.8,21.3,125.1,21.3z"/>
	<circle class="st12" cx="57.1" cy="26.2" r="2.4"/>
	<circle class="st12" cx="66.9" cy="26.2" r="2.4"/>
	<circle class="st12" cx="76.7" cy="26.2" r="2.4"/>
	<circle class="st12" cx="86.5" cy="26.2" r="2.4"/>
	<circle class="st12" cx="96.3" cy="26.2" r="2.4"/>
	<circle class="st12" cx="106.1" cy="26.2" r="2.4"/>
	<circle class="st12" cx="115.8" cy="26.2" r="2.4"/>
	<circle class="st12" cx="125.6" cy="26.2" r="2.4"/>
</g>
<g class="st0">
	<g class="st3">
		<path class="st23" d="M-6.4-296c-0.6,0-1-0.5-1-1c0-4.6,2.2-10.8,8.3-13c0.5-0.2,1.1,0.1,1.3,0.6c0.2,0.5-0.1,1.1-0.6,1.3
			c-5.1,1.8-6.9,6.8-6.9,11C-5.3-296.5-5.8-296-6.4-296z"/>
	</g>
	<rect x="-42.6" y="-281.3" class="st15" width="59.3" height="29"/>
	<rect x="-42.6" y="-270.2" class="st24" width="59.3" height="6.9"/>
	<path class="st21" d="M16.7-281.3v7.8c0,1.8-1.5,3.3-3.3,3.3h-1.1c-1.8,0-3.3-1.5-3.3-3.3v-0.1c0-1.8-1.5-3.3-3.3-3.3H5.3
		c-1.8,0-3.2,1.4-3.2,3.2v3.2c0,2-1.6,3.6-3.6,3.6h-0.1c-2,0-3.6-1.6-3.6-3.6v-3.2c0-1.8-1.4-3.2-3.2-3.2h-34.1v-4.5L1-298
		C10.2-295.2,14.9-289.3,16.7-281.3z"/>
	<path class="st25" d="M16.7-281.3L16.7-281.3l-59.3,0L1-298C10.2-295.2,14.9-289.3,16.7-281.3z"/>
	<path class="st26" d="M2.4-293.1c0,4.9-3.9,8.8-8.8,8.8c-4.9,0-8.8-3.9-8.8-8.8c0-4.9,4.6-7.6,8.8-4C-1.7-301,2.4-297.9,2.4-293.1z
		"/>
	<circle class="st27" cx="-11.3" cy="-295.3" r="1.7"/>
	<circle class="st28" cx="-38.8" cy="-274" r="1.6"/>
	<circle class="st28" cx="-30.4" cy="-272.3" r="1.1"/>
	<circle class="st28" cx="-16" cy="-273.7" r="1.4"/>
	<circle class="st28" cx="-32.6" cy="-256.5" r="1.6"/>
	<circle class="st28" cx="-21.2" cy="-260.2" r="1.9"/>
	<circle class="st28" cx="7.3" cy="-257.4" r="2.5"/>
</g>
<g class="st0">
	<g class="st3">
		<path class="st29" d="M-191.4-190.5c-22.8,0-36.5-14.4-36.5-28.2c0-13.7,10-24,23.2-24c4.4,0,8.8,1.5,13.3,4.5
			c4.4-3,8.9-4.5,13.3-4.5c13.2,0,23.2,10.3,23.2,24C-154.9-204.8-168.5-190.5-191.4-190.5z M-204.6-230.6
			c-6.5,0-11.1,4.9-11.1,11.9c0,7.8,9.8,16.1,24.4,16.1c14.6,0,24.4-8.3,24.4-16.1c0-7-4.6-11.9-11.1-11.9c-1.2,0-2.5,0.3-3.9,0.9
			c2.6,3,5.2,6.4,7.8,10.4c1.8,2.8,1,6.5-1.8,8.4c-2.8,1.8-6.5,1-8.4-1.8c-2.4-3.7-4.8-6.8-7-9.4c-2.3,2.6-4.6,5.7-7,9.4
			c-1.8,2.8-5.6,3.6-8.4,1.8c-2.8-1.8-3.6-5.6-1.8-8.4c2.6-4,5.2-7.4,7.8-10.4C-202.1-230.3-203.4-230.6-204.6-230.6z"/>
	</g>
	<g class="st3">
		<path class="st30" d="M-176-215.3c-2.8,1.8-5.9,0.5-8.4-1.8c-3.5-3.3-4.8-5.3-7.1-7.9c-2.3,2.6-3.9,5.6-6.9,8.3
			c-2.5,2.2-5.7,3.1-8.5,1.3c-1.1-0.7-1.9-1.8-2.3-2.9c-1,2.6-0.1,5.6,2.3,7.2c2.8,1.8,6.5,1,8.4-1.8c2.4-3.7,4.8-6.8,7-9.4
			c2.3,2.6,4.6,5.7,7,9.4c1.8,2.8,5.6,3.6,8.4,1.8c2.4-1.6,3.3-4.6,2.3-7.2C-174.1-217-174.8-216-176-215.3z"/>
		<path class="st30" d="M-204.6-230.6c0.3,0,3.5,0.9,3.9,0.9c1-1.2,2.1-2.4,3.1-3.5c-1.4-0.6-5.7-1.7-6.9-1.7
			c-6.5,0-11.1,4.9-11.1,11.9c0,0.6,0.1,1.3,0.2,1.9C-214.6-226.8-210.4-230.6-204.6-230.6z"/>
		<path class="st30" d="M-178.1-235c-1.2,0-5.1,1.5-6.4,2.1c1,1.1,1.6,1.9,2.6,3.1c0.3,0,3.5-0.9,3.9-0.9c5.8,0,10,3.8,10.9,9.5
			c0.1-0.6,0.2-1.3,0.2-1.9C-167-230-171.6-235-178.1-235z"/>
		<path class="st30" d="M-191.4-194.8c-21.7,0-35.1-13-36.4-26.2c-0.1,0.8-0.1,1.5-0.1,2.3c0,13.9,13.6,28.2,36.5,28.2
			c22.8,0,36.5-14.4,36.5-28.2c0-0.8,0-1.6-0.1-2.3C-156.2-207.8-169.6-194.8-191.4-194.8z"/>
	</g>
	
		<ellipse transform="matrix(0.9923 0.1242 -0.1242 0.9923 -30.5239 19.9802)" class="st31" cx="-175.5" cy="-234.8" rx="0.7" ry="1.6"/>
	
		<ellipse transform="matrix(0.9155 0.4023 -0.4023 0.9155 -112.6322 65.4325)" class="st31" cx="-212.1" cy="-235.4" rx="0.7" ry="1.6"/>
	
		<ellipse transform="matrix(0.5613 -0.8276 0.8276 0.5613 107.0864 -275.1985)" class="st31" cx="-206" cy="-238.6" rx="0.7" ry="1.6"/>
	
		<ellipse transform="matrix(0.5087 -0.8609 0.8609 0.5087 103.341 -288.5733)" class="st31" cx="-201.2" cy="-234.8" rx="0.7" ry="1.6"/>
	
		<ellipse transform="matrix(0.8921 -0.4518 0.4518 0.8921 81.5063 -107.4072)" class="st31" cx="-184.2" cy="-224.4" rx="0.7" ry="1.6"/>
	
		<ellipse transform="matrix(0.8126 0.5828 -0.5828 0.8126 -171.8553 63.6442)" class="st31" cx="-184.9" cy="-235.4" rx="0.7" ry="1.6"/>
	
		<ellipse transform="matrix(0.8978 -0.4404 0.4404 0.8978 80.8992 -109.2544)" class="st31" cx="-194.9" cy="-228.9" rx="0.7" ry="1.6"/>
	
		<ellipse transform="matrix(0.2763 0.9611 -0.9611 0.2763 -363.0773 12.5049)" class="st31" cx="-189.8" cy="-234.8" rx="0.7" ry="1.6"/>
	
		<ellipse transform="matrix(2.127032e-002 -0.9998 0.9998 2.127032e-002 66.9725 -383.5358)" class="st31" cx="-162.4" cy="-226" rx="0.7" ry="1.6"/>
	
		<ellipse transform="matrix(0.7713 -0.6365 0.6365 0.7713 111.632 -159.019)" class="st31" cx="-165.4" cy="-234.8" rx="0.7" ry="1.6"/>
	
		<ellipse transform="matrix(0.1595 0.9872 -0.9872 0.1595 -405.054 26.9794)" class="st31" cx="-218.4" cy="-224.4" rx="0.7" ry="1.6"/>
	
		<ellipse transform="matrix(0.5794 -0.815 0.815 0.5794 94.7519 -277.4004)" class="st31" cx="-221.4" cy="-230.5" rx="0.7" ry="1.6"/>
	
		<ellipse transform="matrix(0.645 -0.7642 0.7642 0.645 102.6545 -249.915)" class="st31" cx="-217.6" cy="-235.4" rx="0.7" ry="1.6"/>
	
		<ellipse transform="matrix(0.9997 2.573106e-002 -2.573106e-002 0.9997 -5.6532 5.067)" class="st31" cx="-199.7" cy="-217.1" rx="0.7" ry="1.6"/>
	
		<ellipse transform="matrix(0.9571 -0.2896 0.2896 0.9571 52.8387 -74.028)" class="st31" cx="-223.7" cy="-215.6" rx="0.7" ry="1.6"/>
	
		<ellipse transform="matrix(0.9961 -8.803599e-002 8.803599e-002 0.9961 19.0241 -18.4553)" class="st31" cx="-199.7" cy="-224.9" rx="0.7" ry="1.6"/>
	
		<ellipse transform="matrix(0.6054 0.7959 -0.7959 0.6054 -253.9901 79.0896)" class="st31" cx="-206.8" cy="-216.6" rx="0.7" ry="1.6"/>
	
		<ellipse transform="matrix(0.7959 -0.6054 0.6054 0.7959 94.2562 -151.5071)" class="st31" cx="-177.6" cy="-215.6" rx="0.7" ry="1.6"/>
	
		<ellipse transform="matrix(0.9035 -0.4286 0.4286 0.9035 77.2401 -90.2102)" class="st31" cx="-161.7" cy="-216.6" rx="0.7" ry="1.6"/>
	
		<ellipse transform="matrix(0.1418 0.9899 -0.9899 0.1418 -354.5117 -34.5506)" class="st31" cx="-157.3" cy="-221.7" rx="0.7" ry="1.6"/>
	
		<ellipse transform="matrix(0.5467 0.8373 -0.8373 0.5467 -265.6387 34.5314)" class="st31" cx="-164.7" cy="-228.1" rx="0.7" ry="1.6"/>
	
		<ellipse transform="matrix(0.9864 0.1641 -0.1641 0.9864 -41.8376 26.0074)" class="st31" cx="-178.3" cy="-240.2" rx="0.7" ry="1.6"/>
</g>
<g class="st0">
	<circle class="st32" cx="-114.1" cy="-238.3" r="1.9"/>
	<path class="st13" d="M-96.9-205.8c0,7.4-9.9,6.8-22.1,6.8s-22.1,1.6-22.1-6.8c0-8.4,9.9-11.8,22.1-11.8S-96.9-213.2-96.9-205.8z"
		/>
	<path class="st14" d="M-104.1-206.7c0,6-8,4.9-17.9,4.9c-9.9,0-17.9,1.9-17.9-4.9s8-9.9,17.9-9.9
		C-112.1-216.6-104.1-212.7-104.1-206.7z"/>
	<path class="st33" d="M-114.3-207.9c0,4.3-5.7,2.7-12.8,2.7c-7.1,0-12.8,2.2-12.8-2.7c0-4.9,5.7-7.7,12.8-7.7
		C-120-215.6-114.3-212.2-114.3-207.9z"/>
	<g class="st3">
		<polygon class="st18" points="-128.1,-181.4 -132.7,-181.4 -137.3,-202.4 -131.2,-199.4 		"/>
		<polygon class="st34" points="-128.1,-181.4 -132.7,-181.4 -137.3,-202.4 -131.2,-199.4 		"/>
		<polygon class="st35" points="-123.6,-181.4 -128.1,-181.4 -131.2,-199.4 -125.1,-202.4 		"/>
		<polygon class="st35" points="-132.7,-181.4 -137.3,-181.4 -143.4,-199.4 -137.3,-202.4 		"/>
		<polygon class="st34" points="-119,-181.4 -123.6,-181.4 -125.1,-202.4 -119,-199.4 		"/>
		<polygon class="st35" points="-114.4,-181.4 -119,-181.4 -119,-199.4 -112.9,-202.4 		"/>
		<polygon class="st34" points="-109.9,-181.4 -114.4,-181.4 -112.9,-202.4 -106.8,-199.4 		"/>
		<polygon class="st35" points="-105.3,-181.4 -109.9,-181.4 -106.8,-199.4 -100.7,-202.4 		"/>
		<polygon class="st34" points="-100.7,-181.4 -105.3,-181.4 -100.7,-202.4 -94.6,-199.4 		"/>
	</g>
	<path class="st13" d="M-105.9-214.8c1.1-0.1,2-0.6,2.7-2.1c0.5-1.1,0.6-2.3,0.5-3.5c-0.4-4.5-3.8-8.5-8.2-9.7
		c-2.2-0.6-4.7-0.6-6.9-0.2c-1.8,0.3-3.4,0.2-5.2,0.3c-4,0.3-7.8,1.6-11.1,3.9c-1.6,1.2-3.2,2.6-3.9,4.5c-0.7,1.9-0.3,4.3,1.3,5.5
		c2.3,1.7,4.7,0.2,7.1-0.2c2.7-0.4,5.5-0.6,8.3-0.6c3.4,0,6.8,0.3,10.2,1C-109.4-215.6-107.5-214.7-105.9-214.8z"/>
	<path class="st14" d="M-134-225.4c-1.1,0.7-2.2,1.5-2.9,2.6c-0.7,1.1-0.9,2.6-0.2,3.7c0.7,1.2,2.1,1.7,3.5,1.7c1.4,0,2.7-0.4,4-0.7
		c4.2-1,8.7-1.1,13-0.2c1.5,0.3,3.1,0.8,4.6,0.7c1.6-0.1,3.2-0.7,4-2.1c0.7-1.4,0.4-3.1-0.5-4.4c-0.9-1.3-2.3-2.1-3.7-2.7
		C-119.1-229.9-127.5-229.4-134-225.4z"/>
	<path class="st33" d="M-123.4-221.5c1-0.3,2.1-0.6,2.7-1.5c0.8-1.3-0.1-3.1-1.5-3.8s-3-0.5-4.5-0.2c-2.1,0.4-4.1,1.1-6,1.9
		c-1.1,0.5-2.2,1.1-2.9,2.1c-0.7,1-0.8,2.5,0,3.3c1,1.1,2.8,0.8,4.2,0.4C-128.8-220-126.1-220.8-123.4-221.5z"/>
	<path class="st13" d="M-125.7-240.3c1.4-0.4,3.1-0.9,3.6-2.3c0.4-1.2-0.4-2.5-1.4-3.3c-2-1.5-4.9-1.8-7.1-0.6
		c0.6-2.2,3.1-3.5,5.5-3.6c7.6-0.4,14.9,7.4,16.9,14.1c1,3.4-0.2,5.5-3.7,5.8c-4.1,0.4-8.3,0.7-12.4,1.1c-1.9,0.2-3.8,0.2-5.6,0.7
		c-1.3,0.4-2.5,0.9-3.8,0.1c-0.9-0.6-1.3-1.7-1.2-2.8c0.1-1.1,0.6-2.1,1.1-3C-132-236.9-129.1-239.2-125.7-240.3z"/>
	<path class="st14" d="M-121.5-246.1c2.2,2.5,0.3,5.3-2.3,6.6c-2,1-4.3,1.5-6.2,2.8c-1.6,1.1-3.8,3.3-3.3,5.4c0.3,1.4,1.6,2.5,3,2.6
		c1.9,0.2,3.5-1.3,5.3-2c1.6-0.6,3.3-0.7,5-0.6c1.7,0,3.4,0.1,5.1-0.3c1.7-0.4,3.3-1.4,3.9-3c1-2.4-1.8-5.9-3.4-7.6
		c-2.8-3.1-6.6-5.7-10.8-6.4C-123.8-247.9-122.4-247.2-121.5-246.1z"/>
	<path class="st36" d="M-129.6-233.8c-0.8,0.8-1.6,2-1,3c0.6,1.1,2.3,0.8,3.3,0.1c1-0.7,1.8-1.8,3-2.1c1.6-0.4,3.5,0.7,5.1,0.1
		c1.5-0.6,2-2.5,2-4.2c0-3.4-1.3-6.9-3.6-9.4c0.9,1.7,0.6,3.7-0.4,5.4c-0.9,1.6-2.4,2.9-3.9,3.9
		C-126.6-236.1-128.2-235.1-129.6-233.8z"/>
	<circle class="st37" cx="-119" cy="-243.3" r="1.9"/>
	<circle class="st37" cx="-131.2" cy="-234.5" r="1.9"/>
	<circle class="st37" cx="-110.6" cy="-223.1" r="1.9"/>
	<circle class="st38" cx="-132.4" cy="-210.9" r="1.9"/>
	<circle class="st38" cx="-113.5" cy="-235.1" r="1.9"/>
	<circle class="st39" cx="-123.7" cy="-237" r="1.9"/>
	<circle class="st39" cx="-123.7" cy="-225" r="1.9"/>
</g>
<g>
	<g>
		<path class="st40" d="M14.1,97.6C6.3,97.6,0,91.2,0,83.4c0-7.3,12.5-36.8,13-38.1l1.1-2.6l1.1,2.6c0.5,1.3,13,30.8,13,38.1
			C28.3,91.2,21.9,97.6,14.1,97.6z M14.1,48.9C9.5,60,2.4,78.4,2.4,83.4c0,6.5,5.3,11.7,11.7,11.7s11.7-5.3,11.7-11.7
			C25.9,78.4,18.7,60,14.1,48.9z"/>
	</g>
	<g>
		<path class="st40" d="M14.1,97.6c-4,0-7.1-6.1-7.1-14.1c0-7.2,5.7-36.6,5.9-37.8l1.2-6.1l1.2,6.1c0.2,1.2,5.9,30.7,5.9,37.8
			C21.2,91.5,18.2,97.6,14.1,97.6z M14.1,52.3c-1.7,9.3-4.7,26.1-4.7,31.1c0,6.7,2.5,11.7,4.7,11.7c2.2,0,4.7-5,4.7-11.7
			C18.8,78.5,15.8,61.6,14.1,52.3z"/>
	</g>
	<path class="st8" d="M18.7,41.4H9.5v6.4c0,1.5,1.2,2.8,2.8,2.8h3.6c1.5,0,2.8-1.2,2.8-2.8V41.4z"/>
	<path class="st41" d="M18.7,41.4H9.5L7.4,7.1C7.1,3.3,10.2,0,14.1,0h0.1c3.9,0,6.9,3.3,6.7,7.1L18.7,41.4z"/>
	<circle class="st8" cx="12.4" cy="5.6" r="2.2"/>
</g>
<g class="st0">
	<rect x="-271" y="-230.3" class="st42" width="26.5" height="89.4"/>
	<path class="st6" d="M-262.9-257.9v16.8c0,3.1-1.5,6-4,7.9l-4,2.9h26.5l-4-2.9c-2.5-1.8-4-4.7-4-7.9v-16.8c0-1.6-1.3-2.8-2.8-2.8
		h-4.7C-261.6-260.7-262.9-259.4-262.9-257.9z"/>
	<path class="st42" d="M-258.7-256.4v15.4c0,0.5-0.4,1-1,1h0c-0.5,0-1-0.4-1-1v-15.4c0-0.5,0.4-1,1-1h0
		C-259.2-257.4-258.7-256.9-258.7-256.4z"/>
	<path class="st6" d="M-262.9-113.4v-16.8c0-3.1-1.5-6-4-7.9l-4-2.9h26.5l-4,2.9c-2.5,1.8-4,4.7-4,7.9v16.8c0,1.6-1.3,2.8-2.8,2.8
		h-4.7C-261.6-110.6-262.9-111.8-262.9-113.4z"/>
	<path class="st42" d="M-258.7-114.9v-15.4c0-0.5-0.4-1-1-1h0c-0.5,0-1,0.4-1,1v15.4c0,0.5,0.4,1,1,1h0
		C-259.2-113.9-258.7-114.3-258.7-114.9z"/>
	<path class="st43" d="M-260.7-222.8v74.3c0,1.6-1.3,2.8-2.8,2.8h-0.1c-1.6,0-2.8-1.3-2.8-2.8v-74.3c0-1.6,1.3-2.8,2.8-2.8h0.1
		C-262-225.6-260.7-224.3-260.7-222.8z"/>
</g>
<g class="st0">
	<path class="st44" d="M-138.1-23.6h-122.7V-41c0-33.5,27.2-60.7,60.7-60.7h1.2c33.5,0,60.7,27.2,60.7,60.7V-23.6z"/>
	<path class="st45" d="M-245.4-28.1v-12.5c0-25,20.4-45.4,45.4-45.4h1.2c25.1,0,45.4,20.4,45.4,45.4v12.5H-245.4z"/>
	<g class="st3">
		<path class="st46" d="M-246.8-45.7c0,0-0.1,0.2-0.1,0.5c0,0.3,0,0.7,0,1.1c0,0.8-0.1,1.6-0.1,1.6c0,0.5-0.2,0.9-0.4,1.3
			c-0.3,0.4-0.6,0.8-1,1.2c-0.8,0.8-1.9,1.2-3.2,1.2h-12.6c-1.2,0-2.4-0.5-3.2-1.2c-0.4-0.3-0.7-0.9-0.9-1.5
			c-0.2-0.6-0.3-1.2-0.3-1.9c0,0,0.1-1.2,0.1-2.3c0-0.6,0.1-1.2,0.1-1.6c0-0.4,0.1-0.7,0.1-0.7c0.4-2.7,2.7-4.6,5.2-4.1l12.4,2.3
			C-248.3-49.4-246.5-47.5-246.8-45.7z"/>
		<path class="st46" d="M-152-45.7c0,0,0.1,0.2,0.1,0.5c0,0.3,0,0.7,0,1.1c0,0.8,0.1,1.6,0.1,1.6c0,0.5,0.2,0.9,0.4,1.3
			c0.3,0.4,0.6,0.8,1,1.2c0.8,0.8,1.9,1.2,3.2,1.2h12.6c1.2,0,2.4-0.5,3.2-1.2c0.4-0.3,0.7-0.9,0.9-1.5c0.2-0.6,0.3-1.2,0.3-1.9
			c0,0-0.1-1.2-0.1-2.3c0-0.6-0.1-1.2-0.1-1.6c0-0.4-0.1-0.7-0.1-0.7c-0.4-2.7-2.7-4.6-5.2-4.1l-12.4,2.3
			C-150.5-49.4-152.3-47.5-152-45.7z"/>
		<g>
			<path class="st46" d="M-244.3-60.3c0,0-0.3,0.8-0.6,1.7c-0.3,0.8-0.6,1.7-0.6,1.7c-0.5,2-2.9,3.1-5.3,2.6l-6-1.4
				c-2.4-0.5-3.8-3.1-3.1-5.7c0,0,0.1-0.3,0.2-0.7c0.2-0.4,0.4-1,0.6-1.5c0.4-1.1,0.8-2.2,0.8-2.2c0.2-0.6,0.6-1.2,1-1.6
				c0.5-0.4,1-0.8,1.5-1c1.1-0.4,2.4-0.4,3.5,0.1l5.5,2.7c1.1,0.5,1.9,1.4,2.4,2.4c0.2,0.5,0.3,1,0.3,1.5
				C-244.1-61.3-244.1-60.8-244.3-60.3z"/>
			<path class="st46" d="M-236.6-73.5l-2.1,2.8c-0.7,0.8-1.5,1.3-2.6,1.5c-1,0.2-2.2,0-3.3-0.7l-10.8-6.5c-1.1-0.6-1.7-1.7-1.9-3
				c-0.2-1.2,0.1-2.7,1-3.9l3.1-4.1c2-2.2,5.1-2.6,6.8-0.9l9.1,8.8C-235.6-77.6-235.3-74.9-236.6-73.5z"/>
			<path class="st46" d="M-226.2-82.8l-2.8,2.1c-0.9,0.6-1.8,0.8-2.9,0.7c-1-0.1-2.1-0.7-3-1.6l-4.1-4.5c-0.8-0.9-1.2-2.1-1.1-3.3
				c0.1-1.2,0.7-2.4,1.8-3.2l3.7-2.8c2.3-1.4,5.2-0.8,6.4,1.4l3,5.4C-224.1-86.5-224.5-83.9-226.2-82.8z"/>
			<path class="st46" d="M-213.6-88.9l-3.3,1.2c-1,0.3-2,0.3-3-0.2c-1-0.4-1.8-1.3-2.4-2.4l-2.7-5.5c-0.5-1.1-0.6-2.3-0.1-3.5
				c0.4-1.1,1.3-2.1,2.6-2.5l4.4-1.6c2.7-0.7,5.2,0.7,5.7,3.2l1.3,6C-210.5-91.7-211.7-89.3-213.6-88.9z"/>
			<path class="st46" d="M-198.5-90.9c0,0-0.2,0-0.6,0c-0.3,0-0.8,0-1.2,0c-0.9,0-1.8,0.1-1.8,0.1c-1,0.1-2-0.5-2.8-1.1
				c-0.8-0.7-1.4-1.7-1.5-3l-1.7-12.5c-0.2-1.2,0.3-2.4,1.1-3.4c0.9-1,2.2-1.5,3.7-1.6c0,0,5.1-0.3,5.1-0.1c3,0.1,5.2,2.3,5,4.8
				l-1.2,12.6C-194.6-92.8-196.5-90.8-198.5-90.9z"/>
			<path class="st46" d="M-184.7-88.7c0,0-0.9-0.2-1.7-0.5c-0.9-0.2-1.7-0.4-1.7-0.4c-0.5-0.1-0.9-0.4-1.3-0.7
				c-0.4-0.3-0.7-0.7-1-1.1c-0.5-0.9-0.8-2.1-0.6-3.3l1-6.1c0.2-1.2,0.9-2.3,1.9-2.9c0.5-0.3,1.1-0.6,1.7-0.7c0.6-0.1,1.3,0,1.9,0.1
				c0,0,1.1,0.3,2.3,0.6c0.6,0.1,1.1,0.3,1.6,0.4c0.4,0.1,0.7,0.2,0.7,0.2c2.6,0.9,3.9,3.6,2.9,5.8l-2.3,5.7
				C-180.5-89.3-182.8-88-184.7-88.7z"/>
			<path class="st46" d="M-172.1-82.6c0,0-0.2-0.1-0.5-0.3c-0.3-0.2-0.7-0.4-1-0.6c-0.8-0.5-1.5-0.9-1.5-0.9
				c-0.4-0.3-0.8-0.7-1.1-1.1c-0.3-0.4-0.5-0.9-0.6-1.4c-0.3-1-0.2-2.2,0.4-3.3l2.7-5.5c0.5-1.1,1.5-1.9,2.6-2.2
				c0.6-0.2,1.2-0.2,1.8-0.2c0.6,0.1,1.2,0.3,1.8,0.7c0,0,1,0.6,2,1.2c0.5,0.3,1,0.6,1.4,0.8c0.4,0.2,0.6,0.4,0.6,0.4
				c2.2,1.6,2.7,4.5,1.1,6.4l-3.9,4.8C-167.9-81.9-170.5-81.4-172.1-82.6z"/>
			<path class="st46" d="M-161.1-72.1c0,0-0.1-0.2-0.3-0.4c-0.2-0.3-0.4-0.6-0.7-1c-0.6-0.7-1.2-1.3-1.2-1.3
				c-0.7-0.8-0.9-1.8-0.8-2.9c0.1-1,0.5-2.1,1.4-3l8.7-9.1c0.9-0.9,2.1-1.3,3.3-1.2c1.2,0.1,2.5,0.8,3.5,1.9c0,0,0.9,1,1.7,1.9
				c0.4,0.5,0.8,1,1.1,1.4c0.3,0.4,0.5,0.6,0.5,0.6c0.9,1.2,1.3,2.6,1.2,3.8c-0.1,1.2-0.8,2.4-1.8,3l-10.6,6.9
				c-1.1,0.7-2.2,0.9-3.3,0.8C-159.5-70.8-160.5-71.3-161.1-72.1z"/>
			<path class="st46" d="M-154.3-59.9c0,0-0.1-0.2-0.2-0.5c-0.1-0.3-0.2-0.7-0.4-1.1c-0.4-0.8-0.8-1.6-0.8-1.6c-0.4-0.9-0.4-2,0-3
				c0.4-1,1.1-1.9,2.2-2.5l5.3-3c1.1-0.6,2.3-0.7,3.5-0.4c1.1,0.4,2.1,1.3,2.7,2.5c0,0,0.5,1.1,1,2.1c0.3,0.5,0.4,1.1,0.6,1.5
				c0.1,0.4,0.2,0.7,0.2,0.7c0.5,1.3,0.4,2.6-0.1,3.7c-0.5,1.1-1.5,1.9-2.6,2.2l-5.9,1.7c-1.2,0.4-2.3,0.2-3.4-0.2
				C-153.1-58.2-153.9-58.9-154.3-59.9z"/>
		</g>
	</g>
	<path class="st47" d="M-137.6-19.4h-123.6c-2,0-3.6-1.6-3.6-3.6v-5.6c0-2,1.6-3.6,3.6-3.6h123.6c2,0,3.6,1.6,3.6,3.6v5.6
		C-134-21-135.6-19.4-137.6-19.4z"/>
	<path class="st48" d="M-199.2-62.1h-0.4c-13.1,0-25.4,6.4-33,17.1l-0.2,0.3c-3.8,5.3,0,12.7,6.5,12.7h53.7c6.5,0,10.3-7.4,6.5-12.7
		l-0.2-0.3C-173.8-55.8-186.1-62.1-199.2-62.1z"/>
	<path class="st49" d="M-172.5-41h-53.7c-2.9,0-5.3-1.5-6.7-3.6c-3.5,5.3,0.2,12.5,6.7,12.5h53.7c6.4,0,10.2-7.2,6.7-12.5
		C-167.3-42.5-169.6-41-172.5-41z"/>
</g>
<g class="st0">
	<path class="st50" d="M-180.9,89c0,7.1-22.4-2.4-41-2.4c-18.7,0-41,9.5-41,2.4c0-6.4,5.8-6.3,6.6-10.4c0.2-0.9,0.5-4.1-1-8.9
		c-2.9-9.5-5.6-24.4,1-43.5c0.4-1.3,1.1-2.5,1.7-3.8h65.5c0.6,1.3,1.2,2.6,1.7,3.8c6.6,18.5,3.9,34,1,43.5c-1.5,4.8-1.2,7.9-1,8.9
		C-186.7,82.7-180.9,82.7-180.9,89z"/>
	<path class="st50" d="M-191.2,13.5h-61.4c-2.8,0-5,2.3-5,5v0.1c0,2.1,1.7,3.8,3.8,3.8h64c2.1,0,3.8-1.7,3.8-3.8v-0.1
		C-186.2,15.7-188.4,13.5-191.2,13.5z"/>
	<path class="st51" d="M-187.5,26.2h-68.8c0.5-1.3,1.1-2.5,1.7-3.8h65.5C-188.6,23.7-188,25-187.5,26.2z"/>
	<path class="st51" d="M-180.9,89c0,7.1-22.4-2.4-41-2.4c-18.7,0-41,9.5-41,2.4c0-6.4,5.8-6.3,6.6-10.4c0.2-0.9,0.5-4.1-1-8.9
		c15,14.9,59.8,15.1,70.8,0c-1.5,4.8-1.2,7.9-1,8.9C-186.7,82.7-180.9,82.7-180.9,89z"/>
	<path class="st52" d="M-222.4-6c-10.2,0-27,19.5-27,19.5h53.7C-195.6,13.5-212.2-6-222.4-6z"/>
	<path class="st53" d="M-230.6,5.1c-4,0-10.4,8.4-10.4,8.4h15.8C-225.2,13.5-226.7,5.1-230.6,5.1z"/>
</g>
<g class="st0">
	<path class="st54" d="M-132.5,22.2c-2.7,4.4-6.4,2.6-6.4,2.6s-1.9-4.9,0.8-9.3c2.7-4.4,8.2-5.6,8.2-5.6S-129.8,17.8-132.5,22.2z"/>
	<path class="st54" d="M-131.3,35.4c-3.1,4.4-7.5,2.6-7.5,2.6s-2.2-4.9,0.9-9.3c3.1-4.4,9.7-5.6,9.7-5.6S-128.2,31.1-131.3,35.4z"/>
	<path class="st54" d="M-130.9,48.7c-3.3,4.4-7.9,2.6-7.9,2.6s-2.3-4.9,0.9-9.3c3.3-4.4,10.1-5.6,10.1-5.6S-127.6,44.3-130.9,48.7z"
		/>
	<path class="st54" d="M-130,62c-3.6,4.4-8.7,2.6-8.7,2.6s-2.6-4.9,1-9.3c3.6-4.4,11.2-5.6,11.2-5.6S-126.4,57.6-130,62z"/>
	<path class="st54" d="M-148.7,22.2c2.7,4.4,6.4,2.6,6.4,2.6s1.9-4.9-0.8-9.3c-2.7-4.4-8.2-5.6-8.2-5.6S-151.4,17.8-148.7,22.2z"/>
	<path class="st54" d="M-150,35.4c3.1,4.4,7.5,2.6,7.5,2.6s2.2-4.9-0.9-9.3c-3.1-4.4-9.7-5.6-9.7-5.6S-153.1,31.1-150,35.4z"/>
	<path class="st54" d="M-150.4,48.7c3.3,4.4,7.9,2.6,7.9,2.6s2.3-4.9-0.9-9.3c-3.3-4.4-10.1-5.6-10.1-5.6S-153.6,44.3-150.4,48.7z"
		/>
	<path class="st54" d="M-151.2,62c3.6,4.4,8.7,2.6,8.7,2.6s2.6-4.9-1-9.3c-3.6-4.4-11.2-5.6-11.2-5.6S-154.8,57.6-151.2,62z"/>
	<path class="st54" d="M-129.2,76.5c-3.8,4.4-9.3,2.6-9.3,2.6s-2.7-4.9,1.1-9.3c3.8-4.4,11.9-5.6,11.9-5.6S-125.4,72.1-129.2,76.5z"
		/>
	<path class="st54" d="M-152,76.5c3.8,4.4,9.3,2.6,9.3,2.6s2.7-4.9-1.1-9.3c-3.8-4.4-11.9-5.6-11.9-5.6S-155.8,72.1-152,76.5z"/>
	<g class="st3">
		<path class="st29" d="M-140.6,96.2c-0.7,0-1.3-0.6-1.3-1.3V12c0-0.7,0.6-1.3,1.3-1.3c0.7,0,1.3,0.6,1.3,1.3v82.9
			C-139.3,95.6-139.9,96.2-140.6,96.2z"/>
	</g>
	<path class="st54" d="M-135.4,5.9c0,5.8-5.2,7.8-5.2,7.8s-5.2-2-5.2-7.8s5.2-11.7,5.2-11.7S-135.4,0.1-135.4,5.9z"/>
</g>
<g class="st0">
	<path class="st6" d="M-88.7-318.7c-15,0-27.2,12.2-27.2,27.2c0,15,12.2,27.2,27.2,27.2c15,0,27.2-12.2,27.2-27.2
		C-61.6-306.6-73.7-318.7-88.7-318.7z M-88.7-282.2c-5.2,0-9.4-4.2-9.4-9.4c0-5.2,4.2-9.4,9.4-9.4c5.2,0,9.4,4.2,9.4,9.4
		C-79.3-286.4-83.6-282.2-88.7-282.2z"/>
	<path class="st55" d="M-64.7-296.2c-1.1-1.1-2.7-1.4-4-2.3c-1.5-1.1-2.4-2.9-2.9-4.8c-0.6-1.8-0.9-3.7-1.8-5.4
		c-0.9-1.7-2.4-3.2-4.3-3.3c-2.5-0.2-4.9,1.9-7.3,1.4c-2.3-0.5-3.6-3-5.9-3.6c-1.8-0.4-3.7,0.6-5,1.9c-1.3,1.4-2.2,3-3.5,4.4
		c-1.3,1.4-3.1,2.5-5,2.2c-0.7-0.1-1.3-0.4-1.9-0.5c-1.7-0.2-3.3,1.1-4,2.6c-0.7,1.5-0.8,3.3-0.9,5c-0.2,3.6-0.3,7.3-0.5,10.9
		c-0.1,1.8-0.2,3.7,0.2,5.4c0.8,3.6,3.5,6.5,6.7,8.5c3.2,1.9,6.8,2.9,10.3,3.9c4.2,1.2,8.7,2.4,13,1.6c5.3-1,9.6-5.1,12.6-9.5
		c2.2-3.3,3.9-6.9,5.1-10.7C-63.1-291.1-62.7-294.3-64.7-296.2z M-77.3-291c-1.2,2-2.3,3.8-3,6c-0.6,2-1.7,3.5-3.7,4.4
		c-2,0.9-4.3,0.9-6.3,0.3c-1.1-0.4-2.2-0.9-3.2-1.6c-2.4-1.7-4.1-4.2-4.9-6.9c-0.6-2.3-0.6-4.9,0.2-7.2c0.3-1,0.8-1.9,1.2-2.9
		c0.4-1,0.9-2,1.5-2.9c1.1-1.4,2.8-2.4,4.6-2.1c1.6,0.3,2.8,1.6,4.3,2.3c1.7,0.9,3.8,1,5.7,1.4c1.9,0.4,3.9,1.3,4.8,3
		C-75.2-295.1-76.1-292.8-77.3-291z"/>
	<circle class="st56" cx="-105.6" cy="-301.9" r="2.1"/>
	<circle class="st57" cx="-101" cy="-289" r="2.1"/>
	<circle class="st57" cx="-102" cy="-277.6" r="2.1"/>
	<circle class="st57" cx="-82.2" cy="-272.2" r="2.1"/>
	<circle class="st57" cx="-74" cy="-284.2" r="2.1"/>
	<circle class="st57" cx="-66.7" cy="-289" r="2.1"/>
	<circle class="st57" cx="-84.2" cy="-304.8" r="2.1"/>
	<circle class="st57" cx="-92.3" cy="-312.5" r="2.1"/>
	<circle class="st57" cx="-110.2" cy="-294.5" r="2.1"/>
	<circle class="st58" cx="-109.1" cy="-285.2" r="2.1"/>
	<circle class="st58" cx="-78.6" cy="-281.1" r="2.1"/>
	<circle class="st58" cx="-76.5" cy="-308.4" r="2.1"/>
	<circle class="st58" cx="-96.9" cy="-305.6" r="2.1"/>
	<circle class="st56" cx="-94.4" cy="-272.2" r="2.1"/>
	<circle class="st56" cx="-71.9" cy="-278.2" r="2.1"/>
	<circle class="st56" cx="-70.8" cy="-297.8" r="2.1"/>
</g>
<g class="st0">
	<path class="st59" d="M-49.1-21.1l-2.6,25.8L-57.1,58l-1.8,17.7L-60,87h-22.2c-8.4-22.2-14.2-66.1-11.4-108.4L-49.1-21.1z"/>
	<path class="st60" d="M-51.7,4.7L-57.1,58l-1.8,17.7C-63.7,60.9-67.4,41-69,24.1c-0.6-6.4,2.8-12.5,8.7-15.3L-51.7,4.7z"/>
	<path class="st59" d="M-12.9-20.5c-0.1,5.1,1.1,14.2,0.3,25.1c-2,25.8-3.9,62.1-7.8,83.3h-20.8c-8.8-24.9-22-64.5-23.4-103.3
		l3.9-0.4l29.6-2.7L-12.9-20.5z"/>
	<g class="st3">
		<polygon class="st61" points="-40.3,-79.9 -67.6,-79.9 -66.9,-90.6 -41,-90.6 		"/>
		<path class="st62" d="M-32.2-103.4c0,12-16.1,18.3-21.8,18.3c-5.7,0-21.8-6.2-21.8-18.3c0-4.5,1.4-9.1,3.7-13.2
			c0.6-1.1,0.9-2.4,0.9-3.7v-0.2c0-9.4,7.6-17,17-17h0.3c9.4,0,17,7.6,17,17v0.2c0,0.6,0.1,1.3,0.2,1.9c0.2,0.6,0.4,1.2,0.7,1.8
			C-33.5-112.5-32.2-107.8-32.2-103.4z"/>
		<ellipse class="st62" cx="-34.4" cy="-110.1" rx="3.4" ry="4.8"/>
		<ellipse class="st62" cx="-73.5" cy="-110.1" rx="3.4" ry="4.8"/>
		<path class="st63" d="M-35-114.9h-11.9c-2.7,0-4.8,2.2-4.8,4.8v0.1c0,1.8,1.1,3.5,2.7,4.3l0.3,0.1c1.1,0.5,1.8,1.7,1.8,2.9v0.1
			c0,1.8-1.4,3.2-3.2,3.2h-3.8v14.3c5.7,0,21.8-6.2,21.8-18.3C-32.2-107.2-33.2-111.2-35-114.9z"/>
		<ellipse class="st62" cx="-54.1" cy="-87.3" rx="3.9" ry="2.2"/>
		<path class="st63" d="M-50.5-92.2h-7c-1.3,0-2.3-1-2.3-2.3v0c0-1.3,1-2.3,2.3-2.3h7c1.3,0,2.3,1,2.3,2.3v0
			C-48.2-93.3-49.2-92.2-50.5-92.2z"/>
		<path class="st62" d="M-51.6-93.6h-4.6c-0.8,0-1.5-0.7-1.5-1.5v0c0-0.8,0.7-1.5,1.5-1.5h4.6c0.8,0,1.5,0.7,1.5,1.5v0
			C-50.1-94.3-50.8-93.6-51.6-93.6z"/>
		<path class="st64" d="M-44.3-93c0.1-0.1-1.4-1.2-2.3-1.4c-0.9-0.2-2.7-0.3-5.3-0.3c-1.2,0-2.1-1-2.1-2.2v-2.5c0,0,6-0.2,8.1,1
			C-43.6-97.1-44.3-93-44.3-93z"/>
		<path class="st64" d="M-63.6-93c0.1-0.2,1.4-1.2,2.3-1.4c0.9-0.2,2.7-0.3,5.3-0.3c1.2,0,2.1-1,2.1-2.2v-2.5c0,0-6-0.2-8.1,1
			C-64.2-97.2-63.7-93.4-63.6-93z"/>
		<circle class="st64" cx="-41.7" cy="-121.1" r="3.5"/>
		<circle class="st64" cx="-35.3" cy="-116.2" r="2"/>
		<circle class="st64" cx="-66.2" cy="-121.1" r="3.5"/>
		<circle class="st64" cx="-72.6" cy="-116.2" r="2"/>
		<g>
			<polygon class="st65" points="-71.3,-121.8 -36.6,-121.8 -35.7,-132.6 -34.9,-142.9 -73,-142.9 -72.2,-132.6 			"/>
			<path class="st66" d="M-34.9-142.9l-0.9,10.3c-0.1,0-0.2,0-0.2,0c-2.6,0.3-5-0.4-6.9-1.8c-1.6-1.1-3.7-1.2-5.3,0
				c-1.6,1.2-3.7,1.9-5.8,1.9c-2.2,0-4.2-0.7-5.8-1.9c-1.5-1.1-3.7-1.1-5.3,0c-2,1.4-4.5,2.1-7.1,1.8l-0.9-10.3H-34.9z"/>
			<path class="st65" d="M-37.1-154.3c-9.1-2.7-26-2.7-33.8,0c-5.2,1.8-9.9,4.3-9.9,9.7c0,5.4,4.4,9.7,9.9,9.7
				c3.6,0,6.7-1.9,8.4-4.7c1.7,2.8,4.9,4.7,8.4,4.7c3.6,0,6.7-1.9,8.4-4.7c1.7,2.8,4.9,4.7,8.4,4.7c5.5,0,9.9-4.3,9.9-9.7
				C-27.2-149.9-31.8-152.7-37.1-154.3z"/>
		</g>
		<circle class="st64" cx="-37.3" cy="-119.8" r="2.9"/>
		<circle class="st64" cx="-70.6" cy="-119.8" r="2.9"/>
		<circle class="st64" cx="-67.1" cy="-120.7" r="2"/>
		<circle class="st64" cx="-45.1" cy="-121.4" r="2"/>
	</g>
	<path class="st67" d="M-102.5-24.7l-0.2,0l15-41.6c2.6-7.3,10.5-11.1,17.9-8.7l6.6,2.2L-73.2-46C-77.8-33.6-89.3-25.2-102.5-24.7z"
		/>
	<g class="st3">
		<polygon class="st63" points="-109.4,-50.6 -95.2,-50.6 -95.2,-76.8 -116.4,-76.8 -112.4,-72.2 -109.4,-67 		"/>
		<path class="st63" d="M-106.1-76.4h-5.8l-6.4-9.3c-1.1-1.6,0-3.7,1.9-3.7h0.1c0.8,0,1.5,0.4,1.9,1L-106.1-76.4z"/>
		<path class="st63" d="M-99.1-76.4h-6.2l-6.9-9.9c-1.2-1.7,0-4,2.1-4h0.1c0.8,0,1.6,0.4,2.1,1.1L-99.1-76.4z"/>
		<path class="st63" d="M-97.8-90.6L-97.8-90.6c1.5,0,2.7,1.2,2.7,2.6v11.6h-5.3V-88C-100.4-89.4-99.3-90.6-97.8-90.6z"/>
		<g>
			<path class="st68" d="M-104.6-102.3h-0.3c-8.8,0-17.1,4.3-22.3,11.5l-0.1,0.2c-2.5,3.6,0,8.5,4.4,8.5h36.3c4.4,0,7-5,4.4-8.5
				l-0.1-0.2C-87.5-98-95.8-102.3-104.6-102.3z"/>
			<path class="st69" d="M-86.7-88h-36.3c-2,0-3.6-1-4.5-2.4c-2.4,3.6,0.2,8.4,4.5,8.4h36.3c4.3,0,6.9-4.8,4.5-8.4
				C-83.1-89-84.7-88-86.7-88z"/>
			
				<ellipse transform="matrix(0.6645 0.7473 -0.7473 0.6645 -111.7668 50.2703)" class="st70" cx="-111.9" cy="-99.3" rx="0.7" ry="1.6"/>
			
				<ellipse transform="matrix(-0.9217 0.388 -0.388 -0.9217 -244.9786 -144.6124)" class="st70" cx="-107.9" cy="-97" rx="0.7" ry="1.6"/>
			
				<ellipse transform="matrix(9.342144e-002 0.9956 -0.9956 9.342144e-002 -194.7168 15.1816)" class="st70" cx="-105.7" cy="-99.3" rx="0.7" ry="1.6"/>
			
				<ellipse transform="matrix(-0.5674 0.8234 -0.8234 -0.5674 -231.4632 -76.755)" class="st70" cx="-95.6" cy="-99.2" rx="0.7" ry="1.6"/>
			
				<ellipse transform="matrix(-0.8218 0.5698 -0.5698 -0.8218 -219.7732 -122.7091)" class="st70" cx="-90.7" cy="-95.7" rx="0.7" ry="1.6"/>
			
				<ellipse transform="matrix(0.9967 8.070364e-002 -8.070364e-002 0.9967 -7.8354 9.4825)" class="st70" cx="-121.2" cy="-92.2" rx="0.7" ry="1.6"/>
			
				<ellipse transform="matrix(0.8803 0.4744 -0.4744 0.8803 -58.2852 42.6024)" class="st70" cx="-113.6" cy="-94.2" rx="0.7" ry="1.6"/>
			
				<ellipse transform="matrix(-0.9887 0.1501 -0.1501 -0.9887 -228.154 -168.8506)" class="st70" cx="-107.7" cy="-93" rx="0.7" ry="1.6"/>
			
				<ellipse transform="matrix(-0.9579 0.2872 -0.2872 -0.9579 -229.2843 -157.4885)" class="st70" cx="-103.1" cy="-95.6" rx="0.7" ry="1.6"/>
			
				<ellipse transform="matrix(-0.8205 0.5716 -0.5716 -0.8205 -230.4382 -115.1544)" class="st70" cx="-97.1" cy="-93.8" rx="0.7" ry="1.6"/>
			
				<ellipse transform="matrix(0.1754 0.9845 -0.9845 0.1754 -193.4938 36.9397)" class="st70" cx="-118.8" cy="-97" rx="0.7" ry="1.6"/>
			
				<ellipse transform="matrix(0.3265 0.9452 -0.9452 0.3265 -169.3926 43.5858)" class="st70" cx="-115.3" cy="-97.1" rx="0.7" ry="1.6"/>
			
				<ellipse transform="matrix(0.9978 6.652363e-002 -6.652363e-002 0.9978 -6.9259 6.9922)" class="st70" cx="-108.5" cy="-100.5" rx="0.7" ry="1.6"/>
			
				<ellipse transform="matrix(0.6863 0.7273 -0.7273 0.6863 -105.357 42.1192)" class="st70" cx="-101.5" cy="-101.1" rx="0.7" ry="1.6"/>
			
				<ellipse transform="matrix(-0.8903 0.4553 -0.4553 -0.8903 -232.4093 -141.7798)" class="st70" cx="-99.1" cy="-98.9" rx="0.7" ry="1.6"/>
			
				<ellipse transform="matrix(0.3147 0.9492 -0.9492 0.3147 -169.1546 47.1853)" class="st70" cx="-117.3" cy="-93.6" rx="0.7" ry="1.6"/>
			
				<ellipse transform="matrix(-0.4377 0.8991 -0.8991 -0.4377 -242.6641 -34.3105)" class="st70" cx="-110.6" cy="-93" rx="0.7" ry="1.6"/>
			
				<ellipse transform="matrix(-0.6474 0.7622 -0.7622 -0.6474 -249.6495 -86.6546)" class="st70" cx="-104.8" cy="-101.1" rx="0.7" ry="1.6"/>
			
				<ellipse transform="matrix(0.9908 -0.1355 0.1355 0.9908 12.0275 -13.4724)" class="st70" cx="-93" cy="-95.1" rx="0.7" ry="1.6"/>
			
				<ellipse transform="matrix(-0.9292 0.3696 -0.3696 -0.9292 -207.0071 -144.8348)" class="st70" cx="-89.6" cy="-92.2" rx="0.7" ry="1.6"/>
		</g>
		<path class="st62" d="M-83.1-83.2c0,0.2-0.1,0.4-0.3,0.6l-0.7,0.6c-0.4,0.3-0.9,0.7-1.3,1.1c-0.6,0.6-1.1,1.2-1.5,1.9l-2.2,3.4
			l-2.9,4.5c-1.4,2.2-4.4,2.9-6.6,1.4l-0.3-0.2c-1.3-0.9-1.7-2.6-0.9-4l0.8-1.2c0.8-1.3,2.1-2.2,3.6-2.6l0.1,0
			c1.5-0.4,2.8-1.3,3.6-2.6l1-1.5c0.8-1.2,1.7-2.1,3-2.8c0.6-0.3,2.1-0.8,3.3-0.3c0.4,0.2,1,0.6,1,0.6
			C-83.2-83.8-83.1-83.5-83.1-83.2z"/>
		<path class="st71" d="M-83.1-83.2c0,0.2-0.1,0.4-0.3,0.6l-0.7,0.6c-0.4,0.3-0.9,0.7-1.3,1.1c-0.1,0-0.1-0.1-0.2-0.1l-0.1,0
			c-0.6-0.4-0.6-1.2-0.1-1.7l1.1-0.9c0.3-0.2,0.7-0.2,0.9-0.1L-83.1-83.2z"/>
		<path class="st62" d="M-100.9-70.2l-0.4-1c-1-2.3-3.3-3.8-5.8-3.8h-4.6l-5.2-7.5c-0.4-0.6-1.1-1-1.9-1h-0.1
			c-1.8,0-2.9,2.1-1.9,3.6l3.4,4.9l3.6,4.2c1.6,1.8,3.9,2.9,6.4,2.9h5C-101.2-67.9-100.5-69.1-100.9-70.2z"/>
	</g>
	<path class="st47" d="M-20.3,41.7c-25.5,4.9-58.9,3.9-81.3-4.5c-1-18.9,3.9-38,7.3-52.2l63.5,3.1C-29.7,8.6-22.8,31.1-20.3,41.7z"
		/>
	<path class="st59" d="M-93-58.5h-19.8v24c0,5.4,4.4,9.8,9.8,9.8h0.2c5.4,0,9.8-4.4,9.8-9.8V-58.5z"/>
	<path class="st59" d="M-12.9-20.5c-7.7,1.6-11.7,2.8-19.2,3.6v0c-9.7,1.1-19.3,1.5-28.6,1.1C-72-16.2-83-17.7-93.7-20.5
		c2.2-27.3,6.2-46.7,16-54.5c2.2-1.7,10.1-4.9,10.1-4.9l6.1,2.7l21.2-2.7l17,6.9c6.5,6.5,8.6,16.1,9.4,26.8
		C-13.3-38-13.5-29.1-12.9-20.5z"/>
	<path class="st72" d="M-29.5-17.8L-29.5-17.8c-10.2,1.1-20.3,1.5-30.2,1.1c-11.6-0.4-23-1.9-34.1-4.6c-0.2,2-0.4,4.1-0.6,6.3
		c11.3,2.8,22.9,4.3,34.7,4.7c9.9,0.4,20-0.1,30.2-1.1v0c8-0.8,16-2,24.2-3.6c-0.1-2.1-0.2-4.2-0.3-6.3
		C-13.6-19.8-21.6-18.6-29.5-17.8z"/>
	<path class="st73" d="M-13.8-20.5C-14-15.9-14.4-8.3-15.1,1c-0.2,2.1-1.7,3.8-3.8,4.2l-0.1,0c-1.2,0.2-2.5,0-3.5-0.7l-7-4.7
		c-2.1-1.4-3.6-3.5-4.3-6l-1.7-6.3c-0.8-2.9-0.4-5.9,1.1-8.4c2.8-4.6,6.9-12,6.8-15.3c-0.2-5.3-9.3-14.6-8.4-24.4
		c0.7-7.1,7-9.8,7-9.8l14,24C-14.2-38-14.4-29.1-13.8-20.5z"/>
	<g class="st3">
		<polygon class="st62" points="-4.8,-37.3 5.1,-25.8 -7.6,-14.4 -17.8,-25 		"/>
		<path class="st61" d="M-7.7-7.8c1.2-0.4,2-1.7,1.7-2.9l0,0c-0.3-1.2-1.7-1.7-3.2-1.3L-21.6-8l1.7,2.2c0.7,0.9,2,1.3,3.3,0.9
			C-14.2-5.7-10.2-7-7.7-7.8z"/>
		<path class="st61" d="M-9.9-11.1c1.2-0.4,2-1.7,1.7-2.9l0,0c-0.3-1.2-1.7-1.7-3.2-1.3l-12.4,3.9l1.7,2.2c0.7,0.9,2,1.3,3.3,0.9
			C-16.4-9-12.4-10.3-9.9-11.1z"/>
		<path class="st62" d="M-5.7-6.4L-5.7-6.4c-0.4-1.3-1.8-2-3-1.6l-4.8,1.6c2.1-2.4,5-5.3,5.9-8l0-0.1L-17.8-25l-11.3,8.8
			c-0.9,0.6-1.4,1.6-1.4,2.6l0.3,4.7c0,0.7,0.4,1.4,0.9,1.8l9.1,6.8c0.4,0.3,1.1,0.5,1.7,0.5c0,0,0.1,0,0.1,0c0.2,0,0.5-0.1,0.7-0.1
			c0,0,0.1,0,0.1,0c0.1,0,0.1,0,0.2-0.1l0,0l5.5-1.8c1-0.3,1.9-0.6,2.7-0.9l1.9-0.6C-6-3.8-5.3-5.2-5.7-6.4z"/>
	</g>
	<path class="st59" d="M-24.2-73c-2.1,0.2-5.8,3.8-5.8,3.8c-4.9,4.9-4.9,12.9,0,17.8l15.6,15.7l-6.1,6.8l14.9,14.7l9.9-10
		c6.2-6.3,9.8-17.7,4.3-24.6C3.7-54.9-13.8-73.9-24.2-73z"/>
	<ellipse class="st74" cx="-59.3" cy="-60.4" rx="2.3" ry="2.9"/>
	<ellipse class="st74" cx="-72.8" cy="-60.4" rx="2.2" ry="2.9"/>
	<ellipse class="st74" cx="-61.6" cy="-41.6" rx="2.3" ry="2.9"/>
	<ellipse class="st74" cx="-74.9" cy="-41.6" rx="2.2" ry="2.9"/>
	<path class="st67" d="M-40.3-79.9c-6.8,1.7-13.9,2.6-21.2,2.7c-2.6-0.6-4.9-1.3-6.2-2.7v-5.2c1.7,1.5,3.7,2.4,6.2,2.7
		c6.8,0.4,13.9-0.7,21.2-2.7V-79.9z"/>
	<path class="st75" d="M-78.5,80.8h-9.1c-5.4,0-9.4,5.2-8,10.4l0.5,1.9H-71l0.5-1.9C-69.1,86-73,80.8-78.5,80.8z"/>
	<rect x="-76.8" y="84.9" class="st75" width="17.2" height="5.7"/>
	<rect x="-96.3" y="90.4" class="st76" width="26.6" height="2.7"/>
	<path class="st75" d="M-28.1,84.2h-9.1c-5.4,0-9.4,5.2-8,10.4l0.5,1.9h24.1l0.5-1.9C-18.7,89.4-22.7,84.2-28.1,84.2z"/>
	<rect x="-46" y="93.8" class="st76" width="26.6" height="2.7"/>
	<rect x="-69.7" y="90.4" class="st76" width="10" height="2.7"/>
	<path class="st72" d="M-88-7.9c0,0.6,0.1,1.3,0.7,1.7c0.4,0.3,0.9,0.3,1.2,0.2c0.3-0.2,0.6-0.5,0.8-0.8c0.6-1,1.1-2.1,1.2-3.3
		c0.1-1.2-0.2-2.6-1-3.9C-86.5-12.2-87.9-10.4-88-7.9z"/>
	<path class="st72" d="M-67.6-2.4c0.2,0.8,0.6,1.7,1.4,2c0.6,0.3,1.2,0.1,1.6-0.2c0.4-0.3,0.5-0.8,0.7-1.3c0.4-1.5,0.6-3.2,0.2-4.9
		c-0.4-1.7-1.2-3.5-2.6-4.9C-67.4-8.8-68.4-5.7-67.6-2.4z"/>
	<path class="st72" d="M-80.7-4.1c-0.1,0.8,0,1.8,0.7,2.4c0.5,0.4,1.1,0.5,1.5,0.3c0.5-0.2,0.8-0.6,1.1-1c0.9-1.3,1.6-2.8,1.8-4.5
		c0.2-1.7,0-3.7-0.8-5.6C-78.4-10.1-80.4-7.6-80.7-4.1z"/>
	<path class="st72" d="M-50.2-3.5c0.3,0.6,0.7,1.2,1.4,1.4c0.5,0.1,1-0.1,1.2-0.4c0.2-0.3,0.3-0.7,0.3-1.1c0.1-1.3,0-2.6-0.6-3.9
		c-0.5-1.3-1.5-2.6-2.8-3.5C-51-8.6-51.4-6-50.2-3.5z"/>
</g>
<g class="st0">
	
		<rect x="-246" y="32.7" transform="matrix(0.8343 0.5513 -0.5513 0.8343 -18.54 138.357)" class="st77" width="13.2" height="11.3"/>
	<g class="st3">
		<g>
			<path class="st78" d="M-240.8,33.9c-0.1,0-0.2,0-0.3-0.1c-0.2-0.2-0.3-0.5-0.1-0.7l2.5-3.7c0.2-0.2,0.5-0.3,0.7-0.1
				c0.2,0.2,0.3,0.5,0.1,0.7l-2.5,3.7C-240.5,33.8-240.6,33.9-240.8,33.9z"/>
		</g>
		<g>
			<path class="st78" d="M-237.6,36c-0.1,0-0.2,0-0.3-0.1c-0.2-0.2-0.3-0.5-0.1-0.7l2.5-3.7c0.2-0.2,0.5-0.3,0.7-0.1
				c0.2,0.2,0.3,0.5,0.1,0.7l-2.5,3.7C-237.2,35.9-237.4,36-237.6,36z"/>
		</g>
		<g>
			<path class="st78" d="M-234.3,38.1c-0.1,0-0.2,0-0.3-0.1c-0.2-0.2-0.3-0.5-0.1-0.7l2.5-3.7c0.2-0.2,0.5-0.3,0.7-0.1
				c0.2,0.2,0.3,0.5,0.1,0.7l-2.5,3.7C-234,38.1-234.1,38.1-234.3,38.1z"/>
		</g>
		<g>
			<path class="st78" d="M-247,43.3c-0.1,0-0.2,0-0.3-0.1c-0.2-0.2-0.3-0.5-0.1-0.7l2.5-3.7c0.2-0.2,0.5-0.3,0.7-0.1
				c0.2,0.2,0.3,0.5,0.1,0.7l-2.5,3.7C-246.7,43.2-246.9,43.3-247,43.3z"/>
		</g>
		<g>
			<path class="st78" d="M-243.8,45.4c-0.1,0-0.2,0-0.3-0.1c-0.2-0.2-0.3-0.5-0.1-0.7l2.5-3.7c0.2-0.2,0.5-0.3,0.7-0.1
				c0.2,0.2,0.3,0.5,0.1,0.7l-2.5,3.7C-243.4,45.3-243.6,45.4-243.8,45.4z"/>
		</g>
		<g>
			<path class="st78" d="M-240.5,47.5c-0.1,0-0.2,0-0.3-0.1c-0.2-0.2-0.3-0.5-0.1-0.7l2.5-3.7c0.2-0.2,0.5-0.3,0.7-0.1
				c0.2,0.2,0.3,0.5,0.1,0.7l-2.5,3.7C-240.2,47.5-240.4,47.5-240.5,47.5z"/>
		</g>
	</g>
	<g class="st3">
		<path class="st78" d="M-231,42.1c-0.1,0-0.2,0-0.3-0.1l-3.7-2.5c-0.2-0.2-0.3-0.5-0.1-0.7c0.2-0.2,0.5-0.3,0.7-0.1l3.7,2.5
			c0.2,0.2,0.3,0.5,0.1,0.7C-230.7,42-230.8,42.1-231,42.1z"/>
	</g>
	<g class="st3">
		<path class="st78" d="M-233.1,45.3c-0.1,0-0.2,0-0.3-0.1l-3.7-2.5c-0.2-0.2-0.3-0.5-0.1-0.7c0.2-0.2,0.5-0.3,0.7-0.1l3.7,2.5
			c0.2,0.2,0.3,0.5,0.1,0.7C-232.8,45.2-233,45.3-233.1,45.3z"/>
	</g>
	<g class="st3">
		<path class="st78" d="M-242.8,34.3c-0.1,0-0.2,0-0.3-0.1l-3.7-2.5c-0.2-0.2-0.3-0.5-0.1-0.7c0.2-0.2,0.5-0.3,0.7-0.1l3.7,2.5
			c0.2,0.2,0.3,0.5,0.1,0.7C-242.4,34.2-242.6,34.3-242.8,34.3z"/>
	</g>
	<g class="st3">
		<path class="st78" d="M-244.9,37.5c-0.1,0-0.2,0-0.3-0.1l-3.7-2.5c-0.2-0.2-0.3-0.5-0.1-0.7c0.2-0.2,0.5-0.3,0.7-0.1l3.7,2.5
			c0.2,0.2,0.3,0.5,0.1,0.7C-244.6,37.5-244.7,37.5-244.9,37.5z"/>
	</g>
</g>
<g class="st0">
	<path class="st79" d="M100.7-234.7c-10.8,4.2-8.2-4.6-16.3-3.2c-3.9,0.7-6.6-1.9-6.6-4.1v-4.8c0,0,6.2-3.9,11.1-0.8
		C96.1-243,91.4-238.4,100.7-234.7z"/>
	<path class="st79" d="M54.9-234.7c10.8,4.2,8.2-4.6,16.3-3.2c3.9,0.7,6.6-1.9,6.6-4.1v-4.8c0,0-6.2-3.9-11.1-0.8
		C59.5-243,64.2-238.4,54.9-234.7z"/>
</g>
<g class="st0">
	<polygon class="st59" points="49.2,-268.3 106.4,-268.3 107.9,-286.1 109.3,-303.1 46.3,-303.1 47.7,-286.1 	"/>
	<path class="st80" d="M109.3-303.1l-1.4,17c-0.1,0-0.3,0-0.4,0.1c-4.3,0.5-8.2-0.7-11.4-2.9c-2.6-1.8-6.1-1.9-8.7-0.1
		c-2.7,2-6,3.1-9.6,3.1c-3.6,0-6.9-1.2-9.6-3.1c-2.6-1.8-6.1-1.8-8.7,0.1c-3.2,2.3-7.4,3.5-11.8,2.9l-1.4-17H109.3z"/>
	<path class="st59" d="M105.7-321.8c-15-4.5-42.8-4.4-55.7,0c-8.5,2.9-16.3,7.2-16.3,16s7.3,16,16.3,16c5.9,0,11.1-3.1,13.9-7.7
		c2.9,4.6,8,7.7,13.9,7.7c5.9,0,11.1-3.1,13.9-7.7c2.9,4.6,8,7.7,13.9,7.7c9,0,16.3-7.2,16.3-16S114.3-319.2,105.7-321.8z"/>
</g>
<g class="st0">
	<path class="st7" d="M-100.7-124.7h-122.2c-3.9,0-6.5-4-4.9-7.5l0.1-0.2c2.4-5.5,6.9-9.9,12.5-12c4.1-1.5,8.2-2.9,12.2-4.1
		c1.7-0.5,3.4-0.9,5.1-1.4c0.6-0.2,1.2-0.3,1.9-0.5c4-1,7.9-1.7,11.9-2.3c1.2-0.2,2.3-0.3,3.5-0.5h0c0.9-0.1,1.8-0.2,2.7-0.3
		c5.4-0.6,10.7-0.9,16.1-0.9h0c0.1,0,0.2,0,0.2,0c0.1,0,0.2,0,0.2,0c0.1,0,0.1,0,0.2,0c1.7,0,3.4,0.1,5.1,0.1
		c6.4,0.3,12.9,1,19.3,2.1c2.7,0.5,5.5,1,8.2,1.7c1.4,0.3,2.8,0.7,4.2,1h0c5.3,1.4,10.7,3.1,16,5c5.7,2.1,10.2,6.4,12.6,11.9
		l0.1,0.2C-94.2-128.6-96.8-124.7-100.7-124.7z"/>
	<path class="st49" d="M-95.7-132.1l-0.1-0.2c-0.7-1.5-1.5-2.9-2.5-4.3c-0.2,2.7-2.3,5-5.1,5h-116.8c-2.8,0-5-2.3-5.1-5
		c-1,1.3-1.8,2.8-2.5,4.3l-0.1,0.2c-1.5,3.6,1.1,7.5,4.9,7.5h122.2C-96.8-124.6-94.2-128.5-95.7-132.1z"/>
	<g class="st3">
		<path class="st69" d="M-185.6-140.5c0,0.1,0,0.2,0,0.2c0,0.1-0.1,0.1-0.1,0.2c0,0.1-0.1,0.1-0.2,0.1c-0.1,0-0.2,0.1-0.2,0.1h0
			c-0.1,0-0.3,0-0.5,0c-2.7,0-9.6-3.5-15.4-7.9c-0.3-0.2-0.6-0.5-0.9-0.7c1.7-0.5,3.4-0.9,5.1-1.4c0.6-0.2,1.2-0.3,1.9-0.5
			c1.2,0.8,2.5,1.6,3.7,2.5c1.9,1.4,3.4,2.7,4.5,3.9c0.2,0.2,0.3,0.3,0.5,0.5C-186.3-142.1-185.6-141.1-185.6-140.5z"/>
		<path class="st81" d="M-185.6-140.5c0,0.1,0,0.2,0,0.2c0,0.1-0.1,0.1-0.1,0.2c0,0.1-0.1,0.1-0.2,0.1c-0.1,0-0.2,0.1-0.2,0.1h0
			c-0.7-1.4-3-3.8-6.6-6.5c-1.7-1.2-3.4-2.4-5.1-3.5c0.6-0.2,1.2-0.3,1.9-0.5c1.2,0.8,2.5,1.6,3.7,2.5c1.9,1.4,3.4,2.7,4.5,3.9
			c0.2,0.2,0.3,0.3,0.5,0.5C-186.3-142.1-185.6-141.1-185.6-140.5z"/>
	</g>
	<g class="st3">
		<path class="st69" d="M-162.3-140.5c0,0.1,0,0.2,0,0.2c0,0.1-0.1,0.1-0.1,0.2c0,0.1-0.1,0.1-0.2,0.1c-0.1,0-0.2,0.1-0.2,0.1h0
			c-0.1,0-0.3,0-0.5,0c-2.7,0-9.6-3.5-15.4-7.9c-2.5-1.8-4.3-3.5-5.5-4.9c1.2-0.2,2.3-0.3,3.5-0.5h0c0.9-0.1,1.8-0.2,2.7-0.3
			c2.8,1.4,6.1,3.5,9,5.7c1.9,1.4,3.4,2.7,4.5,3.9c0.3,0.3,0.6,0.6,0.9,0.9c0.2,0.2,0.4,0.4,0.5,0.6c0.2,0.2,0.3,0.4,0.4,0.6
			C-162.4-141.2-162.3-140.8-162.3-140.5z"/>
		<path class="st81" d="M-162.3-140.5c0,0.1,0,0.2,0,0.2c0,0.1-0.1,0.1-0.1,0.2c0,0.1-0.1,0.1-0.2,0.1c-0.1,0-0.2,0.1-0.2,0.1h0
			c-0.7-1.4-3-3.8-6.6-6.5c-3.8-2.8-8.1-5.3-11.3-6.7c0.9-0.1,1.8-0.2,2.7-0.3c2.8,1.4,6.1,3.5,9,5.7c1.9,1.4,3.4,2.7,4.5,3.9
			c0.3,0.3,0.6,0.6,0.9,0.9c0.2,0.2,0.4,0.4,0.5,0.6c0.2,0.2,0.3,0.4,0.4,0.6C-162.4-141.2-162.3-140.8-162.3-140.5z"/>
	</g>
	<g class="st3">
		<path class="st69" d="M-138.9-140.5c0,0.1,0,0.2,0,0.2c0,0.1-0.1,0.1-0.1,0.2c0,0.1-0.1,0.1-0.2,0.1c-0.1,0-0.2,0.1-0.2,0.1h0
			c-0.1,0-0.3,0-0.5,0c-2.7,0-9.6-3.5-15.4-7.9c-3.6-2.7-5.9-5-6.6-6.5c0,0,0,0,0-0.1c0.1,0,0.2,0,0.2,0c0.1,0,0.2,0,0.2,0
			c0.1,0,0.1,0,0.2,0c1.7,0,3.4,0.1,5.1,0.1c3.1,1.4,7,3.8,10.5,6.4c1.9,1.4,3.4,2.7,4.5,3.9c0.1,0.1,0.2,0.2,0.2,0.2
			C-139.6-142.2-138.9-141.1-138.9-140.5z"/>
		<path class="st81" d="M-162-154.2c0.1,0,0.2,0,0.2,0C-161.8-154.2-161.9-154.2-162-154.2C-162-154.2-162-154.2-162-154.2z"/>
		<path class="st81" d="M-138.9-140.5c0,0.1,0,0.2,0,0.2c0,0.1-0.1,0.1-0.1,0.2c0,0.1-0.1,0.1-0.2,0.1c-0.1,0-0.2,0.1-0.2,0.1h0
			c-0.7-1.4-3-3.8-6.6-6.5c-5.7-4.3-12.4-7.7-15.2-7.9c1.7,0,3.4,0.1,5.1,0.1c3.1,1.4,7,3.8,10.5,6.4c1.9,1.4,3.4,2.7,4.5,3.9
			c0.1,0.1,0.2,0.2,0.2,0.2C-139.6-142.2-138.9-141.1-138.9-140.5z"/>
	</g>
	<g class="st3">
		<path class="st69" d="M-115.5-140.5c0,0.1,0,0.2,0,0.2c0,0.1-0.1,0.1-0.1,0.2c0,0.1-0.1,0.1-0.2,0.1c-0.1,0-0.2,0.1-0.2,0.1h0
			c-0.1,0-0.3,0-0.5,0c-2.7,0-9.6-3.5-15.4-7.9c-2.1-1.6-3.8-3-4.9-4.3c2.7,0.5,5.5,1,8.2,1.7c1.4,0.3,2.8,0.7,4.2,1h0
			c0.7,0.5,1.5,1,2.2,1.6c1.9,1.4,3.4,2.7,4.5,3.9c0.2,0.2,0.3,0.3,0.5,0.5c0.3,0.4,0.7,0.7,0.9,1.1c0.2,0.2,0.3,0.4,0.4,0.6
			C-115.6-141.2-115.5-140.8-115.5-140.5z"/>
		<path class="st81" d="M-115.5-140.5c0,0.1,0,0.2,0,0.2c0,0.1-0.1,0.1-0.1,0.2c0,0.1-0.1,0.1-0.2,0.1c-0.1,0-0.2,0.1-0.2,0.1h0
			c-0.7-1.4-3-3.8-6.6-6.5c-1.9-1.4-4-2.8-6-4c1.4,0.3,2.8,0.7,4.2,1h0c0.7,0.5,1.5,1,2.2,1.6c1.9,1.4,3.4,2.7,4.5,3.9
			c0.2,0.2,0.3,0.3,0.5,0.5c0.3,0.4,0.7,0.7,0.9,1.1c0.2,0.2,0.3,0.4,0.4,0.6C-115.6-141.2-115.5-140.8-115.5-140.5z"/>
	</g>
</g>
<g class="st0">
	<g class="st3">
		<path class="st82" d="M39.3-61.6c-6.4,0-12.4-2.8-16.5-7.6c-4.1-4.8-5.9-11.2-4.9-17.5l8.8-55.6h102.1l8.8,55.6
			c1,6.3-0.8,12.6-4.9,17.5c-4.1,4.8-10.1,7.6-16.5,7.6H39.3z"/>
		<path class="st65" d="M115.4-64.5H40.2c-11.8,0-20.8-10.6-19-22.2l8.4-52.7H126l8.4,52.7C136.3-75,127.3-64.5,115.4-64.5z"/>
		<g>
			<g>
				<path class="st83" d="M119.8-137.1c-0.5,0-0.9-0.3-1-0.8l-0.7-3.9c-0.1-0.5,0.3-1.1,0.8-1.2c0.5-0.1,1.1,0.3,1.1,0.8l0.7,3.9
					c0.1,0.5-0.3,1.1-0.8,1.2C119.9-137.1,119.9-137.1,119.8-137.1z"/>
			</g>
			<g>
				<path class="st83" d="M115.4-69.5H113c-0.6,0-1-0.4-1-1c0-0.6,0.4-1,1-1h2.4c1.7,0,3.3-0.3,4.9-1c0.5-0.2,1.1,0,1.3,0.5
					c0.2,0.5,0,1.1-0.5,1.3C119.3-69.9,117.4-69.5,115.4-69.5z M105.2-69.5h-7.8c-0.6,0-1-0.4-1-1c0-0.6,0.4-1,1-1h7.8
					c0.6,0,1,0.4,1,1C106.2-69.9,105.8-69.5,105.2-69.5z M89.5-69.5h-7.8c-0.6,0-1-0.4-1-1c0-0.6,0.4-1,1-1h7.8c0.6,0,1,0.4,1,1
					C90.5-69.9,90.1-69.5,89.5-69.5z M73.9-69.5h-7.8c-0.6,0-1-0.4-1-1c0-0.6,0.4-1,1-1h7.8c0.6,0,1,0.4,1,1
					C74.9-69.9,74.4-69.5,73.9-69.5z M58.2-69.5h-7.8c-0.6,0-1-0.4-1-1c0-0.6,0.4-1,1-1h7.8c0.6,0,1,0.4,1,1
					C59.2-69.9,58.8-69.5,58.2-69.5z M42.6-69.5h-2.4c-2,0-3.9-0.4-5.7-1.2C34-70.9,33.8-71.5,34-72c0.2-0.5,0.8-0.7,1.3-0.5
					c1.5,0.7,3.2,1,4.9,1h2.4c0.6,0,1,0.4,1,1C43.6-69.9,43.1-69.5,42.6-69.5z M29-75.6c-0.3,0-0.7-0.2-0.8-0.5
					C26.7-78.3,26-81,26-83.7l0-0.4c0-0.6,0.5-1,1-1c0.6,0,1,0.5,1,1l0,0.3c0,2.3,0.7,4.6,1.9,6.6c0.3,0.5,0.2,1.1-0.3,1.4
					C29.4-75.6,29.2-75.6,29-75.6z M126.6-75.6c-0.2,0-0.4-0.1-0.5-0.2c-0.5-0.3-0.6-0.9-0.3-1.4c1.3-2,1.9-4.2,1.9-6.6l0-0.3
					c0-0.6,0.4-1,1-1c0,0,0,0,0,0c0.5,0,1,0.4,1,1l0,0.4c0,2.7-0.8,5.3-2.2,7.6C127.2-75.7,126.9-75.6,126.6-75.6z M28.1-90.7
					c-0.1,0-0.1,0-0.2,0c-0.5-0.1-0.9-0.6-0.8-1.2l1.3-7.7c0.1-0.5,0.6-0.9,1.2-0.8c0.5,0.1,0.9,0.6,0.8,1.2l-1.3,7.7
					C29-91.1,28.6-90.7,28.1-90.7z M127.5-90.7c-0.5,0-0.9-0.3-1-0.8l-1.3-7.7c-0.1-0.5,0.3-1.1,0.8-1.1c0.5-0.1,1.1,0.3,1.1,0.8
					l1.3,7.7c0.1,0.5-0.3,1.1-0.8,1.1C127.6-90.7,127.5-90.7,127.5-90.7z M30.7-106.2c-0.1,0-0.1,0-0.2,0c-0.5-0.1-0.9-0.6-0.8-1.2
					l1.3-7.7c0.1-0.5,0.6-0.9,1.2-0.8c0.5,0.1,0.9,0.6,0.8,1.2l-1.3,7.7C31.6-106.5,31.2-106.2,30.7-106.2z M124.9-106.2
					c-0.5,0-0.9-0.3-1-0.8l-1.3-7.7c-0.1-0.5,0.3-1.1,0.8-1.2c0.5-0.1,1.1,0.3,1.1,0.8l1.3,7.7c0.1,0.5-0.3,1.1-0.8,1.1
					C125-106.2,125-106.2,124.9-106.2z M33.3-121.6c-0.1,0-0.1,0-0.2,0c-0.5-0.1-0.9-0.6-0.8-1.2l1.3-7.7c0.1-0.5,0.6-0.9,1.2-0.8
					c0.5,0.1,0.9,0.6,0.8,1.2l-1.3,7.7C34.2-122,33.8-121.6,33.3-121.6z M122.4-121.6c-0.5,0-0.9-0.3-1-0.8l-1.3-7.7
					c-0.1-0.5,0.3-1.1,0.8-1.1c0.5-0.1,1.1,0.3,1.1,0.8l1.3,7.7c0.1,0.5-0.3,1.1-0.8,1.1C122.5-121.6,122.4-121.6,122.4-121.6z"/>
			</g>
			<g>
				<path class="st83" d="M35.9-137.1c-0.1,0-0.1,0-0.2,0c-0.5-0.1-0.9-0.6-0.8-1.2l0.7-3.9c0.1-0.5,0.6-0.9,1.2-0.8
					c0.5,0.1,0.9,0.6,0.8,1.2l-0.7,3.9C36.8-137.4,36.4-137.1,35.9-137.1z"/>
			</g>
		</g>
		<path class="st82" d="M81.1-129.6c0,2.9-1.5,5.2-3.3,5.2c-1.8,0-3.3-2.3-3.3-5.2c0-2.9,3.3-12.8,3.3-12.8S81.1-132.5,81.1-129.6z"
			/>
		<path class="st82" d="M99.9-132.3c0.4,2.4-0.4,4.5-1.9,4.8c-1.5,0.3-3-1.4-3.5-3.8c-0.4-2.4,0.8-10.9,0.8-10.9
			S99.5-134.7,99.9-132.3z"/>
		<path class="st82" d="M115.3-134c0.7,2,0.3,4-1,4.4c-1.3,0.4-2.8-0.8-3.6-2.8c-0.7-2-0.9-9.6-0.9-9.6S114.6-136,115.3-134z"/>
		<path class="st82" d="M55.7-132.3c-0.4,2.4,0.4,4.5,1.9,4.8c1.5,0.3,3-1.4,3.5-3.8c0.4-2.4-0.8-10.9-0.8-10.9
			S56.2-134.7,55.7-132.3z"/>
		<path class="st82" d="M40.3-134c-0.7,2-0.3,4,1,4.4c1.3,0.4,2.8-0.8,3.6-2.8c0.7-2,0.9-9.6,0.9-9.6S41-136,40.3-134z"/>
		<rect x="2.6" y="-148.1" class="st82" width="150.4" height="8.7"/>
	</g>
	<g class="st3">
		<polygon class="st65" points="106.5,-186.2 47.5,-186.2 44.3,-146.1 109.7,-146.1 		"/>
		<path class="st82" d="M111.8-144.1H42.2l3.5-44.1h62.7L111.8-144.1z M46.5-148.1h61l-2.9-36.1H49.3L46.5-148.1z"/>
	</g>
	<g class="st3">
		<path class="st82" d="M108.7-184.2H45.3l0.9-10.8c1.1-14.2,14.5-25.4,30.5-25.4h0.5c16,0,29.4,11.1,30.5,25.4L108.7-184.2z
			 M49.7-188.2h54.7l-0.5-6.5c-1-12.2-12.6-21.7-26.6-21.7h-0.5c-13.9,0-25.6,9.5-26.6,21.7L49.7-188.2z"/>
	</g>
</g>
</svg>
